<?xml version="1.0" encoding="UTF-8" standalone="no"?>
<!-- Generator: Gravit.io -->
<svg xmlns="http://www.w3.org/2000/svg" xmlns:xlink="http://www.w3.org/1999/xlink" style="isolation:isolate" viewBox="242.677 88.542 378.323 215.89" width="378.323pt" height="215.89pt"><defs><clipPath id="_clipPath_STwyEDuuaNbGIKbAX7KqxcyghTzV9bZj"><rect x="242.677" y="88.542" width="378.323" height="215.89"/></clipPath></defs><g clip-path="url(#_clipPath_STwyEDuuaNbGIKbAX7KqxcyghTzV9bZj)"><g><path d=" M 411.983 205.99 C 432.439 192.529 474.259 247.25 491.63 273.484 C 515.714 300.714 535.036 292.33 557.788 271.297 C 582.981 245.132 583.333 238.81 618 235" fill="none" vector-effect="non-scaling-stroke" stroke-width="2" stroke="rgb(162,193,228)" stroke-linejoin="miter" stroke-linecap="square" stroke-miterlimit="3"/><path d="M 321.607 172.201 L 374.486 143.069 C 379.35 140.39 385.475 142.163 388.154 147.028 L 421.901 208.29 C 424.58 213.155 422.807 219.279 417.943 221.959 L 365.064 251.091 C 360.2 253.77 354.075 251.997 351.396 247.132 L 317.649 185.87 C 314.97 181.005 316.743 174.881 321.607 172.201 Z" style="stroke:none;fill:#C3C2C2;stroke-miterlimit:10;"/><g><path d="M 372.687 268.631 L 371.957 267.036 C 371.56 266.168 371.942 265.142 372.809 264.744 L 389.972 256.887 C 390.839 256.49 391.866 256.872 392.263 257.739 L 392.993 259.334 C 393.39 260.202 393.008 261.228 392.141 261.626 L 374.978 269.483 C 374.111 269.88 373.084 269.498 372.687 268.631 Z" style="stroke:none;fill:#DBD5FF;stroke-miterlimit:10;"/><g><path d=" M 371.973 270.075 C 378.518 266.009 386.555 262.541 394.209 259.945 L 407.04 292.141 C 392.678 297.345 387.83 299.093 377.176 302.615 C 375.602 300.959 375.102 298.802 374.809 297.953 C 373.41 293.9 376.317 290.382 378.793 288.767 Q 379.624 288.225 371.973 270.075 Z " fill="rgb(247,245,253)"/><path d=" M 404.601 285.761 L 407.126 292.097 C 405.386 292.728 403.786 293.307 402.483 293.779 C 401.132 290.046 401.852 287.378 404.601 285.761 Z " fill="rgb(160,194,226)"/><path d=" M 398.778 295.163 C 390.216 298.248 385.245 300.005 376.847 302.782 C 375.273 301.126 374.856 299.331 374.428 298.02 C 373.353 293.882 374.078 291.894 378.793 288.767 C 385.817 288.32 392.493 290.457 398.778 295.163 Z " fill="rgb(162,193,228)"/><path d=" M 376.847 302.782 C 377.13 303.077 377.739 304.255 377.96 304.432 L 408.019 293.917 L 407.126 292.097 L 376.847 302.782 Z " fill="rgb(0,0,0)"/><path d="M 372.024 268.954 L 392.86 259.618 C 393.597 259.288 394.462 259.618 394.792 260.354 L 394.792 260.354 C 395.122 261.091 394.792 261.956 394.056 262.286 L 373.22 271.622 C 372.483 271.952 371.618 271.622 371.288 270.886 L 371.288 270.886 C 370.958 270.149 371.288 269.284 372.024 268.954 Z" style="stroke:none;fill:#000000;stroke-miterlimit:10;"/></g><path d="M 369.719 263.866 L 359.188 238.419 C 358.223 236.088 359.333 233.411 361.664 232.447 L 374.879 226.978 C 377.21 226.013 379.886 227.123 380.851 229.454 L 391.382 254.901 C 392.347 257.232 391.237 259.909 388.906 260.873 L 375.691 266.342 C 373.36 267.307 370.684 266.197 369.719 263.866 Z" style="stroke:none;fill:#F7F5FD;stroke-miterlimit:10;"/></g><g><path d="M 404.326 253.475 L 403.468 251.936 C 403.005 251.105 403.304 250.054 404.135 249.59 L 420.548 240.448 C 421.379 239.985 422.431 240.284 422.894 241.115 L 423.752 242.654 C 424.215 243.485 423.916 244.536 423.085 245 L 406.672 254.142 C 405.841 254.605 404.789 254.306 404.326 253.475 Z" style="stroke:none;fill:#DBD5FF;stroke-miterlimit:10;"/><g><path d=" M 425.092 243.303 C 418.047 245.886 410.566 249.972 403.984 254.287 L 420.989 283.442 C 433.596 275.545 437.845 272.873 446.937 266.812 C 446.611 264.611 445.256 262.934 444.78 262.2 C 442.509 258.695 438.067 258.815 435.343 259.747 Q 434.429 260.059 425.092 243.303 Z " fill="rgb(247,245,253)"/><path d=" M 417.557 277.745 L 420.904 283.482 C 422.431 282.525 423.835 281.646 424.979 280.929 C 422.925 277.653 420.447 276.605 417.557 277.745 Z " fill="rgb(160,194,226)"/><path d=" M 428.263 278.917 C 435.766 274.198 440.095 271.438 447.263 266.66 C 446.937 264.459 445.81 263.063 445.06 261.948 C 442.53 258.641 440.57 258.005 435.343 259.747 C 430.787 264.868 428.422 271.271 428.263 278.917 Z " fill="rgb(162,193,228)"/><path d=" M 447.263 266.66 C 447.32 267.054 447.918 268.323 447.921 268.599 L 421.886 285.07 L 420.904 283.482 L 447.263 266.66 Z " fill="rgb(0,0,0)"/><path d="M 424.201 242.665 L 404.539 253.056 C 403.844 253.424 403.578 254.286 403.945 254.981 L 403.945 254.981 C 404.312 255.676 405.174 255.942 405.869 255.575 L 425.531 245.184 C 426.226 244.816 426.492 243.954 426.125 243.259 L 426.125 243.259 C 425.758 242.564 424.896 242.298 424.201 242.665 Z" style="stroke:none;fill:#000000;stroke-miterlimit:10;"/></g><path d="M 401.013 248.884 L 387.752 225.031 C 386.492 222.764 387.309 219.9 389.576 218.639 L 401.855 211.812 C 404.123 210.552 406.986 211.369 408.247 213.636 L 421.508 237.489 C 422.768 239.756 421.951 242.62 419.684 243.881 L 407.405 250.708 C 405.137 251.968 402.274 251.151 401.013 248.884 Z" style="stroke:none;fill:#F7F5FD;stroke-miterlimit:10;"/></g><g><path d="M 295.416 181.617 L 303.708 181.371 C 305.246 181.326 306.532 182.538 306.578 184.077 L 307.059 200.332 C 307.104 201.871 305.892 203.158 304.354 203.203 L 296.062 203.449 C 294.524 203.494 293.238 202.282 293.192 200.743 L 292.711 184.488 C 292.666 182.949 293.878 181.662 295.416 181.617 Z" style="stroke:none;fill:#DBD5FF;stroke-miterlimit:10;"/><path d="M 270.212 176.127 L 274.531 177.24 C 275.662 177.532 276.344 178.687 276.053 179.819 L 272.097 195.161 C 271.806 196.292 270.65 196.974 269.518 196.683 L 265.199 195.57 C 264.068 195.278 263.386 194.123 263.677 192.991 L 267.633 177.649 C 267.924 176.518 269.08 175.836 270.212 176.127 Z" style="stroke:none;fill:#DBD5FF;stroke-miterlimit:10;"/><path d="M 304.968 180.842 L 331.43 176.619 C 333.525 176.284 335.497 177.713 335.831 179.808 L 338.291 195.217 C 338.626 197.311 337.197 199.283 335.102 199.618 L 308.64 203.841 C 306.545 204.176 304.573 202.747 304.239 200.652 L 301.779 185.243 C 301.444 183.149 302.873 181.177 304.968 180.842 Z" style="stroke:none;fill:#F7F5FD;stroke-miterlimit:10;"/><path d="M 277.629 176.822 L 297.371 180.944 C 299.699 181.43 301.194 183.715 300.708 186.043 L 297.709 200.41 C 297.223 202.739 294.939 204.234 292.611 203.748 L 272.869 199.626 C 270.541 199.14 269.046 196.855 269.532 194.527 L 272.531 180.16 C 273.017 177.831 275.301 176.336 277.629 176.822 Z" style="stroke:none;fill:#F7F5FD;stroke-miterlimit:10;"/><g><path d=" M 269.267 176.183 Q 263.469 174.468 253.819 171.691 C 250.414 170.701 247.154 171.602 246.544 173.701 L 242.776 186.656 C 242.166 188.756 244.434 191.265 247.839 192.255 Q 257.782 196.721 263.287 196.747 Q 268.793 196.773 269.267 176.183 Q 275.066 177.899 269.267 176.183 Z " fill="rgb(247,245,253)"/><path d=" M 266.318 190.25 C 269.522 189.532 270.432 181.162 269.267 176.183 C 268.103 171.205 267.046 169.517 266.159 167.184 C 265.289 164.834 260.05 164.097 259.92 168.38 Q 260.941 172.311 261.511 173.901 Q 261.045 174.192 258.041 177.122 C 256.777 178.355 255.153 183.262 258.108 187.055 C 261.214 191.042 263.114 190.967 266.318 190.25 Z " fill="rgb(178,167,240)"/></g></g><g><path d="M 406.155 182.596 L 398.98 179.553 C 397.613 178.973 396.974 177.393 397.554 176.026 L 403.808 161.28 C 404.388 159.913 405.968 159.274 407.335 159.854 L 414.51 162.897 C 415.877 163.477 416.516 165.057 415.936 166.424 L 409.682 181.17 C 409.102 182.537 407.522 183.176 406.155 182.596 Z" style="stroke:none;fill:#DBD5FF;stroke-miterlimit:10;"/><path d="M 426.521 199.003 L 421.237 193.264 C 420.279 192.223 420.346 190.6 421.387 189.642 L 432.177 179.707 C 433.217 178.749 434.84 178.816 435.799 179.857 L 441.083 185.596 C 442.041 186.637 441.974 188.26 440.933 189.218 L 430.143 199.153 C 429.103 200.111 427.48 200.044 426.521 199.003 Z" style="stroke:none;fill:#DBD5FF;stroke-miterlimit:10;"/><path d="M 397.542 179.957 L 371.73 172.745 C 369.687 172.174 368.492 170.051 369.062 168.007 L 373.262 152.971 C 373.833 150.927 375.955 149.732 377.998 150.303 L 403.81 157.515 C 405.853 158.086 407.048 160.209 406.478 162.253 L 402.278 177.289 C 401.707 179.333 399.585 180.528 397.542 179.957 Z" style="stroke:none;fill:#F7F5FD;stroke-miterlimit:10;"/><path d="M 420.606 194.375 L 404.77 181.886 C 402.903 180.413 402.582 177.701 404.055 175.833 L 413.142 164.31 C 414.615 162.443 417.327 162.122 419.194 163.595 L 435.03 176.084 C 436.897 177.557 437.218 180.269 435.745 182.137 L 426.658 193.66 C 425.185 195.527 422.473 195.848 420.606 194.375 Z" style="stroke:none;fill:#F7F5FD;stroke-miterlimit:10;"/><g><path d=" M 426.052 198.46 Q 430.171 202.887 437.064 210.188 C 439.492 212.773 442.756 213.657 444.351 212.16 L 454.186 202.925 C 455.78 201.428 455.104 198.114 452.677 195.529 Q 446.39 186.625 441.665 183.801 Q 436.939 180.977 426.052 198.46 Q 421.934 194.032 426.052 198.46 Z " fill="rgb(247,245,253)"/><path d=" M 435.75 187.852 C 432.626 186.839 428.125 193.756 426.052 198.46 C 423.98 203.164 424.252 204.583 423.892 207.803 C 423.82 210.072 427.545 213.233 430.128 209.934 Q 431.575 206.045 431.568 204.372 Q 432.117 204.358 436.195 203.365 C 437.91 202.947 441.804 199.549 441.191 194.78 C 440.546 189.767 438.873 188.865 435.75 187.852 Z " fill="rgb(247,245,253)"/></g></g><g><path d="M 328.726 174.396 L 370.667 151.292 C 372.971 150.023 375.871 150.863 377.14 153.166 L 398.088 191.192 C 399.357 193.495 398.517 196.395 396.214 197.664 L 354.273 220.768 C 351.969 222.037 349.069 221.197 347.8 218.894 L 326.852 180.868 C 325.583 178.565 326.423 175.665 328.726 174.396 Z" style="stroke:none;fill:#F7F5FD;stroke-miterlimit:10;"/><path d=" M 350.759 215.451 L 393.722 191.783 C 396.934 190.013 400.429 191.419 401.522 194.921 C 402.138 196.894 406.635 204.918 408.737 207.482 C 411.062 210.319 410.341 214.059 407.128 215.829 L 364.042 239.564 C 360.83 241.334 357.155 239.991 355.841 236.566 C 355.023 234.433 350.637 226.408 348.875 224.011 C 346.702 221.056 347.546 217.22 350.759 215.451 Z " fill="rgb(247,245,253)"/><g><path d="M 335.017 192.624 L 382.714 166.351 C 383.63 165.847 384.704 166.039 385.112 166.78 L 385.112 166.78 C 385.521 167.521 385.109 168.532 384.193 169.036 L 336.496 195.309 C 335.58 195.813 334.506 195.621 334.098 194.88 L 334.098 194.88 C 333.689 194.139 334.101 193.128 335.017 192.624 Z" style="stroke:none;fill:#DBD5FF;stroke-miterlimit:10;"/><path d="M 340.637 202.824 L 388.334 176.551 C 389.25 176.047 390.324 176.239 390.732 176.98 L 390.732 176.98 C 391.141 177.721 390.729 178.732 389.813 179.236 L 342.116 205.509 C 341.2 206.013 340.126 205.821 339.718 205.08 L 339.718 205.08 C 339.309 204.339 339.721 203.328 340.637 202.824 Z" style="stroke:none;fill:#DBD5FF;stroke-miterlimit:10;"/><path d="M 342.037 185.072 L 373.664 168.021 C 374.197 167.734 374.863 167.933 375.151 168.466 L 383.578 184.092 C 383.866 184.625 383.667 185.29 383.133 185.578 L 351.506 202.629 C 350.973 202.916 350.307 202.717 350.019 202.184 L 341.592 186.558 C 341.304 186.025 341.503 185.36 342.037 185.072 Z" style="stroke:none;fill:#8273E8;stroke-miterlimit:10;"/><path d="M 342.888 185.631 L 373.66 169.036 C 374.009 168.848 374.446 168.979 374.635 169.328 L 382.494 183.904 C 382.682 184.254 382.551 184.691 382.202 184.879 L 351.43 201.474 C 351.081 201.662 350.644 201.531 350.455 201.182 L 342.596 186.606 C 342.408 186.256 342.539 185.819 342.888 185.631 Z" style="stroke:none;fill:#EBEBEB;stroke-miterlimit:10;"/><path d=" M 346.922 189.626 C 346.64 189.114 346.826 188.47 347.338 188.188 C 347.85 187.906 348.495 188.092 348.777 188.604 C 349.059 189.116 348.872 189.761 348.36 190.043 C 347.848 190.325 347.204 190.138 346.922 189.626 Z " fill="rgb(219,26,26)"/><path d=" M 348.71 192.872 C 348.428 192.36 348.615 191.716 349.127 191.434 C 349.638 191.152 350.283 191.338 350.565 191.85 C 350.847 192.362 350.66 193.007 350.148 193.289 C 349.636 193.571 348.992 193.384 348.71 192.872 Z " fill="rgb(177,219,26)"/><path d=" M 350.498 196.118 C 350.216 195.606 350.403 194.962 350.915 194.68 C 351.427 194.398 352.071 194.585 352.353 195.096 C 352.635 195.608 352.448 196.253 351.937 196.535 C 351.425 196.817 350.78 196.63 350.498 196.118 Z " fill="rgb(26,219,103)"/><rect x="351.344" y="180.675" width="18.001" height="11.77" transform="matrix(0.876,-0.483,0.483,0.876,-45.295,197.024)" fill="rgb(123,161,236)"/><path d="M 368.048 176.779 L 374.861 173.023 C 375.028 172.931 375.237 172.992 375.329 173.158 L 375.507 173.483 C 375.599 173.649 375.538 173.859 375.372 173.951 L 368.559 177.707 C 368.392 177.799 368.183 177.738 368.091 177.572 L 367.913 177.247 C 367.821 177.081 367.882 176.871 368.048 176.779 Z" style="stroke:none;fill:#000000;stroke-miterlimit:10;"/><path d="M 368.898 178.669 L 375.711 174.913 C 375.878 174.821 376.087 174.882 376.179 175.048 L 376.357 175.373 C 376.449 175.539 376.388 175.749 376.222 175.841 L 369.409 179.597 C 369.242 179.689 369.033 179.628 368.941 179.462 L 368.763 179.137 C 368.671 178.971 368.732 178.761 368.898 178.669 Z" style="stroke:none;fill:#000000;stroke-miterlimit:10;"/><path d="M 369.938 180.569 L 376.76 176.813 C 376.927 176.721 377.137 176.782 377.228 176.948 L 377.407 177.273 C 377.499 177.439 377.438 177.649 377.272 177.741 L 370.45 181.497 C 370.283 181.589 370.073 181.528 369.982 181.362 L 369.803 181.037 C 369.711 180.871 369.772 180.661 369.938 180.569 Z" style="stroke:none;fill:#000000;stroke-miterlimit:10;"/><path d="M 370.988 182.469 L 377.801 178.713 C 377.968 178.621 378.177 178.682 378.269 178.848 L 378.447 179.173 C 378.539 179.339 378.478 179.549 378.312 179.641 L 371.499 183.397 C 371.332 183.489 371.123 183.428 371.031 183.262 L 370.853 182.937 C 370.761 182.771 370.822 182.561 370.988 182.469 Z" style="stroke:none;fill:#000000;stroke-miterlimit:10;"/><path d="M 372.038 184.369 L 378.851 180.613 C 379.018 180.521 379.227 180.582 379.319 180.748 L 379.497 181.073 C 379.589 181.239 379.528 181.449 379.362 181.541 L 372.549 185.297 C 372.382 185.389 372.173 185.328 372.081 185.162 L 371.903 184.837 C 371.811 184.671 371.872 184.461 372.038 184.369 Z" style="stroke:none;fill:#000000;stroke-miterlimit:10;"/></g><path d=" M 334.088 199.814 Q 335.606 199.771 336.777 198.891 L 326.384 177.409 Q 330.778 193.666 334.088 199.814 Z " fill="rgb(219,213,255)"/><path d=" M 373.599 150.792 Q 374.179 150.11 377.501 150.188 Q 377.919 150.302 390.847 178.213 L 373.599 150.792 Z " fill="rgb(219,213,255)"/><path d=" M 356.475 237.689 C 357.028 238.951 357.893 239.721 359.924 240.247 L 375.723 233.13 C 364.822 236.132 362.13 235.612 356.475 237.689 Z " fill="rgb(162,193,228)"/><path d=" M 409.85 209.494 C 410.469 211.222 409.888 213.062 408.938 214.832 L 397.982 220.868 L 409.85 209.494 Z " fill="rgb(162,193,228)"/><path d=" M 347.713 220 L 354.281 218.346 L 347.59 218.405 C 347.711 218.911 347.781 219.451 347.713 220 Z " fill="rgb(189,188,188)"/><path d=" M 397.839 190.724 C 398.359 191.245 398.935 191.576 399.027 191.732 L 396.017 195.355 L 397.839 190.724 Z " fill="rgb(189,188,188)"/></g><g><g><path d="M 366.914 109.789 L 373.431 106.625 C 373.999 106.349 374.684 106.586 374.96 107.154 L 382.205 122.073 C 382.481 122.641 382.244 123.325 381.676 123.601 L 375.159 126.765 C 374.591 127.041 373.906 126.804 373.63 126.236 L 366.385 111.317 C 366.109 110.749 366.346 110.065 366.914 109.789 Z" style="stroke:none;fill:#F7F5FD;stroke-miterlimit:10;"/><path d=" M 370.974 113.495 C 370.591 112.706 370.92 111.755 371.709 111.372 C 372.497 110.989 373.449 111.319 373.831 112.107 C 374.214 112.896 373.885 113.847 373.097 114.23 C 372.308 114.613 371.357 114.283 370.974 113.495 Z " fill="rgb(0,0,0)"/><path d=" M 373.49 121.101 C 372.852 119.787 373.401 118.202 374.715 117.563 C 376.03 116.925 377.615 117.474 378.253 118.788 C 378.891 120.103 378.342 121.688 377.028 122.326 C 375.714 122.964 374.129 122.415 373.49 121.101 Z " fill="rgb(100,65,189)"/></g><g><path d="M 289.904 147.99 L 296.675 144.701 C 297.172 144.459 297.771 144.667 298.012 145.164 L 305.379 160.342 C 305.621 160.839 305.413 161.439 304.916 161.68 L 298.145 164.969 C 297.648 165.211 297.049 165.003 296.808 164.506 L 289.441 149.328 C 289.199 148.831 289.407 148.231 289.904 147.99 Z" style="stroke:none;fill:#F7F5FD;stroke-miterlimit:10;"/><path d=" M 294.09 151.636 C 293.707 150.847 294.037 149.896 294.825 149.513 C 295.614 149.13 296.565 149.459 296.948 150.248 C 297.331 151.036 297.001 151.988 296.213 152.37 C 295.424 152.753 294.473 152.424 294.09 151.636 Z " fill="rgb(0,0,0)"/><path d=" M 296.607 159.242 C 295.969 157.928 296.517 156.342 297.832 155.704 C 299.146 155.066 300.731 155.615 301.369 156.929 C 302.007 158.243 301.459 159.829 300.144 160.467 C 298.83 161.105 297.245 160.556 296.607 159.242 Z " fill="rgb(100,65,189)"/></g><path d=" M 296.37 146.282 Q 289.084 124.085 295.355 113.354 C 301.864 102.215 309.162 95.485 318.657 91.661 C 328.114 87.851 339.42 87.499 347.095 90.784 C 355.7 94.467 362.165 99.925 366.335 107.419 C 370.355 113.636 373.866 121.767 376.826 131.816 C 378.877 137.692 381.868 140.848 373.661 150.641 C 361.585 162.905 346.113 169.023 338.385 172.703 C 331.358 175.588 326.783 177.555 318.202 174.074 C 312.445 170.343 310.215 167.111 307.401 163.92 C 302.535 158.13 298.619 152.405 296.37 146.282 Z " fill="rgb(247,245,253)"/><path d=" M 317.502 92.33 C 306.738 96.317 289.76 112.674 292.459 129.094 C 293.776 140.949 297.504 154.17 309.109 167.069 C 314.751 173.259 322.017 176.142 326.048 175.872 C 316.733 168.972 307.673 157.514 302.962 131.771 C 300.498 123.457 306.216 108.438 317.502 92.33 Z " fill="rgb(236,234,249)"/><path d=" M 373.661 150.641 C 357.728 162.542 334.489 174.381 324.609 175.455 C 325.63 179.008 361.406 164.967 373.661 150.641 Z " fill="rgb(219,213,255)"/><path d=" M 302.398 149.65 C 294.202 134.772 301.873 114.802 319.518 105.082 C 337.163 95.362 358.142 99.549 366.338 114.426 C 374.534 129.304 366.862 149.274 349.218 158.995 C 331.573 168.715 310.594 164.528 302.398 149.65 Z " fill="rgb(49,48,48)"/><path d=" M 309.906 130.363 C 316.145 122.109 317.452 106.896 319.1 105.344 C 319.274 105.205 319.1 105.357 319.095 105.347 C 319.081 105.322 318.471 105.681 317.27 106.411 C 308.691 111.168 293.643 126.477 300.866 146.355 C 306.865 160.726 320.716 165.83 335.541 163.729 Q 317.561 158.522 313.727 154.854 C 310.806 152.06 304.333 141.745 309.906 130.363 Z " fill="rgb(25,25,25)"/><path d=" M 329.924 113.962 C 328.576 110.44 337.718 105.461 346.101 105.813 C 354.272 106.156 362.279 112.931 359.33 116.074 C 357.466 118.061 353.984 111.543 345.814 111.1 C 337.644 110.657 331.129 117.109 329.924 113.962 Z " fill="rgb(81,81,81)"/></g></g></g></svg>