<svg id="b57890ef-e49e-4825-b120-0fc9392c6872" data-name="Layer 1" xmlns="http://www.w3.org/2000/svg" width="992" height="789.03034" viewBox="0 0 992 789.03034"><title>nature_benefits</title><rect x="824.91602" y="679.51517" width="167.08398" height="2" fill="#3f3d56"/><rect x="458.23633" y="679.51517" width="278.92871" height="2" fill="#3f3d56"/><rect y="679.51517" width="394.74023" height="2" fill="#3f3d56"/><path d="M1059.44171,735.48483H942.07977s-2.379-34.89139,11.69655-35.28788,12.48953,15.46323,30.13347-6.34389,39.05456-20.61763,41.83-7.73161-5.35265,23.19484,9.51584,20.0229S1071.53475,711.29876,1059.44171,735.48483Z" transform="translate(-93 -55.48483)" fill="#3f3d56"/><path d="M998.77963,735.49277l-.3961-.01588c.92376-22.9722,5.73491-37.73208,9.60827-46.06869,4.20558-9.05207,8.25821-12.71653,8.29867-12.75254l.26349.29631c-.03988.03562-4.04527,3.66369-8.21716,12.65447C1004.48483,697.90782,999.7,712.60711,998.77963,735.49277Z" transform="translate(-93 -55.48483)" fill="#f2f2f2"/><path d="M1041.25588,735.5402l-.38061-.11074a61.50486,61.50486,0,0,1,15.48491-25.76256l.26639.2935A61.08738,61.08738,0,0,0,1041.25588,735.5402Z" transform="translate(-93 -55.48483)" fill="#f2f2f2"/><path d="M960.56481,735.51213l-.39282-.0546a43.18279,43.18279,0,0,0-3.8841-25.24042,34.75392,34.75392,0,0,0-6.13-8.9449l.27433-.28614a35.18894,35.18894,0,0,1,6.21108,9.05545A43.57851,43.57851,0,0,1,960.56481,735.51213Z" transform="translate(-93 -55.48483)" fill="#f2f2f2"/><path d="M409.44171,735.48483H292.07977s-2.379-34.89139,11.69655-35.28788,12.48953,15.46323,30.13347-6.34389,39.05456-20.61763,41.83-7.73161-5.35265,23.19484,9.51584,20.0229S421.53475,711.29876,409.44171,735.48483Z" transform="translate(-93 -55.48483)" fill="#3f3d56"/><path d="M348.77963,735.49277l-.3961-.01588c.92376-22.9722,5.73491-37.73208,9.60827-46.06869,4.20558-9.05207,8.25821-12.71653,8.29867-12.75254l.26349.29631c-.03988.03562-4.04527,3.66369-8.21716,12.65447C354.48483,697.90782,349.7,712.60711,348.77963,735.49277Z" transform="translate(-93 -55.48483)" fill="#f2f2f2"/><path d="M391.25588,735.5402l-.38061-.11074a61.50486,61.50486,0,0,1,15.48491-25.76256l.26639.2935A61.08738,61.08738,0,0,0,391.25588,735.5402Z" transform="translate(-93 -55.48483)" fill="#f2f2f2"/><path d="M310.56481,735.51213l-.39282-.0546a43.18279,43.18279,0,0,0-3.8841-25.24042,34.75392,34.75392,0,0,0-6.13-8.9449l.27433-.28614a35.18894,35.18894,0,0,1,6.21108,9.05545A43.57851,43.57851,0,0,1,310.56481,735.51213Z" transform="translate(-93 -55.48483)" fill="#f2f2f2"/><rect x="61.48432" y="445.98478" width="574.03136" height="2.00011" transform="translate(-195.20248 735.17858) rotate(-89.38454)" fill="#3f3d56"/><path d="M347.5,489.30514c-.94092-56.51074,16.17578-103.31689,50.875-139.11816,37.02588-38.20166,87.70068-56.75,123.69189-65.58252,38.9668-9.56348,69.61329-10.11523,69.91846-10.11963l.0293,2c-.30322.0044-30.76563.55664-69.52344,10.07471-35.72266,8.77295-86.00537,27.17578-122.688,65.02734C365.49268,386.99167,348.56836,433.3154,349.5,489.27194Z" transform="translate(-93 -55.48483)" fill="#3f3d56"/><path d="M352,161.48483c-59.373,0-115.20312-5.41846-157.206-15.25683C152.36621,136.29,129,122.88571,129,108.48483s23.36621-27.80517,65.794-37.74316C236.79688,60.90329,292.627,55.48483,352,55.48483s115.20313,5.41846,157.20605,15.25684C551.63379,80.67966,575,94.084,575,108.48483S551.63379,136.29,509.20605,146.228C467.20313,156.06637,411.37305,161.48483,352,161.48483Zm0-104c-59.22412,0-114.89209,5.39942-156.74951,15.2041C154.41846,82.25339,131,95.30026,131,108.48483s23.41846,26.23145,64.25049,35.7959c41.85742,9.80469,97.52539,15.2041,156.74951,15.2041s114.89209-5.39941,156.74951-15.2041C549.58154,134.71628,573,121.6694,573,108.48483s-23.41846-26.23144-64.25049-35.7959C466.89209,62.88425,411.22412,57.48483,352,57.48483Z" transform="translate(-93 -55.48483)" fill="#3f3d56"/><path d="M648,332.48483a57,57,0,1,1,57-57A57.06483,57.06483,0,0,1,648,332.48483Zm0-112a55,55,0,1,0,55,55A55.06223,55.06223,0,0,0,648,220.48483Z" transform="translate(-93 -55.48483)" fill="#3f3d56"/><circle cx="881" cy="668" r="11" fill="#3f3d56"/><circle cx="914" cy="668" r="11" fill="#3f3d56"/><circle cx="947" cy="668" r="11" fill="#3f3d56"/><circle cx="57" cy="670" r="11" fill="#3f3d56"/><path d="M327.45922,361.859a100.51467,100.51467,0,0,1,13.02,24.30969c.7487,1.95172,1.4204,3.90275,2.03675,5.85637l.00913.01241c9.15734,28.79574,6.57875,57.40242,5.5866,65.37342-.17293,1.42641-.29978,2.18851-.29978,2.18851l-2.17869-.36437a168.70156,168.70156,0,0,1-49.96692-17.99881c-1.387-.79418-2.783-1.60074-4.16019-2.45952-11.22952-6.84719-22.203-15.81256-30.84681-27.505l-.11857-.16111c-.8756-1.18968-1.7264-2.39763-2.53087-3.62043a110.58611,110.58611,0,0,1-14.96145-35.28012c-.3799-1.55441-.72912-3.09327-1.04447-4.63792a168.75118,168.75118,0,0,1-2.11578-52.01349c.17293-1.42641.29983-2.18844.29983-2.18844s.76531.10537,2.17863.3643a168.71971,168.71971,0,0,1,48.64717,17.26988c1.35041.74461,2.69768,1.51078,4.05062,2.31079a114.99872,114.99872,0,0,1,25.02978,19.7311c1.2804,1.35026,2.52939,2.76177,3.7289,4.20982Q325.71431,359.47513,327.45922,361.859Z" transform="translate(-93 -55.48483)" fill="#3f3d56"/><path d="M319.91854,376.2737a75.65964,75.65964,0,0,0,3.9046-19.01757c-1.19951-1.448-2.4485-2.85956-3.7289-4.20982a1.94662,1.94662,0,0,0-.656,1.41891c-.85145,11.8222-3.466,23.94865-11.06325,33.38033a33.50961,33.50961,0,0,1-6.76959,6.377l-26.0851-35.442c.73043-.46121,1.45506-.95629,2.16143-1.47617a48.21161,48.21161,0,0,0,17.38269-23.98923c-1.35294-.8-2.70021-1.56618-4.05062-2.31079a43.74832,43.74832,0,0,1-17.6447,23.6852q-.29256.18663-.585.3733l-30.41747-41.32838c-1.41332-.25893-2.17863-.3643-2.17863-.3643s-.1269.762-.29983,2.18844l30.22592,41.06811a53.30787,53.30787,0,0,1-12.60945,4.54247,48.39756,48.39756,0,0,0-15.50069,6.40291c.31535,1.54465.66457,3.08351,1.04447,4.63792a2.30524,2.30524,0,0,0,.83727-.36785,37.24,37.24,0,0,1,8.56213-4.48668c2.85292-1.02985,5.81574-1.62472,8.73694-2.38007a47.82073,47.82073,0,0,0,11.68379-4.6062l26.149,35.52871a30.57528,30.57528,0,0,1-4.13256,1.99079c-5.865,2.31063-11.713,2.04853-17.85669,2.50089a37.13889,37.13889,0,0,0-19.01838,7.10053c.80447,1.2228,1.65527,2.43075,2.53087,3.62043l.11857.16111.02481-.01826a32.96339,32.96339,0,0,1,17.85746-6.34159c6.33331-.32451,12.31052-.406,18.30279-2.82922a36.564,36.564,0,0,0,4.90933-2.467l14.70252,19.97639c-7.68314,6.66737-16.2395,12.56356-24.344,18.52846a2.1739,2.1739,0,0,0-.60606.65618c1.37718.85878,2.77319,1.66534,4.16019,2.45952,7.841-5.75181,16.05759-11.51267,23.517-17.93887l26.44994,35.93768,2.17869.36437s.12685-.7621.29978-2.18851l-26.61412-36.16073c9.05376-8.15365,16.76374-17.45817,21.02752-29.21269l-.00913-.01241c-.61635-1.95362-1.288-3.90465-2.03675-5.85637a1.8365,1.8365,0,0,0-1.30467,1.34236c-3.76663,12.24826-11.35552,21.76928-20.41317,30.02142l-14.42891-19.60464C311.62757,392.65423,316.84376,384.84137,319.91854,376.2737Z" transform="translate(-93 -55.48483)" fill="#f2f2f2"/><path d="M539.51379,315.06676a46.60485,46.60485,0,0,1,6.03691,11.2715c.34714.90494.65858,1.80956.94436,2.71538l.00424.00575c4.24592,13.35151,3.05032,26.61536,2.59029,30.31122-.08018.66137-.139,1.01473-.139,1.01473l-1.01018-.16895a78.22054,78.22054,0,0,1-23.16779-8.34537c-.64311-.36823-1.29038-.74221-1.92893-1.14039a49.89854,49.89854,0,0,1-14.30251-12.753l-.055-.0747c-.406-.55161-.80047-1.11169-1.17347-1.67866a51.27462,51.27462,0,0,1-6.93707-16.35807c-.17614-.72072-.33806-1.43424-.48428-2.15044a78.24378,78.24378,0,0,1-.981-24.11671c.08018-.66137.139-1.0147.139-1.0147s.35484.04886,1.01015.16892a78.22871,78.22871,0,0,1,22.55588,8.00739c.62614.34525,1.25081.7005,1.87812,1.07143a53.3206,53.3206,0,0,1,11.60537,9.14858c.59368.62606,1.17279,1.28053,1.729,1.95193Q538.70474,313.96143,539.51379,315.06676Z" transform="translate(-93 -55.48483)" fill="#3f3d56"/><path d="M536.01746,321.75031a35.08076,35.08076,0,0,0,1.81042-8.81774c-.55617-.6714-1.13528-1.32587-1.729-1.95193a.90259.90259,0,0,0-.30414.65789c-.39478,5.48152-1.607,11.1041-5.12961,15.47722a15.53737,15.53737,0,0,1-3.13881,2.95678l-12.09469-16.43311c.33868-.21385.67466-.4434,1.00218-.68445a22.35391,22.35391,0,0,0,8.0597-11.12291c-.62731-.37093-1.252-.72618-1.87812-1.07143a20.28447,20.28447,0,0,1-8.18119,10.98195l-.27124.17308-14.10345-19.16242c-.65531-.12006-1.01015-.16892-1.01015-.16892s-.05884.35333-.139,1.0147L512.925,312.64077a24.71665,24.71665,0,0,1-5.84653,2.10617,22.4403,22.4403,0,0,0-7.18709,2.96879c.14622.7162.30814,1.42972.48428,2.15044a1.06884,1.06884,0,0,0,.38821-.17056,17.26666,17.26666,0,0,1,3.96994-2.08031c1.32279-.4775,2.69654-.75332,4.051-1.10355a22.17238,22.17238,0,0,0,5.41734-2.13572l12.12429,16.47334a14.175,14.175,0,0,1-1.91611.923c-2.7194,1.07135-5.43087.94983-8.27948,1.15957a17.22,17.22,0,0,0-8.81811,3.29225c.373.567.76748,1.127,1.17347,1.67866l.055.0747.0115-.00846a15.284,15.284,0,0,1,8.27983-2.94037c2.93652-.15046,5.70794-.18822,8.48632-1.3118a16.95331,16.95331,0,0,0,2.27628-1.14385l6.817,9.26231c-3.56239,3.09141-7.52965,5.82525-11.28742,8.591a1.008,1.008,0,0,0-.281.30425c.63855.39818,1.28582.77216,1.92893,1.14039,3.63557-2.6669,7.4453-5.338,10.90394-8.31759l12.26385,16.663,1.01018.16895s.05881-.35336.139-1.01473l-12.34-16.76638c4.19789-3.78055,7.77272-8.09471,9.74968-13.54484l-.00424-.00575c-.28578-.90582-.59722-1.81044-.94436-2.71538a.85153.85153,0,0,0-.60493.6224c-1.74645,5.67906-5.26513,10.0936-9.46482,13.91981l-6.69015-9.08994A21.02961,21.02961,0,0,0,536.01746,321.75031Z" transform="translate(-93 -55.48483)" fill="#f2f2f2"/><path d="M822.51227,311.02929C834.54472,290.69817,858.35,289.75065,858.35,289.75065s23.19685-2.96639,38.07749,27.99815c13.86994,28.8615,33.01222,56.72787,3.08175,63.48413l-5.40631-16.82686-3.3481,18.07961a117.10992,117.10992,0,0,1-12.80614.21886c-32.05311-1.03486-62.57886.30277-61.596-11.19923C817.65925,356.215,810.93463,330.59189,822.51227,311.02929Z" transform="translate(-93 -55.48483)" fill="#2f2e41"/><polygon points="683.117 359.364 679.631 414.573 702.295 490.121 714.499 471.524 699.97 413.992 709.269 369.244 683.117 359.364" fill="#ffb9b9"/><polygon points="805.157 397.72 805.157 429.682 824.916 476.174 809.806 476.174 788.885 436.656 788.885 395.395 805.157 397.72" fill="#ffb9b9"/><polygon points="699.389 662.138 689.51 686.546 706.363 694.101 715.661 674.342 699.389 662.138" fill="#ffb9b9"/><polygon points="768.545 696.426 766.22 740.011 787.723 732.456 790.628 694.101 768.545 696.426" fill="#ffb9b9"/><path d="M918.2061,531.949,895.83222,754.816l-39.51751,1.74342-2.32455-151.09633-9.87938,63.92537L807.499,739.70641,785.99681,720.5288,795.295,552.57941c-4.64912-24.989,10.46052-44.16662,10.46052-44.16662l1.99912-21.68814.38354-4.097,1.10418-11.98892,71.18961-.29057,4.74209,7.84539,2.38269,3.94014L896.41336,496.79Z" transform="translate(-93 -55.48483)" fill="#2f2e41"/><path d="M788.32136,736.21957l-2.32455-6.97367-14.5285,23.24558s-13.94735,38.93637,4.068,38.93637,23.24559-26.15129,23.24559-26.15129l6.39254-22.66445S790.06478,740.86869,788.32136,736.21957Z" transform="translate(-93 -55.48483)" fill="#2f2e41"/><path d="M862.12611,787.941s20.921-4.64912,21.50217-1.74342,4.64912,20.33989,4.64912,20.33989,37.77408,36.03066,12.20393,37.77408-37.19294-8.13595-38.35522-13.36621-3.48684-9.87938-8.136-12.20394-10.46052-9.87937-6.97368-15.69077,12.79842-18.7014,12.79842-18.7014Z" transform="translate(-93 -55.48483)" fill="#2f2e41"/><circle cx="767.96383" cy="280.9106" r="28.47585" fill="#ffb9b9"/><path d="M842.9485,345.69367s-8.136,30.8004-16.27191,34.86838,27.31357,24.40787,27.31357,24.40787l20.33989-6.39254s-20.921-15.69077-2.9057-38.93636Z" transform="translate(-93 -55.48483)" fill="#ffb9b9"/><path d="M852.82788,391.60371s-13.56211-7.55482-21.30955-16.27192-36.22329,0-36.22329,0v72.64247l4.64912,24.40787,8.136,5.8114,73.2236-4.64912,19.17761-62.76309-33.14407-20.51869S862.12611,397.4151,852.82788,391.60371Z" transform="translate(-93 -55.48483)" fill="#575a89"/><polygon points="709.269 321.009 702.295 319.847 673.238 361.108 712.756 376.218 709.269 321.009" fill="#575a89"/><polygon points="798.183 352.972 807.481 355.296 814.455 402.369 784.236 404.693 798.183 352.972" fill="#575a89"/><polygon points="792.174 422.709 715.138 427.143 714.755 431.24 794.557 426.649 792.174 422.709" fill="#575a89"/><circle cx="762.43645" cy="234.3688" r="17.21249" fill="#2f2e41"/><path d="M874.46078,285.324a17.21316,17.21316,0,0,0-15.40065-17.11573,17.386,17.386,0,0,1,1.81184-.09676,17.21249,17.21249,0,0,1,0,34.425,17.386,17.386,0,0,1-1.81184-.09677A17.21315,17.21315,0,0,0,874.46078,285.324Z" transform="translate(-93 -55.48483)" fill="#2f2e41"/><polygon points="734.832 253.585 758.35 241.265 790.828 246.305 797.548 275.983 780.821 275.34 776.148 264.436 776.148 275.16 768.43 274.863 763.95 257.504 761.15 275.983 733.712 275.423 734.832 253.585" fill="#2f2e41"/><polygon points="948 325 926 325 926 303 924 303 924 325 902 325 902 327 924 327 924 349 926 349 926 327 948 327 948 325" fill="#3f3d56"/><polygon points="657 325 635 325 635 303 633 303 633 325 611 325 611 327 633 327 633 349 635 349 635 327 657 327 657 325" fill="#3f3d56"/><polygon points="853 184 831 184 831 162 829 162 829 184 807 184 807 186 829 186 829 208 831 208 831 186 853 186 853 184" fill="#3f3d56"/></svg>