<?xml version="1.0" encoding="UTF-8" standalone="no"?><!-- Generator: Gravit.io --><svg xmlns="http://www.w3.org/2000/svg" xmlns:xlink="http://www.w3.org/1999/xlink" style="isolation:isolate" viewBox="53.027 13.636 406.064 494.944" width="406.064pt" height="494.944pt"><defs><clipPath id="_clipPath_nQu62WGFlAQ3WQtKmqH153afZFyu3xoG"><rect x="53.027" y="13.636" width="406.064" height="494.944"/></clipPath></defs><g clip-path="url(#_clipPath_nQu62WGFlAQ3WQtKmqH153afZFyu3xoG)"><g><g><path d=" M 458.795 503.957 L 259.426 503.957 L 259.426 502.328 L 459.091 502.328 L 458.795 503.957 L 458.795 503.957 Z " fill="rgb(63,61,86)"/><rect x="329.722" y="472.04" width="10.829" height="23.206" transform="matrix(1,0,0,1,0,0)" fill="rgb(251,190,190)"/><rect x="414.037" y="472.813" width="10.829" height="23.206" transform="matrix(1,0,0,1,0,0)" fill="rgb(251,190,190)"/><path d=" M 426.027 484.03 L 412.877 482.483 L 378.842 325.455 L 341.712 483.256 L 328.562 481.709 C 326.392 410.307 332.733 338.875 338.231 279.43 L 416.745 272.855 C 431.538 331.433 432.144 404.336 426.027 484.03 Z " fill="rgb(47,46,65)"/><path d=" M 417.862 282.145 C 417.862 282.145 399.575 301.227 409.911 305.997 C 409.911 305.997 426.608 284.53 426.608 284.53 L 417.862 282.145 Z " fill="rgb(251,190,190)"/><path d=" M 324.264 283.692 C 324.264 283.692 305.977 302.774 316.313 307.544 C 316.313 307.544 333.01 286.077 333.01 286.077 L 324.264 283.692 Z " fill="rgb(251,190,190)"/><circle vector-effect="non-scaling-stroke" cx="380.0018399941668" cy="123.94891139105573" r="21.658997598937276" fill="rgb(251,190,190)"/><path d=" M 405.142 169.201 L 366.465 173.068 C 370.04 156.975 370.907 141.939 366.465 128.977 L 393.539 128.977 C 392.068 139.778 397.565 153.982 405.142 169.201 Z " fill="rgb(251,190,190)"/><path d=" M 415.971 281.363 C 401.52 298.747 371.15 292.935 336.297 280.59 C 346.187 248.308 344.654 214.249 335.766 179.047 C 334.766 175.141 336.726 171.082 340.407 169.437 L 368.786 156.824 L 379.615 159.145 L 398.18 154.504 L 424.533 159.894 C 428.961 160.8 432.063 164.805 431.834 169.319 C 429.63 212.526 425.731 252.513 415.971 281.363 Z " fill="rgb(230,230,230)"/><path d=" M 423.707 295.287 L 416.745 283.684 L 429.895 234.178 L 422.933 159.918 L 422.933 159.918 C 432.148 160.84 439.708 167.616 441.63 176.675 L 452.192 226.465 C 453.784 233.97 452.828 241.792 449.476 248.694 L 423.707 295.287 Z " fill="rgb(230,230,230)"/><path d=" M 333.203 286.778 L 317.345 289.486 L 327.457 190.501 C 327.658 180.403 333.881 171.405 343.259 167.654 L 343.259 167.654 L 348.287 233.017 L 333.203 286.778 Z " fill="rgb(230,230,230)"/><path d=" M 336.434 503.356 L 307.246 508.482 C 305.921 508.715 304.556 508.531 303.34 507.957 L 303.34 507.957 C 301.385 507.033 300.016 505.199 299.687 503.062 C 299.358 500.924 300.112 498.763 301.7 497.295 L 314.203 485.726 L 317.463 480.03 C 319.325 476.68 322.731 474.476 326.55 474.151 C 332.124 473.764 333.964 478.006 332.799 485.972 C 337.032 489.086 337.702 488.608 340.552 484.417 L 341.845 497.548 C 341.542 500.476 339.333 502.847 336.434 503.356 Z " fill="rgb(47,46,65)"/><path d=" M 420.749 503.356 L 391.561 508.482 C 390.236 508.715 388.872 508.531 387.656 507.957 L 387.656 507.957 C 385.7 507.033 384.331 505.199 384.002 503.062 C 383.674 500.924 384.428 498.763 386.015 497.295 L 398.519 485.726 L 401.778 480.03 C 403.64 476.68 407.047 474.476 410.865 474.151 C 416.44 473.764 418.279 478.006 417.114 485.972 C 421.348 489.086 422.017 488.608 424.867 484.417 L 426.161 497.548 C 425.857 500.476 423.648 502.847 420.749 503.356 Z " fill="rgb(47,46,65)"/><path d=" M 362.806 111.608 C 372.568 106.023 382.344 109.591 392.137 124.831 L 394.139 141.066 C 408.836 127.142 408.093 108.141 391.611 100.412 C 389.991 99.652 388.421 98.788 386.657 99.094 C 379.423 95.211 370.416 97.63 366.101 104.616 C 363.056 105.143 358.691 111.193 358.848 114.279 L 362.806 111.608 Z " fill="rgb(47,46,65)"/><ellipse vector-effect="non-scaling-stroke" cx="391.2181066079022" cy="125.10921483385599" rx="2.7073746998671595" ry="3.4809103284006326" fill="rgb(251,190,190)"/><path d=" M 458.795 503.957 L 259.426 503.957 L 259.426 502.328 L 459.091 502.328 L 458.795 503.957 L 458.795 503.957 Z " fill="rgb(63,61,86)"/><rect x="329.722" y="472.04" width="10.829" height="23.206" transform="matrix(1,0,0,1,0,0)" fill="rgb(251,190,190)"/><rect x="414.037" y="472.813" width="10.829" height="23.206" transform="matrix(1,0,0,1,0,0)" fill="rgb(251,190,190)"/><path d=" M 426.027 484.03 L 412.877 482.483 L 378.842 325.455 L 341.712 483.256 L 328.562 481.709 C 326.392 410.307 332.733 338.875 338.231 279.43 L 416.745 272.855 C 431.538 331.433 432.144 404.336 426.027 484.03 Z " fill="rgb(47,46,65)"/><path d=" M 417.862 282.145 C 417.862 282.145 399.575 301.227 409.911 305.997 C 409.911 305.997 426.608 284.53 426.608 284.53 L 417.862 282.145 Z " fill="rgb(251,190,190)"/><path d=" M 324.264 283.692 C 324.264 283.692 305.977 302.774 316.313 307.544 C 316.313 307.544 333.01 286.077 333.01 286.077 L 324.264 283.692 Z " fill="rgb(251,190,190)"/><circle vector-effect="non-scaling-stroke" cx="380.0018399941668" cy="123.94891139105573" r="21.658997598937276" fill="rgb(251,190,190)"/><path d=" M 405.142 169.201 L 366.465 173.068 C 370.04 156.975 370.907 141.939 366.465 128.977 L 393.539 128.977 C 392.068 139.778 397.565 153.982 405.142 169.201 Z " fill="rgb(251,190,190)"/><path d=" M 415.971 281.363 C 401.52 298.747 371.15 292.935 336.297 280.59 C 346.187 248.308 344.654 214.249 335.766 179.047 C 334.766 175.141 336.726 171.082 340.407 169.437 L 368.786 156.824 L 379.615 159.145 L 398.18 154.504 L 424.533 159.894 C 428.961 160.8 432.063 164.805 431.834 169.319 C 429.63 212.526 425.731 252.513 415.971 281.363 Z " fill="rgb(230,230,230)"/><path d=" M 423.707 295.287 L 416.745 283.684 L 429.895 234.178 L 422.933 159.918 L 422.933 159.918 C 432.148 160.84 439.708 167.616 441.63 176.675 L 452.192 226.465 C 453.784 233.97 452.828 241.792 449.476 248.694 L 423.707 295.287 Z " fill="rgb(230,230,230)"/><path d=" M 333.203 286.778 L 317.345 289.486 L 327.457 190.501 C 327.658 180.403 333.881 171.405 343.259 167.654 L 343.259 167.654 L 348.287 233.017 L 333.203 286.778 Z " fill="rgb(230,230,230)"/><path d=" M 336.434 503.356 L 307.246 508.482 C 305.921 508.715 304.556 508.531 303.34 507.957 L 303.34 507.957 C 301.385 507.033 300.016 505.199 299.687 503.062 C 299.358 500.924 300.112 498.763 301.7 497.295 L 314.203 485.726 L 317.463 480.03 C 319.325 476.68 322.731 474.476 326.55 474.151 C 332.124 473.764 333.964 478.006 332.799 485.972 C 337.032 489.086 337.702 488.608 340.552 484.417 L 341.845 497.548 C 341.542 500.476 339.333 502.847 336.434 503.356 Z " fill="rgb(47,46,65)"/><path d=" M 420.749 503.356 L 391.561 508.482 C 390.236 508.715 388.872 508.531 387.656 507.957 L 387.656 507.957 C 385.7 507.033 384.331 505.199 384.002 503.062 C 383.674 500.924 384.428 498.763 386.015 497.295 L 398.518 485.726 L 401.778 480.03 C 403.64 476.68 407.047 474.476 410.865 474.151 C 416.44 473.764 418.279 478.006 417.114 485.972 C 421.348 489.086 422.017 488.608 424.867 484.417 L 426.161 497.548 C 425.857 500.476 423.648 502.847 420.749 503.356 Z " fill="rgb(47,46,65)"/><path d=" M 362.806 111.608 C 372.568 106.023 382.344 109.591 392.137 124.831 L 394.139 141.066 C 408.836 127.142 408.093 108.141 391.611 100.412 C 389.991 99.652 388.421 98.788 386.657 99.094 C 379.423 95.211 370.416 97.63 366.101 104.616 C 363.056 105.143 358.691 111.193 358.848 114.279 L 362.806 111.608 Z " fill="rgb(47,46,65)"/><ellipse vector-effect="non-scaling-stroke" cx="391.2181066079022" cy="125.10921483385599" rx="2.7073746998671595" ry="3.4809103284006326" fill="rgb(251,190,190)"/></g><g><path d=" M 136.13 288.072 L 168.111 288.072 L 168.111 288.072 C 168.111 295.044 162.459 300.696 155.487 300.696 L 148.754 300.696 C 141.782 300.696 136.13 295.044 136.13 288.072 L 136.13 288.072 L 136.13 288.072 Z " fill="rgb(63,61,86)"/><path d=" M 175.584 259.807 L 175.584 248.076 C 175.584 233.901 191.001 220.493 201.002 210.927 C 215.099 197.45 222.509 179.345 222.509 158.135 C 222.509 119.337 191.114 87.855 152.316 87.747 C 113.518 87.639 81.948 118.946 81.732 157.744 Q 81.732 157.939 81.732 158.135 C 81.732 178.587 89.46 197.919 103.24 210.927 C 113.187 220.317 128.658 233.754 128.658 248.076 L 128.658 259.807" fill="rgb(108,105,160)"/><path d=" M 175.584 261.454 C 175.147 261.454 174.728 261.281 174.419 260.972 C 174.111 260.663 173.937 260.244 173.937 259.807 L 173.937 248.076 C 173.937 234.285 187.538 221.412 197.469 212.012 C 198.293 211.231 199.094 210.473 199.863 209.737 C 213.601 196.604 220.863 178.76 220.863 158.135 C 220.863 119.588 190.668 89.393 152.121 89.393 C 152.056 89.393 151.991 89.393 151.927 89.393 C 114.162 89.436 83.528 119.983 83.379 157.748 L 83.379 158.132 C 83.379 178.331 91.03 197.136 104.37 209.729 C 105.046 210.368 105.748 211.025 106.469 211.699 C 116.528 221.117 130.305 234.015 130.305 248.076 L 130.305 259.807 C 130.305 260.717 129.567 261.454 128.658 261.454 C 127.749 261.454 127.011 260.717 127.011 259.807 L 127.011 248.076 C 127.011 235.444 113.837 223.11 104.218 214.103 C 103.494 213.426 102.789 212.765 102.11 212.124 C 88.113 198.912 80.086 179.234 80.086 158.135 L 80.086 157.74 C 80.196 118.197 112.406 86.1 151.922 86.1 C 151.992 86.1 152.055 86.1 152.125 86.1 C 171.26 86.001 189.64 93.558 203.17 107.089 C 216.7 120.62 224.257 139.001 224.156 158.135 C 224.156 179.681 216.543 198.348 202.14 212.117 C 201.366 212.856 200.561 213.619 199.732 214.403 C 190.236 223.392 177.23 235.703 177.23 248.076 L 177.23 259.807 C 177.23 260.244 177.057 260.663 176.748 260.972 C 176.439 261.281 176.02 261.454 175.584 261.454 L 175.584 261.454 Z " fill="rgb(63,61,86)"/><path d=" M 167.763 282.583 L 136.479 282.583 C 134.963 282.583 133.735 281.354 133.735 279.838 C 133.735 278.323 134.963 277.094 136.479 277.094 L 167.763 277.094 C 169.278 277.094 170.507 278.323 170.507 279.838 C 170.507 281.354 169.278 282.583 167.763 282.583 Z " fill="rgb(108,105,160)"/><path d=" M 79.34 93.445 C 78.676 93.446 78.035 93.205 77.536 92.768 L 53.968 72.196 C 53.229 71.551 52.889 70.561 53.078 69.598 C 53.267 68.636 53.955 67.847 54.884 67.53 C 55.812 67.213 56.839 67.415 57.578 68.061 L 81.146 88.634 C 82.007 89.386 82.312 90.594 81.91 91.665 C 81.508 92.736 80.484 93.446 79.34 93.445 L 79.34 93.445 Z " fill="rgb(230,230,230)"/><path d=" M 220.991 93.445 C 219.847 93.446 218.823 92.736 218.421 91.665 C 218.019 90.594 218.324 89.386 219.186 88.634 L 242.753 68.061 C 243.895 67.066 245.627 67.184 246.624 68.325 C 247.62 69.466 247.503 71.199 246.363 72.196 L 222.795 92.768 C 222.296 93.205 221.655 93.446 220.991 93.445 Z " fill="rgb(230,230,230)"/><path d=" M 175.584 272.842 L 128.658 272.842 C 127.142 272.842 125.914 271.613 125.914 270.098 C 125.914 268.582 127.142 267.353 128.658 267.353 L 175.584 267.353 C 177.099 267.353 178.328 268.582 178.328 270.098 C 178.328 271.613 177.099 272.842 175.584 272.842 Z " fill="rgb(108,105,160)"/><path d=" M 152.121 262.552 C 151.393 262.552 150.695 262.263 150.18 261.748 C 149.666 261.233 149.376 260.535 149.377 259.807 L 149.377 197.24 C 149.377 195.724 150.605 194.496 152.121 194.496 C 153.637 194.496 154.865 195.724 154.865 197.24 L 154.865 259.807 C 154.865 260.535 154.576 261.233 154.061 261.748 C 153.547 262.263 152.849 262.552 152.121 262.552 L 152.121 262.552 Z " fill="rgb(255,255,255)"/><path d=" M 152.121 199.984 C 143.254 199.984 132.367 191.962 131.908 191.621 C 131.121 191.036 130.707 190.075 130.82 189.101 C 130.934 188.128 131.558 187.288 132.458 186.9 C 133.358 186.511 134.397 186.632 135.184 187.217 C 137.912 189.241 146.274 194.496 152.121 194.496 C 157.968 194.496 166.33 189.241 169.059 187.216 C 170.275 186.312 171.994 186.565 172.899 187.781 C 173.803 188.998 173.55 190.717 172.334 191.621 C 171.875 191.962 160.988 199.984 152.121 199.984 Z " fill="rgb(255,255,255)"/><path d=" M 152.121 66.051 C 150.605 66.051 149.376 64.822 149.376 63.306 L 149.376 16.381 C 149.376 14.865 150.605 13.636 152.121 13.636 C 153.636 13.636 154.865 14.865 154.865 16.381 L 154.865 63.306 C 154.865 64.822 153.636 66.051 152.121 66.051 L 152.121 66.051 Z " fill="rgb(230,230,230)"/></g></g></g></svg>