<?xml version="1.0" encoding="UTF-8" standalone="no"?><!-- Generator: Gravit.io --><svg xmlns="http://www.w3.org/2000/svg" xmlns:xlink="http://www.w3.org/1999/xlink" style="isolation:isolate" viewBox="-4428.125 -2516.775 6900 1848.926" width="6900pt" height="1848.926pt"><defs><clipPath id="_clipPath_nSH3D0Xau7o8sgXkAza8x1SJwdWO10gb"><rect x="-4428.125" y="-2516.775" width="6900" height="1848.926"/></clipPath></defs><g clip-path="url(#_clipPath_nSH3D0Xau7o8sgXkAza8x1SJwdWO10gb)"><rect x="-4428.125" y="-2516.775" width="6900" height="1687.5" transform="matrix(1,0,0,1,0,0)" fill="rgb(63,61,86)"/><g><circle vector-effect="non-scaling-stroke" cx="-3929.9296333333346" cy="-1989.2786999999996" r="301.42963333333364" fill="rgb(230,230,230)"/><circle vector-effect="non-scaling-stroke" cx="-3959.5784609247103" cy="-2196.820402063105" r="34.59027608747283" fill="rgb(203,203,203)"/><circle vector-effect="non-scaling-stroke" cx="-3900.2808057419566" cy="-1850.9175501118384" r="34.59027608747283" fill="rgb(203,203,203)"/><circle vector-effect="non-scaling-stroke" cx="-3766.861149888162" cy="-2043.6348611483927" r="24.707333557013953" fill="rgb(203,203,203)"/><circle vector-effect="non-scaling-stroke" cx="-4048.5248981605755" cy="-1964.5713209047178" r="79.06349470540522" fill="rgb(203,203,203)"/></g><g><g><g opacity="0.8"><linearGradient id="_lgradient_3" x1="5.038734265383482e-7" y1="0.4999999935676427" x2="1.0000004176797352" y2="0.4999999935676427" gradientTransform="matrix(357.475,0,0,418.557,1700.106,-1428.518)" gradientUnits="userSpaceOnUse"><stop offset="0%" stop-opacity="1" style="stop-color:rgb(255,255,255)"/><stop offset="100%" stop-opacity="0.3" style="stop-color:rgb(255,255,255)"/></linearGradient><path d=" M 1708.024 -1011.559 L 1843.794 -1170.504 L 1979.563 -1329.449 L 2056.207 -1419.176 C 2060.448 -1424.141 2053.904 -1431.886 2049.664 -1426.921 L 1913.894 -1267.976 L 1778.124 -1109.031 L 1701.48 -1019.304 C 1697.239 -1014.339 1703.783 -1006.594 1708.024 -1011.559 L 1708.024 -1011.559 Z " fill="url(#_lgradient_3)"/></g><circle vector-effect="non-scaling-stroke" cx="1049.8239899750497" cy="-1355.005923378837" r="14.72764779082604" fill="rgb(108,99,255)"/><path d=" M 1177.467 -1141.368 L 1170.117 -1134.067 L 1162.816 -1141.417 L 1157.915 -1136.55 L 1165.216 -1129.2 L 1157.866 -1121.898 L 1162.733 -1116.998 L 1170.084 -1124.299 L 1177.385 -1116.949 L 1182.285 -1121.816 L 1174.984 -1129.167 L 1182.334 -1136.468 L 1177.467 -1141.368 L 1177.467 -1141.368 Z " fill="rgb(230,230,230)"/><path d=" M 1236.378 -1568.469 L 1229.027 -1561.168 L 1221.726 -1568.518 L 1216.826 -1563.651 L 1224.127 -1556.301 L 1216.777 -1548.999 L 1221.644 -1544.099 L 1228.994 -1551.4 L 1236.296 -1544.05 L 1241.196 -1548.917 L 1233.895 -1556.268 L 1241.245 -1563.569 L 1236.378 -1568.469 L 1236.378 -1568.469 Z " fill="rgb(230,230,230)"/><path d=" M 1421.523 -2378.952 C 1405.62 -2368.355 1389.343 -2393.575 1405.552 -2403.701 C 1421.454 -2414.297 1437.731 -2389.077 1421.523 -2378.952 Z " fill="rgb(230,230,230)"/><path d=" M 1572.561 -1477.763 L 1562.443 -1479.983 L 1564.658 -1490.105 L 1557.913 -1491.583 L 1555.694 -1481.461 L 1545.576 -1483.677 L 1544.098 -1476.932 L 1554.215 -1474.712 L 1552 -1464.594 L 1558.745 -1463.116 L 1560.965 -1473.238 L 1571.082 -1471.018 L 1572.561 -1477.763 L 1572.561 -1477.763 Z " fill="rgb(230,230,230)"/><path d=" M 928.12 -2337.978 L 918.002 -2340.197 L 920.217 -2350.315 L 913.472 -2351.793 L 911.253 -2341.676 L 901.131 -2343.891 L 899.653 -2337.146 L 909.774 -2334.926 L 907.559 -2324.805 L 914.304 -2323.33 L 916.524 -2333.448 L 926.641 -2331.233 L 928.12 -2337.978 L 928.12 -2337.978 Z " fill="rgb(230,230,230)"/><circle vector-effect="non-scaling-stroke" cx="1887.096134573316" cy="-2016.596607460392" r="14.72764779082604" fill="rgb(108,99,255)"/><path d=" M 1776.808 -1793.5 L 1766.69 -1795.72 L 1768.905 -1805.841 L 1762.16 -1807.32 L 1759.941 -1797.198 L 1749.823 -1799.413 L 1748.345 -1792.668 L 1758.462 -1790.449 L 1756.247 -1780.331 L 1762.992 -1778.853 L 1765.212 -1788.975 L 1775.329 -1786.755 L 1776.808 -1793.5 L 1776.808 -1793.5 Z " fill="rgb(230,230,230)"/><path d=" M 2167.609 -1975.602 L 2157.492 -1977.822 L 2159.707 -1987.939 L 2152.962 -1989.418 L 2150.742 -1979.3 L 2140.621 -1981.515 L 2139.142 -1974.77 L 2149.264 -1972.551 L 2147.048 -1962.429 L 2153.794 -1960.955 L 2156.013 -1971.072 L 2166.131 -1968.857 L 2167.609 -1975.602 L 2167.609 -1975.602 Z " fill="rgb(230,230,230)"/><g opacity="0.8"><linearGradient id="_lgradient_4" x1="0" y1="0.5" x2="1" y2="0.5" gradientTransform="matrix(357.475,0,0,418.557,1477.739,-2309.75)" gradientUnits="userSpaceOnUse"><stop offset="100%" stop-opacity="1" style="stop-color:rgb(255,255,255)"/><stop offset="100%" stop-opacity="0.9919364091401494" style="stop-color:rgb(255,255,255)"/></linearGradient><path d=" M 1485.657 -1892.79 L 1621.427 -2051.735 L 1757.196 -2210.681 L 1833.841 -2300.408 C 1838.081 -2305.372 1831.537 -2313.117 1827.297 -2308.153 L 1691.527 -2149.208 L 1555.757 -1990.263 L 1479.113 -1900.536 C 1474.873 -1895.571 1481.417 -1887.826 1485.657 -1892.79 L 1485.657 -1892.79 Z " fill="url(#_lgradient_4)"/></g></g><g><circle vector-effect="non-scaling-stroke" cx="-505.0616652346298" cy="-1254.6815243764472" r="14.727647790826126" fill="rgb(108,99,255)"/><path d=" M -377.419 -1041.044 L -384.769 -1033.743 L -392.07 -1041.093 L -396.97 -1036.226 L -389.669 -1028.875 L -397.02 -1021.574 L -392.152 -1016.674 L -384.802 -1023.975 L -377.501 -1016.624 L -372.601 -1021.492 L -379.902 -1028.842 L -372.551 -1036.143 L -377.419 -1041.044 L -377.419 -1041.044 Z " fill="rgb(230,230,230)"/><path d=" M -133.363 -2278.627 C -149.266 -2268.031 -165.543 -2293.251 -149.334 -2303.377 C -133.431 -2313.972 -117.154 -2288.752 -133.363 -2278.627 Z " fill="rgb(230,230,230)"/><path d=" M -1054.629 -1182.555 L -1064.746 -1184.775 L -1062.531 -1194.897 L -1069.276 -1196.375 L -1071.496 -1186.253 L -1081.613 -1188.469 L -1083.092 -1181.724 L -1072.974 -1179.504 L -1075.189 -1169.386 L -1068.444 -1167.908 L -1066.225 -1178.03 L -1056.107 -1175.81 L -1054.629 -1182.555 L -1054.629 -1182.555 Z " fill="rgb(230,230,230)"/><path d=" M 1284.342 -1742.591 L 1274.224 -1744.81 L 1276.439 -1754.932 L 1269.694 -1756.41 L 1267.475 -1746.288 L 1257.357 -1748.504 L 1255.879 -1741.759 L 1265.996 -1739.539 L 1263.781 -1729.422 L 1270.526 -1727.943 L 1272.746 -1738.065 L 1282.863 -1735.845 L 1284.342 -1742.591 L 1284.342 -1742.591 Z " fill="rgb(230,230,230)"/><path d=" M -626.766 -2237.653 L -636.884 -2239.873 L -634.668 -2249.991 L -641.413 -2251.469 L -643.633 -2241.351 L -653.755 -2243.567 L -655.233 -2236.822 L -645.111 -2234.602 L -647.327 -2224.48 L -640.582 -2223.006 L -638.362 -2233.124 L -628.244 -2230.908 L -626.766 -2237.653 L -626.766 -2237.653 Z " fill="rgb(230,230,230)"/></g><g><circle vector-effect="non-scaling-stroke" cx="-2186.18666523463" cy="-1203.4065350167652" r="14.727647790826268" fill="rgb(108,99,255)"/><path d=" M -2058.544 -989.769 L -2065.894 -982.468 L -2073.195 -989.818 L -2078.095 -984.951 L -2070.794 -977.6 L -2078.145 -970.299 L -2073.277 -965.399 L -2065.927 -972.7 L -2058.626 -965.349 L -2053.726 -970.217 L -2061.027 -977.567 L -2053.676 -984.868 L -2058.544 -989.769 L -2058.544 -989.769 Z " fill="rgb(230,230,230)"/><path d=" M -1999.633 -1416.87 L -2006.983 -1409.568 L -2014.284 -1416.919 L -2019.185 -1412.052 L -2011.884 -1404.701 L -2019.234 -1397.4 L -2014.367 -1392.5 L -2007.016 -1399.801 L -1999.715 -1392.45 L -1994.815 -1397.318 L -2002.116 -1404.668 L -1994.765 -1411.969 L -1999.633 -1416.87 L -1999.633 -1416.87 Z " fill="rgb(230,230,230)"/><path d=" M -1814.488 -2227.352 C -1830.391 -2216.756 -1846.668 -2241.976 -1830.459 -2252.102 C -1814.556 -2262.697 -1798.279 -2237.477 -1814.488 -2227.352 Z " fill="rgb(230,230,230)"/><path d=" M -2735.754 -1131.28 L -2745.871 -1133.5 L -2743.656 -1143.622 L -2750.401 -1145.1 L -2752.621 -1134.978 L -2762.738 -1137.194 L -2764.217 -1130.449 L -2754.099 -1128.229 L -2756.314 -1118.111 L -2749.569 -1116.633 L -2747.35 -1126.755 L -2737.232 -1124.535 L -2735.754 -1131.28 L -2735.754 -1131.28 Z " fill="rgb(230,230,230)"/><path d=" M -2307.891 -2186.378 L -2318.009 -2188.598 L -2315.793 -2198.716 L -2322.538 -2200.194 L -2324.758 -2190.076 L -2334.88 -2192.292 L -2336.358 -2185.547 L -2326.236 -2183.327 L -2328.452 -2173.205 L -2321.707 -2171.731 L -2319.487 -2181.849 L -2309.369 -2179.633 L -2307.891 -2186.378 L -2307.891 -2186.378 Z " fill="rgb(230,230,230)"/><path d=" M -1459.203 -1641.901 L -1469.321 -1644.12 L -1467.105 -1654.242 L -1473.85 -1655.72 L -1476.07 -1645.599 L -1486.188 -1647.814 L -1487.666 -1641.069 L -1477.548 -1638.849 L -1479.764 -1628.732 L -1473.019 -1627.253 L -1470.799 -1637.375 L -1460.681 -1635.156 L -1459.203 -1641.901 L -1459.203 -1641.901 Z " fill="rgb(230,230,230)"/><g opacity="0.8"><linearGradient id="_lgradient_5" x1="5.038734265383482e-7" y1="0.4999999935676427" x2="1.0000004176797352" y2="0.4999999935676427" gradientTransform="matrix(357.475,0,0,418.557,-2015.238,-1734.279)" gradientUnits="userSpaceOnUse"><stop offset="0%" stop-opacity="1" style="stop-color:rgb(255,255,255)"/><stop offset="100%" stop-opacity="0.3" style="stop-color:rgb(255,255,255)"/></linearGradient><path d=" M -2007.32 -1317.319 L -1871.55 -1476.264 L -1735.781 -1635.209 L -1659.136 -1724.936 C -1654.895 -1729.901 -1661.44 -1737.646 -1665.68 -1732.681 L -1801.45 -1573.736 L -1937.22 -1414.791 L -2013.864 -1325.064 C -2018.104 -1320.099 -2011.56 -1312.354 -2007.32 -1317.319 L -2007.32 -1317.319 Z " fill="url(#_lgradient_5)"/></g></g><g><circle vector-effect="non-scaling-stroke" cx="-3549.8116652346303" cy="-1368.431524376447" r="14.727647790826268" fill="rgb(108,99,255)"/><path d=" M -3422.169 -1154.794 L -3429.519 -1147.493 L -3436.82 -1154.843 L -3441.72 -1149.976 L -3434.419 -1142.625 L -3441.77 -1135.324 L -3436.902 -1130.424 L -3429.552 -1137.725 L -3422.251 -1130.374 L -3417.351 -1135.242 L -3424.652 -1142.592 L -3417.301 -1149.893 L -3422.169 -1154.794 L -3422.169 -1154.794 Z " fill="rgb(230,230,230)"/><path d=" M -3363.258 -1581.895 L -3370.608 -1574.593 L -3377.909 -1581.944 L -3382.81 -1577.077 L -3375.509 -1569.726 L -3382.859 -1562.425 L -3377.992 -1557.525 L -3370.641 -1564.826 L -3363.34 -1557.475 L -3358.44 -1562.343 L -3365.741 -1569.693 L -3358.39 -1576.994 L -3363.258 -1581.895 L -3363.258 -1581.895 Z " fill="rgb(230,230,230)"/><path d=" M -3178.113 -2392.377 C -3194.016 -2381.781 -3210.293 -2407.001 -3194.084 -2417.127 C -3178.181 -2427.722 -3161.904 -2402.502 -3178.113 -2392.377 Z " fill="rgb(230,230,230)"/><path d=" M -4099.379 -1296.305 L -4109.496 -1298.525 L -4107.281 -1308.647 L -4114.026 -1310.125 L -4116.246 -1300.003 L -4126.363 -1302.219 L -4127.842 -1295.474 L -4117.724 -1293.254 L -4119.939 -1283.136 L -4113.194 -1281.658 L -4110.975 -1291.78 L -4100.857 -1289.56 L -4099.379 -1296.305 L -4099.379 -1296.305 Z " fill="rgb(230,230,230)"/><path d=" M -1760.408 -1856.341 L -1770.526 -1858.56 L -1768.311 -1868.682 L -1775.056 -1870.16 L -1777.275 -1860.038 L -1787.393 -1862.254 L -1788.871 -1855.509 L -1778.754 -1853.289 L -1780.969 -1843.172 L -1774.224 -1841.693 L -1772.004 -1851.815 L -1761.887 -1849.595 L -1760.408 -1856.341 L -1760.408 -1856.341 Z " fill="rgb(230,230,230)"/><path d=" M -3671.516 -2351.403 L -3681.634 -2353.623 L -3679.418 -2363.741 L -3686.163 -2365.219 L -3688.383 -2355.101 L -3698.505 -2357.317 L -3699.983 -2350.572 L -3689.861 -2348.352 L -3692.077 -2338.23 L -3685.332 -2336.756 L -3683.112 -2346.874 L -3672.994 -2344.658 L -3671.516 -2351.403 L -3671.516 -2351.403 Z " fill="rgb(230,230,230)"/><circle vector-effect="non-scaling-stroke" cx="-2712.5395206363637" cy="-2030.0222084580016" r="14.727647790826268" fill="rgb(108,99,255)"/><path d=" M -2822.828 -1806.926 L -2832.946 -1809.145 L -2830.73 -1819.267 L -2837.475 -1820.745 L -2839.695 -1810.624 L -2849.813 -1812.839 L -2851.291 -1806.094 L -2841.173 -1803.874 L -2843.389 -1793.757 L -2836.644 -1792.278 L -2834.424 -1802.4 L -2824.306 -1800.181 L -2822.828 -1806.926 L -2822.828 -1806.926 Z " fill="rgb(230,230,230)"/><path d=" M -2432.026 -1989.028 L -2442.144 -1991.247 L -2439.929 -2001.365 L -2446.674 -2002.843 L -2448.893 -1992.726 L -2459.015 -1994.941 L -2460.493 -1988.196 L -2450.372 -1985.976 L -2452.587 -1975.855 L -2445.842 -1974.38 L -2443.622 -1984.498 L -2433.505 -1982.283 L -2432.026 -1989.028 L -2432.026 -1989.028 Z " fill="rgb(230,230,230)"/></g></g><clipPath id="_clipPath_uZchLxSYpVSspNuaMVJEDSeCKhe2ICCV"><rect x="-3097.429" y="-1756.461" width="600.261" height="1006.62" transform="matrix(0.883,0.47,-0.47,0.883,-915.971,1166.74)" fill="rgb(255,255,255)"/></clipPath><g clip-path="url(#_clipPath_uZchLxSYpVSspNuaMVJEDSeCKhe2ICCV)"><g><g><mask id="_mask_OyN4XdM4Csrm3VJEshKDqPG1C5yNZtHk" x="-200%" y="-200%" width="400%" height="400%"><rect x="-200%" y="-200%" width="400%" height="400%" style="fill:white;"/><path d=" M -3050 -831.25 C -3050.312 -853.812 -3006.938 -872.344 -2968.594 -881.625 C -2880.656 -906.958 -2755.534 -904.39 -2713.238 -904.665 C -2669.68 -906.029 -2584.073 -1004.021 -2585.981 -1084.013 L -2597.751 -1241.676" fill="black" stroke="none"/></mask><path d=" M -3050 -831.25 C -3050.312 -853.812 -3006.938 -872.344 -2968.594 -881.625 C -2880.656 -906.958 -2755.534 -904.39 -2713.238 -904.665 C -2669.68 -906.029 -2584.073 -1004.021 -2585.981 -1084.013 L -2597.751 -1241.676" fill="none" mask="url(#_mask_OyN4XdM4Csrm3VJEshKDqPG1C5yNZtHk)" vector-effect="non-scaling-stroke" stroke-width="4" stroke="rgb(162,193,228)" stroke-opacity="100" stroke-linejoin="miter" stroke-linecap="square" stroke-miterlimit="3"/><path d=" M -3050 -831.25 C -3050.312 -853.812 -3006.938 -872.344 -2968.594 -881.625 C -2880.656 -906.958 -2755.534 -904.39 -2713.238 -904.665 C -2669.68 -906.029 -2584.073 -1004.021 -2585.981 -1084.013 L -2597.751 -1241.676" fill="none"/><path d=" M -2713.386 -1506.62 L -2536.296 -1412.438 C -2520.005 -1403.775 -2513.814 -1383.515 -2522.477 -1367.224 L -2631.586 -1162.067 C -2640.25 -1145.776 -2660.508 -1139.587 -2676.798 -1148.251 L -2853.888 -1242.432 C -2870.179 -1251.096 -2876.372 -1271.353 -2867.709 -1287.643 L -2758.6 -1492.801 C -2749.936 -1509.092 -2729.677 -1515.284 -2713.386 -1506.62 Z " fill="rgb(195,194,194)"/><g><path d=" M -2888.834 -1189.359 L -2885.723 -1194.289 C -2884.034 -1196.97 -2880.484 -1197.772 -2877.803 -1196.079 L -2824.771 -1162.611 C -2822.091 -1160.922 -2821.289 -1157.372 -2822.979 -1154.689 L -2826.091 -1149.763 C -2827.782 -1147.08 -2831.332 -1146.278 -2834.013 -1147.971 L -2887.045 -1181.439 C -2889.724 -1183.131 -2890.526 -1186.68 -2888.834 -1189.359 Z " fill="rgb(219,213,255)"/><g><path d=" M -2894.147 -1188.73 C -2870.95 -1177.91 -2846.704 -1161.855 -2825.58 -1145.277 L -2891.829 -1051.104 C -2932.393 -1081.603 -2946.062 -1091.913 -2975.212 -1115.148 C -2973.462 -1122.536 -2968.373 -1127.845 -2966.544 -1130.202 C -2957.808 -1141.457 -2942.745 -1139.76 -2933.754 -1135.807 Q -2930.738 -1134.481 -2894.147 -1188.73 Z " fill="rgb(255,255,255)"/><path d=" M -2878.513 -1069.477 L -2891.552 -1050.945 C -2896.466 -1054.639 -2900.985 -1058.035 -2904.663 -1060.805 C -2896.733 -1071.344 -2888.004 -1074.187 -2878.513 -1069.477 Z " fill="rgb(160,194,226)"/><path d=" M -2915.244 -1068.595 C -2939.378 -1086.807 -2953.295 -1097.445 -2976.275 -1115.762 C -2974.528 -1123.149 -2970.293 -1127.568 -2967.42 -1131.138 C -2957.865 -1141.646 -2951.018 -1143.242 -2933.754 -1135.807 C -2919.753 -1117.08 -2913.567 -1094.63 -2915.244 -1068.595 Z " fill="rgb(162,193,228)"/><path d=" M -2976.275 -1115.762 C -2976.58 -1114.438 -2978.749 -1110.606 -2978.838 -1109.667 L -2894.992 -1045.156 L -2891.552 -1050.945 L -2976.275 -1115.762 Z " fill="rgb(0,0,0)"/><path d=" M -2890.936 -1190.635 L -2827.103 -1149.624 C -2824.847 -1148.176 -2824.193 -1145.168 -2825.641 -1142.913 L -2825.641 -1142.913 C -2827.09 -1140.654 -2830.098 -1140 -2832.355 -1141.453 L -2896.186 -1182.462 C -2898.441 -1183.91 -2899.095 -1186.918 -2897.648 -1189.173 L -2897.648 -1189.173 C -2896.198 -1191.432 -2893.19 -1192.086 -2890.936 -1190.635 Z " fill="rgb(0,0,0)"/></g><path d=" M -2880.968 -1206.266 L -2829.308 -1281.787 C -2824.575 -1288.707 -2815.117 -1290.48 -2808.196 -1285.749 L -2768.979 -1258.921 C -2762.06 -1254.187 -2760.287 -1244.729 -2765.02 -1237.81 L -2816.675 -1162.29 C -2821.409 -1155.37 -2830.871 -1153.596 -2837.788 -1158.328 L -2877.006 -1185.153 C -2883.926 -1189.887 -2885.7 -1199.349 -2880.968 -1206.266 Z " fill="rgb(255,255,255)"/></g><g><path d=" M -2789.209 -1128.869 L -2786.489 -1134.048 C -2785.018 -1136.849 -2781.548 -1137.927 -2778.747 -1136.456 L -2723.506 -1107.42 C -2720.706 -1105.949 -2719.626 -1102.482 -2721.097 -1099.681 L -2723.822 -1094.501 C -2725.292 -1091.7 -2728.76 -1090.621 -2731.559 -1092.094 L -2786.805 -1121.129 C -2789.603 -1122.603 -2790.683 -1126.07 -2789.209 -1128.869 Z " fill="rgb(219,213,255)"/><g><path d=" M -2723.19 -1089.604 C -2743.173 -1104.506 -2768.127 -1117.894 -2792.087 -1128.368 L -2842.294 -1028.105 C -2797.427 -1007.382 -2782.279 -1000.417 -2748.906 -986.134 C -2743.376 -991.042 -2741.17 -997.857 -2739.992 -1000.512 C -2734.367 -1013.196 -2742.771 -1025.334 -2750.311 -1031.222 Q -2752.84 -1033.195 -2723.19 -1089.604 Z " fill="rgb(255,255,255)"/><path d=" M -2832.681 -1048 L -2842.56 -1028.269 C -2837.126 -1025.759 -2832.127 -1023.45 -2828.057 -1021.572 C -2822.675 -1033.234 -2824.261 -1042.032 -2832.681 -1048 Z " fill="rgb(160,194,226)"/><path d=" M -2816.493 -1016.092 C -2789.74 -1003.794 -2774.198 -996.763 -2747.886 -985.505 C -2742.358 -990.41 -2740.522 -996.083 -2738.784 -1000.193 C -2734.182 -1013.233 -2735.969 -1019.842 -2750.311 -1031.222 C -2772.83 -1034.592 -2794.938 -1029.538 -2816.493 -1016.092 Z " fill="rgb(162,193,228)"/><path d=" M -2747.886 -985.505 C -2748.882 -984.631 -2751.324 -980.662 -2752.087 -980.153 L -2845.192 -1022.655 L -2842.56 -1028.269 L -2747.886 -985.505 Z " fill="rgb(0,0,0)"/><path d=" M -2723.038 -1093.237 L -2787.657 -1129.063 C -2789.941 -1130.331 -2792.823 -1129.504 -2794.09 -1127.22 L -2794.09 -1127.22 C -2795.352 -1124.938 -2794.529 -1122.058 -2792.245 -1120.791 L -2727.626 -1084.964 C -2725.342 -1083.697 -2722.46 -1084.524 -2721.195 -1086.804 L -2721.195 -1086.804 C -2719.927 -1089.088 -2720.754 -1091.97 -2723.038 -1093.237 Z " fill="rgb(0,0,0)"/></g><path d=" M -2782.446 -1146.453 L -2740.196 -1226.654 C -2736.179 -1234.279 -2726.727 -1237.207 -2719.106 -1233.191 L -2677.815 -1211.438 C -2670.194 -1207.423 -2667.266 -1197.971 -2671.281 -1190.35 L -2713.536 -1110.147 C -2717.549 -1102.524 -2727.001 -1099.596 -2734.625 -1103.614 L -2775.913 -1125.365 C -2783.534 -1129.38 -2786.464 -1138.829 -2782.446 -1146.453 Z " fill="rgb(255,255,255)"/></g><g><path d=" M -2787.155 -1562.367 L -2771.407 -1539.742 C -2768.485 -1535.543 -2769.519 -1529.764 -2773.718 -1526.842 L -2818.05 -1495.982 C -2822.247 -1493.063 -2828.026 -1494.098 -2830.948 -1498.297 L -2846.698 -1520.919 C -2849.62 -1525.118 -2848.581 -1530.898 -2844.386 -1533.819 L -2800.052 -1564.676 C -2795.856 -1567.6 -2790.075 -1566.561 -2787.155 -1562.367 Z " fill="rgb(219,213,255)"/><path d=" M -2817.677 -1642.439 L -2812.93 -1628.407 C -2811.686 -1624.732 -2813.66 -1620.736 -2817.336 -1619.492 L -2867.194 -1602.623 C -2870.869 -1601.379 -2874.865 -1603.354 -2876.107 -1607.032 L -2880.855 -1621.064 C -2882.101 -1624.741 -2880.124 -1628.735 -2876.449 -1629.979 L -2826.591 -1646.848 C -2822.915 -1648.092 -2818.921 -1646.114 -2817.677 -1642.439 Z " fill="rgb(219,213,255)"/><path d=" M -2767.641 -1537.201 L -2707.816 -1471.26 C -2703.082 -1466.04 -2703.475 -1457.956 -2708.695 -1453.222 L -2747.096 -1418.38 C -2752.315 -1413.646 -2760.399 -1414.039 -2765.134 -1419.259 L -2824.961 -1485.201 C -2829.696 -1490.421 -2829.302 -1498.505 -2824.083 -1503.24 L -2785.679 -1538.079 C -2780.459 -1542.814 -2772.378 -1542.422 -2767.641 -1537.201 Z " fill="rgb(255,255,255)"/><path d=" M -2806.135 -1620.538 L -2781.739 -1558.132 C -2778.861 -1550.772 -2782.498 -1542.461 -2789.86 -1539.584 L -2835.267 -1521.831 C -2842.627 -1518.957 -2850.939 -1522.595 -2853.814 -1529.952 L -2878.213 -1592.36 C -2881.091 -1599.719 -2877.451 -1608.029 -2870.092 -1610.907 L -2824.682 -1628.66 C -2817.323 -1631.538 -2809.011 -1627.9 -2806.135 -1620.538 Z " fill="rgb(255,255,255)"/><g><path d=" M -2819.535 -1644.966 Q -2825.295 -1664.213 -2835.099 -1696.097 C -2838.531 -1707.367 -2846.958 -1714.799 -2853.909 -1712.682 L -2896.788 -1699.631 C -2903.739 -1697.514 -2906.593 -1686.649 -2903.163 -1675.376 Q -2897.527 -1639.609 -2887.598 -1624.248 Q -2877.671 -1608.888 -2819.535 -1644.966 Q -2813.776 -1625.719 -2819.535 -1644.966 Z " fill="rgb(255,255,255)"/><path d=" M -2864.021 -1627.621 C -2856.207 -1620.012 -2831.267 -1632.685 -2819.535 -1644.966 C -2807.804 -1657.247 -2805.027 -1663.254 -2800.148 -1669.958 C -2795.193 -1676.65 -2802.66 -1692.561 -2814.807 -1685.144 Q -2823.89 -1675.16 -2827.274 -1670.687 Q -2828.934 -1671.457 -2842.541 -1674.491 C -2848.266 -1675.767 -2864.863 -1671.368 -2870.047 -1656.259 C -2875.497 -1640.378 -2871.836 -1635.228 -2864.021 -1627.621 Z " fill="rgb(178,167,240)"/></g></g><g><path d=" M -2588.716 -1252.539 L -2593.286 -1278.02 C -2594.153 -1282.876 -2590.922 -1287.524 -2586.064 -1288.395 L -2533.69 -1297.781 C -2528.835 -1298.654 -2524.186 -1295.417 -2523.317 -1290.564 L -2518.749 -1265.08 C -2517.879 -1260.226 -2521.116 -1255.577 -2525.969 -1254.708 L -2578.344 -1245.318 C -2583.197 -1244.449 -2587.847 -1247.685 -2588.716 -1252.539 Z " fill="rgb(219,213,255)"/><path d=" M -2597.355 -1166.1 L -2590.992 -1191.219 C -2589.837 -1195.775 -2585.2 -1198.536 -2580.644 -1197.381 L -2533.418 -1185.415 C -2528.862 -1184.261 -2526.1 -1179.627 -2527.255 -1175.071 L -2533.62 -1149.95 C -2534.774 -1145.397 -2539.41 -1142.636 -2543.963 -1143.789 L -2591.192 -1155.756 C -2595.748 -1156.911 -2598.51 -1161.544 -2597.355 -1166.1 Z " fill="rgb(219,213,255)"/><path d=" M -2597.027 -1281.315 L -2623.857 -1366.215 C -2625.979 -1372.936 -2622.247 -1380.117 -2615.527 -1382.239 L -2566.086 -1397.863 C -2559.366 -1399.986 -2552.188 -1396.255 -2550.062 -1389.533 L -2523.234 -1304.637 C -2521.111 -1297.917 -2524.843 -1290.736 -2531.564 -1288.613 L -2581.004 -1272.989 C -2587.724 -1270.867 -2594.903 -1274.598 -2597.027 -1281.315 Z " fill="rgb(255,255,255)"/><path d=" M -2595.241 -1190.969 L -2589.266 -1257.708 C -2588.562 -1265.578 -2581.6 -1271.395 -2573.73 -1270.69 L -2525.168 -1266.345 C -2517.299 -1265.641 -2511.482 -1258.679 -2512.186 -1250.809 L -2518.162 -1184.067 C -2518.864 -1176.196 -2525.826 -1170.379 -2533.698 -1171.085 L -2582.259 -1175.433 C -2590.128 -1176.138 -2595.947 -1183.097 -2595.241 -1190.969 Z " fill="rgb(255,255,255)"/><g><path d=" M -2596.711 -1168.388 Q -2601.545 -1148.89 -2609.33 -1116.452 C -2612.114 -1105.004 -2608.639 -1094.317 -2601.581 -1092.603 L -2558.027 -1082.019 C -2550.966 -1080.303 -2542.978 -1088.205 -2540.195 -1099.65 Q -2526.845 -1133.312 -2527.576 -1151.586 Q -2528.303 -1169.86 -2596.711 -1168.388 Q -2591.874 -1187.884 -2596.711 -1168.388 Z " fill="rgb(255,255,255)"/><path d=" M -2549.587 -1160.68 C -2552.444 -1171.207 -2579.862 -1171.167 -2596.708 -1168.386 C -2613.557 -1165.607 -2617.01 -1162.27 -2626.624 -1157.423 C -2633.066 -1153.504 -2635.094 -1137.401 -2621.226 -1136.208 Q -2607.777 -1139.245 -2603.136 -1142.305 Q -2602.099 -1140.801 -2591.931 -1131.266 C -2587.652 -1127.256 -2571.126 -1122.594 -2558.974 -1132.962 C -2546.203 -1143.859 -2546.734 -1150.154 -2549.587 -1160.68 Z " fill="rgb(255,255,255)"/></g></g><g><path d=" M -2706.568 -1482.825 L -2566.12 -1408.131 C -2558.408 -1404.03 -2555.473 -1394.435 -2559.576 -1386.721 L -2627.299 -1259.381 C -2631.4 -1251.669 -2640.998 -1248.736 -2648.709 -1252.837 L -2789.158 -1327.532 C -2796.872 -1331.634 -2799.802 -1341.23 -2795.701 -1348.941 L -2727.978 -1476.282 C -2723.875 -1483.996 -2714.283 -1486.928 -2706.568 -1482.825 Z " fill="rgb(255,254,254)"/><path d=" M -2780.739 -1346.963 L -2636.864 -1270.446 C -2626.105 -1264.725 -2623.667 -1252.448 -2631.424 -1243.05 C -2635.796 -1237.752 -2649.944 -1210.666 -2653.258 -1200.162 C -2656.929 -1188.542 -2668.641 -1183.753 -2679.4 -1189.475 L -2823.685 -1266.21 C -2834.444 -1271.932 -2837.381 -1284.594 -2830.241 -1294.467 C -2825.794 -1300.621 -2811.438 -1327.396 -2807.971 -1336.653 C -2803.701 -1348.063 -2791.498 -1352.685 -2780.739 -1346.963 Z " fill="rgb(255,255,255)"/><g><path d=" M -2745.826 -1432.215 L -2586.113 -1347.274 C -2583.047 -1345.644 -2581.63 -1342.309 -2582.95 -1339.828 L -2582.95 -1339.828 C -2584.27 -1337.346 -2587.829 -1336.654 -2590.894 -1338.284 L -2750.608 -1423.224 C -2753.673 -1424.855 -2755.088 -1428.192 -2753.769 -1430.674 L -2753.769 -1430.674 C -2752.449 -1433.155 -2748.892 -1433.845 -2745.826 -1432.215 Z " fill="rgb(219,213,255)"/><path d=" M -2763.995 -1398.052 L -2604.281 -1313.112 C -2601.216 -1311.482 -2599.8 -1308.144 -2601.12 -1305.662 L -2601.12 -1305.662 C -2602.44 -1303.181 -2605.997 -1302.492 -2609.062 -1304.122 L -2768.776 -1389.062 C -2771.841 -1390.692 -2773.259 -1394.027 -2771.939 -1396.508 L -2771.939 -1396.508 C -2770.619 -1398.99 -2767.06 -1399.682 -2763.995 -1398.052 Z " fill="rgb(219,213,255)"/><path d=" M -2712.077 -1426.393 L -2607.207 -1369.405 C -2605.437 -1368.445 -2604.783 -1366.231 -2605.743 -1364.461 L -2633.904 -1312.641 C -2634.864 -1310.871 -2637.078 -1310.216 -2638.847 -1311.179 L -2743.718 -1368.165 C -2745.483 -1369.126 -2746.138 -1371.341 -2745.18 -1373.107 L -2717.017 -1424.93 C -2716.058 -1426.697 -2713.844 -1427.352 -2712.077 -1426.393 Z " fill="rgb(130,115,232)"/><path d=" M -2712.083 -1423.036 L -2610.017 -1367.573 C -2608.858 -1366.945 -2608.427 -1365.49 -2609.059 -1364.332 L -2635.328 -1315.991 C -2635.956 -1314.831 -2637.412 -1314.401 -2638.57 -1315.032 L -2740.632 -1370.493 C -2741.795 -1371.123 -2742.222 -1372.577 -2741.594 -1373.736 L -2715.324 -1422.077 C -2714.696 -1423.237 -2713.241 -1423.667 -2712.083 -1423.036 Z " fill="rgb(235,235,235)"/><path d=" M -2715.874 -1404.543 C -2714.962 -1406.258 -2712.831 -1406.909 -2711.116 -1405.997 C -2709.402 -1405.086 -2708.751 -1402.954 -2709.662 -1401.24 C -2710.574 -1399.526 -2712.706 -1398.874 -2714.42 -1399.786 C -2716.134 -1400.697 -2716.786 -1402.829 -2715.874 -1404.543 Z " fill="rgb(219,26,26)"/><path d=" M -2721.655 -1393.673 C -2720.744 -1395.387 -2718.612 -1396.039 -2716.898 -1395.127 C -2715.183 -1394.215 -2714.532 -1392.084 -2715.444 -1390.369 C -2716.355 -1388.655 -2718.487 -1388.004 -2720.201 -1388.915 C -2721.915 -1389.827 -2722.567 -1391.959 -2721.655 -1393.673 Z " fill="rgb(177,219,26)"/><path d=" M -2727.436 -1382.803 C -2726.525 -1384.517 -2724.393 -1385.168 -2722.679 -1384.257 C -2720.965 -1383.345 -2720.313 -1381.213 -2721.225 -1379.499 C -2722.136 -1377.785 -2724.268 -1377.133 -2725.982 -1378.045 C -2727.696 -1378.957 -2728.348 -1381.088 -2727.436 -1382.803 Z " fill="rgb(26,219,103)"/><rect x="-2712.864" y="-1392.328" width="59.803" height="39.102" transform="matrix(0.883,0.47,-0.47,0.883,-958.754,1099.046)" fill="rgb(123,161,236)"/><path d=" M -2641.78 -1369.121 L -2618.951 -1356.98 C -2618.394 -1356.684 -2618.182 -1355.992 -2618.479 -1355.434 L -2619.056 -1354.349 C -2619.352 -1353.792 -2620.044 -1353.58 -2620.602 -1353.877 L -2643.43 -1366.018 C -2643.988 -1366.314 -2644.199 -1367.006 -2643.903 -1367.563 L -2643.326 -1368.649 C -2643.029 -1369.206 -2642.337 -1369.417 -2641.78 -1369.121 Z " fill="rgb(0,0,0)"/><path d=" M -2645.493 -1363.322 L -2622.667 -1351.182 C -2622.109 -1350.886 -2621.895 -1350.192 -2622.191 -1349.635 L -2622.769 -1348.55 C -2623.065 -1347.992 -2623.761 -1347.78 -2624.319 -1348.076 L -2647.145 -1360.215 C -2647.702 -1360.512 -2647.912 -1361.207 -2647.615 -1361.764 L -2647.038 -1362.849 C -2646.742 -1363.407 -2646.05 -1363.618 -2645.493 -1363.322 Z " fill="rgb(0,0,0)"/><path d=" M -2648.876 -1356.96 L -2626.05 -1344.82 C -2625.493 -1344.524 -2625.279 -1343.83 -2625.575 -1343.273 L -2626.154 -1342.185 C -2626.45 -1341.627 -2627.145 -1341.418 -2627.702 -1341.714 L -2650.528 -1353.853 C -2651.085 -1354.15 -2651.297 -1354.842 -2651.001 -1355.399 L -2650.422 -1356.487 C -2650.125 -1357.044 -2649.433 -1357.256 -2648.876 -1356.96 Z " fill="rgb(0,0,0)"/><path d=" M -2652.261 -1350.595 L -2629.435 -1338.455 C -2628.878 -1338.159 -2628.664 -1337.465 -2628.96 -1336.908 L -2629.537 -1335.823 C -2629.834 -1335.265 -2630.528 -1335.055 -2631.086 -1335.352 L -2653.912 -1347.491 C -2654.469 -1347.788 -2654.68 -1348.48 -2654.384 -1349.037 L -2653.807 -1350.122 C -2653.51 -1350.68 -2652.819 -1350.891 -2652.261 -1350.595 Z " fill="rgb(0,0,0)"/><path d=" M -2655.645 -1344.233 L -2632.819 -1332.093 C -2632.262 -1331.797 -2632.047 -1331.103 -2632.344 -1330.546 L -2632.922 -1329.458 C -2633.219 -1328.9 -2633.914 -1328.691 -2634.471 -1328.987 L -2657.297 -1341.126 C -2657.854 -1341.423 -2658.065 -1342.115 -2657.769 -1342.672 L -2657.19 -1343.76 C -2656.894 -1344.317 -2656.202 -1344.529 -2655.645 -1344.233 Z " fill="rgb(0,0,0)"/></g><path d=" M -2767.522 -1421.737 Q -2764.649 -1417.594 -2760.072 -1415.935 L -2719.194 -1483.862 Q -2756.439 -1442.11 -2767.522 -1421.737 Z " fill="rgb(219,213,255)"/><path d=" M -2559.396 -1400.878 Q -2556.443 -1400.501 -2550.626 -1391.12 Q -2550.185 -1389.749 -2604.338 -1303.092 L -2559.396 -1400.878 Z " fill="rgb(219,213,255)"/><path d=" M -2832.214 -1290.666 C -2834.721 -1286.836 -2835.292 -1283.031 -2833.062 -1276.427 L -2784.569 -1245.407 C -2812.721 -1270.278 -2816.165 -1278.71 -2832.214 -1290.666 Z " fill="rgb(162,193,228)"/><path d=" M -2656.833 -1193.412 C -2660.513 -1188.551 -2666.687 -1186.827 -2673.34 -1186.252 L -2710.028 -1205.764 L -2656.833 -1193.412 Z " fill="rgb(162,193,228)"/><path d=" M -2798.926 -1347.172 L -2782.393 -1331.903 L -2794.713 -1350.41 C -2795.901 -1349.153 -2797.275 -1347.976 -2798.926 -1347.172 Z " fill="rgb(189,188,188)"/><path d=" M -2626.44 -1260.918 C -2626.942 -1258.524 -2626.819 -1256.322 -2627.086 -1255.783 L -2642.63 -1257.574 L -2626.44 -1260.918 Z " fill="rgb(189,188,188)"/></g><g><g><path d=" M -2457.484 -1493.947 L -2436.85 -1481.57 C -2435.052 -1480.493 -2434.466 -1478.157 -2435.547 -1476.358 L -2463.883 -1429.112 C -2464.962 -1427.316 -2467.299 -1426.729 -2469.095 -1427.809 L -2489.73 -1440.183 C -2491.527 -1441.263 -2492.113 -1443.599 -2491.033 -1445.395 L -2462.696 -1492.644 C -2461.619 -1494.442 -2459.285 -1495.025 -2457.484 -1493.947 Z " fill="rgb(255,255,255)"/><path d=" M -2460.417 -1475.929 C -2458.917 -1478.424 -2455.675 -1479.236 -2453.178 -1477.739 C -2450.679 -1476.24 -2449.868 -1472.998 -2451.366 -1470.498 C -2452.863 -1468.002 -2456.108 -1467.192 -2458.605 -1468.689 C -2461.101 -1470.186 -2461.916 -1473.43 -2460.417 -1475.929 Z " fill="rgb(0,0,0)"/><path d=" M -2477.005 -1455.111 C -2474.506 -1459.272 -2469.101 -1460.627 -2464.938 -1458.131 C -2460.776 -1455.635 -2459.423 -1450.227 -2461.918 -1446.065 C -2464.414 -1441.902 -2469.823 -1440.549 -2473.985 -1443.045 C -2478.146 -1445.544 -2479.501 -1450.949 -2477.005 -1455.111 Z " fill="rgb(100,65,189)"/></g><g><path d=" M -2703.64 -1638.771 L -2682.19 -1625.906 C -2680.617 -1624.965 -2680.105 -1622.92 -2681.051 -1621.346 L -2709.875 -1573.284 C -2710.819 -1571.713 -2712.864 -1571.201 -2714.436 -1572.143 L -2735.885 -1585.01 C -2737.458 -1585.951 -2737.97 -1587.996 -2737.027 -1589.571 L -2708.202 -1637.63 C -2707.256 -1639.203 -2705.214 -1639.717 -2703.64 -1638.771 Z " fill="rgb(255,255,255)"/><path d=" M -2706.165 -1620.509 C -2704.665 -1623.004 -2701.423 -1623.816 -2698.927 -1622.319 C -2696.427 -1620.82 -2695.616 -1617.578 -2697.114 -1615.079 C -2698.611 -1612.582 -2701.857 -1611.772 -2704.353 -1613.269 C -2706.852 -1614.768 -2707.664 -1618.01 -2706.165 -1620.509 Z " fill="rgb(0,0,0)"/><path d=" M -2722.753 -1599.692 C -2720.254 -1603.853 -2714.849 -1605.207 -2710.686 -1602.711 C -2706.524 -1600.216 -2705.171 -1594.807 -2707.667 -1590.645 C -2710.163 -1586.482 -2715.571 -1585.129 -2719.732 -1587.628 C -2723.894 -1590.124 -2725.249 -1595.529 -2722.753 -1599.692 Z " fill="rgb(100,65,189)"/></g><path d=" M -2687.133 -1623.892 Q -2638.622 -1684.479 -2597.384 -1686.527 C -2554.572 -1688.654 -2522.598 -1680.578 -2494.714 -1661.116 C -2466.939 -1641.728 -2445.42 -1610.92 -2440.619 -1583.604 C -2435.23 -1552.976 -2438.673 -1525.078 -2451.943 -1499.865 C -2461.933 -1477.394 -2478.175 -1452.855 -2500.748 -1426.371 C -2513.368 -1409.994 -2516.714 -1395.94 -2558.862 -1400.982 C -2614.911 -1412.293 -2660.034 -1444.215 -2684.309 -1459.029 C -2705.098 -1473.336 -2718.88 -1482.487 -2724.782 -1512.68 C -2724.859 -1535.471 -2719.92 -1547.546 -2716.157 -1561.167 C -2708.89 -1585.218 -2700.077 -1606.514 -2687.133 -1623.892 Z " fill="rgb(255,255,255)"/><path d=" M -2498.672 -1663.112 C -2529.316 -1685.81 -2605.654 -1703.324 -2646.426 -1665.992 C -2677.01 -1640.796 -2707.012 -1606.409 -2721.812 -1550.696 C -2728.782 -1523.759 -2723.605 -1498.309 -2715.532 -1487.592 C -2713.258 -1526.035 -2697.844 -1572.048 -2634.792 -1631.915 C -2616.145 -1653.869 -2563.982 -1665.245 -2498.672 -1663.112 Z " fill="rgb(236,234,249)"/><path d=" M -2558.862 -1400.982 C -2620.909 -1423.682 -2696.053 -1466.818 -2716.983 -1492.349 C -2725.015 -1483.056 -2620.971 -1409.048 -2558.862 -1400.982 Z " fill="rgb(219,213,255)"/><path d=" M -2685.551 -1601.007 C -2659.054 -1650.829 -2589.57 -1665.765 -2530.481 -1634.34 C -2471.393 -1602.915 -2444.932 -1536.953 -2471.429 -1487.131 C -2497.926 -1437.309 -2567.41 -1422.373 -2626.499 -1453.798 C -2685.587 -1485.223 -2712.048 -1551.185 -2685.551 -1601.007 Z " fill="rgb(49,48,48)"/><path d=" M -2618.262 -1615.155 C -2583.971 -1612.793 -2539.28 -1636.793 -2531.969 -1635.024 C -2531.268 -1634.794 -2532.007 -1635.002 -2531.99 -1635.035 C -2531.945 -1635.12 -2534.05 -1636.164 -2538.261 -1638.178 C -2567.078 -1653.402 -2636.995 -1667.452 -2679.17 -1611.251 C -2708.247 -1568.463 -2697.284 -1520.659 -2664.512 -1483.242 Q -2682.688 -1542.713 -2679.448 -1560.041 C -2676.982 -1573.238 -2660.047 -1609.984 -2618.262 -1615.155 Z " fill="rgb(25,25,25)"/><path d=" M -2536.279 -1589.265 C -2528.931 -1599.411 -2498.477 -1583.027 -2484.228 -1559.069 C -2470.34 -1535.714 -2474.641 -1501.137 -2488.742 -1503.632 C -2497.653 -1505.207 -2485.847 -1526.735 -2499.454 -1550.265 C -2513.062 -1573.794 -2542.847 -1580.198 -2536.279 -1589.265 Z " fill="rgb(81,81,81)"/></g></g></g></g></g></svg>