<?xml version="1.0" encoding="UTF-8" standalone="no"?>
<!-- Generator: Gravit.io -->
<svg xmlns="http://www.w3.org/2000/svg" xmlns:xlink="http://www.w3.org/1999/xlink" style="isolation:isolate" viewBox="-391.667 -108.333 1850 1850" width="1850pt" height="1850pt"><defs><clipPath id="_clipPath_5yZDdFfWAbGglo8M5gMCWoiZ23cNYopc"><rect x="-391.667" y="-108.333" width="1850" height="1850"/></clipPath></defs><g clip-path="url(#_clipPath_5yZDdFfWAbGglo8M5gMCWoiZ23cNYopc)"><path d="M 15.33 -108.33 L 1051.33 -108.33 C 1275.959 -108.33 1458.33 74.041 1458.33 298.67 L 1458.33 1334.67 C 1458.33 1559.299 1275.959 1741.67 1051.33 1741.67 L 15.33 1741.67 C -209.299 1741.67 -391.67 1559.299 -391.67 1334.67 L -391.67 298.67 C -391.67 74.041 -209.299 -108.33 15.33 -108.33 Z" style="stroke:none;fill:#6C69A0;stroke-miterlimit:10;"/><path d=" M 387.594 366.748 L 56.548 1266.585 L 231.712 1177.202 L 476.65 503.45 L 619.804 503.45 L 810.863 926.531 L 533.377 927.13 L 533.377 844.856 L 417.148 982.153 L 533.377 1112.273 L 533.377 1037.078 L 1010.118 1037.906 L 694.867 366.748 L 387.594 366.748 Z " fill="rgb(255,255,255)" vector-effect="non-scaling-stroke" stroke-width="0.5" stroke="rgb(255,255,255)" stroke-linejoin="miter" stroke-linecap="square" stroke-miterlimit="3"/></g></svg>