<?xml version="1.0" encoding="UTF-8" standalone="no"?><!-- Generator: Gravit.io --><svg xmlns="http://www.w3.org/2000/svg" xmlns:xlink="http://www.w3.org/1999/xlink" style="isolation:isolate" viewBox="-391.667 -108.333 1850 1850" width="1850pt" height="1850pt"><defs><clipPath id="_clipPath_b0T5S1GEiHaGG6rW4uJGkSJPnlUieZfL"><rect x="-391.667" y="-108.333" width="1850" height="1850"/></clipPath></defs><g clip-path="url(#_clipPath_b0T5S1GEiHaGG6rW4uJGkSJPnlUieZfL)"><path d="M 15.333 -108.333 L 1051.333 -108.333 C 1275.963 -108.333 1458.333 74.037 1458.333 298.667 L 1458.333 1334.667 C 1458.333 1559.296 1275.963 1741.667 1051.333 1741.667 L 15.333 1741.667 C -209.296 1741.667 -391.667 1559.296 -391.667 1334.667 L -391.667 298.667 C -391.667 74.037 -209.296 -108.333 15.333 -108.333 Z" style="stroke:none;fill:#6C69A0;stroke-miterlimit:10;"/><path d=" M 338.039 213.765 L -105.57 1419.568 L 129.153 1299.792 L 457.377 396.949 L 649.206 396.949 L 905.23 963.887 L 533.392 964.69 L 533.392 854.441 L 377.643 1038.422 L 533.392 1212.786 L 533.392 1112.023 L 1172.237 1113.133 L 749.793 213.765 L 338.039 213.765 Z " fill="rgb(255,255,255)" vector-effect="non-scaling-stroke" stroke-width="1" stroke="rgb(255,255,255)" stroke-linejoin="miter" stroke-linecap="square" stroke-miterlimit="3"/></g></svg>