<?xml version="1.0" encoding="iso-8859-1"?>
<!-- Generator: Adobe Illustrator 19.0.0, SVG Export Plug-In . SVG Version: 6.00 Build 0)  -->
<svg version="1.1" id="Layer_1" xmlns="http://www.w3.org/2000/svg" xmlns:xlink="http://www.w3.org/1999/xlink" x="0px" y="0px"
	 viewBox="0 0 508 508" style="enable-background:new 0 0 508 508;" xml:space="preserve">
<path style="fill:#90DFAA;" d="M508,254c0,140.4-113.6,254-254,254S0,394.4,0,254S113.6,0,254,0S508,113.6,508,254z"/>
<path style="fill:#324A5E;" d="M508,254c0,36.4-7.6,70.8-21.2,102C447.6,445.6,358,508,254,508S60.4,445.6,21.2,356
	C7.6,324.8,0,290.4,0,254C0,113.6,113.6,0,254,0S508,113.6,508,254z"/>
<g>
	<path style="fill:#FF7058;" d="M306,195.6v70c17.2,8.4,31.2,22.8,39.2,40.4c4.8-10.8,7.6-22.4,7.6-35.2
		C353.2,238,334,209.2,306,195.6z"/>
	<path style="fill:#FF7058;" d="M202,195.6v70c-17.2,8.4-31.2,22.8-39.2,40.4c-4.8-10.8-7.6-22.4-7.6-35.2
		C154.8,238,174,209.2,202,195.6z"/>
</g>
<path style="fill:#FFD05B;" d="M301.2,289.2C336,208,320,110.4,254,44.4l0,0l0,0c-66,66-82,163.6-47.2,244.8H301.2z"/>
<path style="fill:#FF7058;" d="M256.4,248.8c0,31.6-2.4,57.2-2.4,57.2s-2.4-25.6-2.4-57.2s2.4-57.2,2.4-57.2
	S256.4,217.2,256.4,248.8z"/>
<circle style="fill:#FFFFFF;" cx="254" cy="129.2" r="20.8"/>
<path style="fill:#E6E9EE;" d="M454.8,344.8c-12.8,0-24.4,4.8-33.6,12.4c-5.6-2.4-11.6-3.6-18-3.6c-24.8,0-45.2,20.4-45.2,45.6
	c0,6,1.2,12,3.2,17.2c-7.6,8-12.4,18.8-12.4,30.8c-6.4-3.6-14-5.6-21.6-5.6c-0.8,0-1.2,0-2,0c-3.6-11.6-11.6-21.6-22.4-27.2
	c-18-22.8-25.6-73.2-27.6-87.6h-42.8c-2,14.4-9.6,64.8-27.6,87.6c-10.4,5.6-18.8,15.2-22.4,27.2c-0.8,0-1.2,0-2,0
	c-8,0-15.2,2-21.6,5.6c0-12-4.8-22.8-12.4-30.8c2-5.2,3.2-11.2,3.2-17.2c0-25.2-20.4-45.6-45.6-45.6c-6.4,0-12.4,1.2-18,3.6
	c-8.8-7.6-20.8-12.4-33.6-12.4c-12,0-23.2,4-32,11.2c39.2,89.6,128.8,152,232.8,152S446.8,445.6,486,356
	C478,348.8,466.8,344.8,454.8,344.8z"/>
<polygon style="fill:#FF7058;" points="405.6,130.4 418.8,129.2 405.6,128 410,122.4 404.4,127.2 403.2,113.6 402,127.2 
	396.4,122.4 401.2,128 387.6,129.2 401.2,130.4 396.4,136 402,131.6 403.2,144.8 404.4,131.6 410,136 "/>
<polygon style="fill:#4CDBC4;" points="127.6,169.2 151.6,166.8 127.6,164.8 135.6,155.2 126,163.2 123.6,139.2 121.6,163.2 
	112,155.2 120,164.8 96,166.8 120,169.2 112,178.8 121.6,170.8 123.6,194.4 126,170.8 135.6,178.8 "/>
<polygon style="fill:#84DBFF;" points="412,264.4 430.8,262.8 412,260.8 418.4,253.2 410.8,259.6 409.2,240.8 407.2,259.6 
	400,253.2 406,260.8 387.2,262.8 406,264.4 400,272 407.2,265.6 409.2,284.4 410.8,265.6 418.4,272 "/>
<g>
</g>
<g>
</g>
<g>
</g>
<g>
</g>
<g>
</g>
<g>
</g>
<g>
</g>
<g>
</g>
<g>
</g>
<g>
</g>
<g>
</g>
<g>
</g>
<g>
</g>
<g>
</g>
<g>
</g>
</svg>
