<?xml version="1.0" encoding="UTF-8" standalone="no"?>
<!-- Generator: Gravit.io -->
<svg xmlns="http://www.w3.org/2000/svg" xmlns:xlink="http://www.w3.org/1999/xlink" style="isolation:isolate"
     viewBox="0 0 918.9 583.739" width="918.9pt" height="583.739pt">
    <defs>
        <clipPath id="_clipPath_E9vpqW7443oMqSjC3YPsQFYgH7sBAG7t">
            <rect width="918.9" height="583.739"/>
        </clipPath>
    </defs>
    <g clip-path="url(#_clipPath_E9vpqW7443oMqSjC3YPsQFYgH7sBAG7t)">
        <g>
            <path d=" M 914.901 370.257 C 914.901 321.994 875.749 207.466 827.453 207.466 C 779.156 207.466 740.004 321.994 740.004 370.257 C 740.037 418.531 779.179 457.646 827.453 457.646 C 875.726 457.646 914.868 418.531 914.901 370.257 L 914.901 370.257 Z "
                  fill="rgb(242,242,242)"/>
            <path d=" M 827.453 582.865 C 827.643 582.865 827.826 582.789 827.961 582.655 C 828.096 582.52 828.172 582.337 828.172 582.146 L 828.172 280.858 C 828.17 280.461 827.849 280.141 827.453 280.141 C 827.056 280.141 826.735 280.461 826.733 280.858 L 826.733 582.146 C 826.734 582.337 826.809 582.52 826.944 582.655 C 827.079 582.789 827.262 582.865 827.453 582.865 Z "
                  fill="rgb(204,204,204)"/>
            <path d=" M 827.453 339.024 C 827.643 339.024 827.826 338.948 827.961 338.813 L 862.573 304.225 C 862.854 303.944 862.853 303.489 862.572 303.208 C 862.292 302.928 861.837 302.928 861.556 303.209 L 826.944 337.797 C 826.739 338.002 826.677 338.312 826.788 338.58 C 826.9 338.849 827.162 339.024 827.453 339.024 L 827.453 339.024 Z "
                  fill="rgb(204,204,204)"/>
            <path d=" M 827.453 398.903 C 827.743 398.903 828.005 398.728 828.117 398.459 C 828.228 398.191 828.167 397.882 827.961 397.676 L 769.997 339.751 C 769.717 339.47 769.262 339.47 768.981 339.751 C 768.7 340.031 768.7 340.487 768.98 340.767 L 826.944 398.692 C 827.079 398.827 827.262 398.903 827.453 398.903 L 827.453 398.903 Z "
                  fill="rgb(204,204,204)"/>
            <path d=" M 903.754 583.739 L 617.754 583.739 C 617.202 583.739 616.754 583.291 616.754 582.739 C 616.754 582.187 617.202 581.739 617.754 581.739 L 903.754 581.739 C 904.306 581.739 904.754 582.187 904.754 582.739 C 904.754 583.291 904.306 583.739 903.754 583.739 Z "
                  fill="rgb(204,204,204)"/>
            <path d=" M 701.838 570.965 L 689.578 570.964 L 683.746 523.676 L 701.84 523.677 L 701.838 570.965 L 701.838 570.965 Z "
                  fill="rgb(255,184,184)"/>
            <path d=" M 680.821 567.461 L 704.465 567.461 L 704.465 582.348 L 665.934 582.348 L 665.934 582.348 C 665.934 578.4 667.503 574.613 670.294 571.821 C 673.086 569.029 676.873 567.461 680.821 567.461 L 680.821 567.461 Z "
                  fill="rgb(47,46,65)"/>
            <path d=" M 790.793 557.077 L 779.642 562.171 L 754.688 521.581 L 771.147 514.064 L 790.793 557.077 L 790.793 557.077 Z "
                  fill="rgb(255,184,184)"/>
            <path d=" M 770.221 562.623 L 791.728 552.799 L 797.913 566.341 L 762.865 582.349 L 762.865 582.349 C 761.224 578.757 761.078 574.662 762.457 570.962 C 763.837 567.263 766.629 564.263 770.221 562.623 L 770.221 562.623 Z "
                  fill="rgb(47,46,65)"/>
            <path d=" M 701.057 558.496 L 689.345 558.496 C 686.989 558.488 685.035 556.671 684.856 554.322 L 678.469 383.763 C 678.373 382.44 678.866 381.142 679.815 380.216 C 680.765 379.29 682.075 378.83 683.395 378.959 L 751.13 386.152 C 753.402 386.374 755.148 388.263 755.192 390.545 L 756.611 465.781 C 756.619 466.189 756.698 466.593 756.845 466.974 L 784.63 539.027 C 785.064 540.151 785.028 541.403 784.532 542.501 C 784.035 543.599 783.118 544.451 781.987 544.868 L 770.119 549.241 C 767.986 550.026 765.602 549.098 764.561 547.077 L 730.429 480.708 C 730.243 480.347 730.107 479.962 730.025 479.565 L 724.194 451.471 C 723.845 449.789 722.325 448.608 720.609 448.686 C 718.892 448.764 717.485 450.076 717.29 451.784 L 705.528 554.507 C 705.268 556.78 703.344 558.496 701.057 558.496 Z "
                  fill="rgb(47,46,65)"/>
            <circle vector-effect="non-scaling-stroke" cx="706.8884689310237" cy="225.84207316406255"
                    r="24.56102999999996" fill="rgb(255,184,184)"/>
            <path d=" M 723.822 399.326 C 702.096 399.327 685.085 390.282 678.926 386.496 L 678.926 386.496 C 677.502 385.621 676.686 384.024 676.809 382.358 L 682.782 296.985 C 683.559 285.302 689.82 274.676 699.663 268.333 C 709.065 262.11 720.857 260.705 731.458 264.544 C 733.765 265.34 735.944 266.469 737.925 267.894 C 751.155 277.749 757.532 292.588 755.42 308.607 C 751.04 341.825 756.002 386.636 756.582 391.636 L 756.624 391.996 L 756.295 392.148 C 746.122 396.876 735.039 399.326 723.822 399.326 Z "
                  fill="rgb(108,99,255)"/>
            <path d=" M 755.091 411.521 C 757.468 409.732 758.931 406.981 759.086 404.009 C 759.241 401.037 758.071 398.149 755.892 396.123 L 770.303 363.423 L 751.995 366.526 L 741.116 397.102 C 737.883 401.076 738.134 406.84 741.699 410.519 C 745.264 414.197 751.017 414.628 755.091 411.521 Z "
                  fill="rgb(255,184,184)"/>
            <path d=" M 756.469 391.322 C 755.209 391.322 754.007 390.792 753.157 389.862 L 747.784 384 C 746.722 382.835 746.343 381.199 746.786 379.685 L 759.091 338.038 L 740.369 298.721 C 739.548 296.993 739.347 295.034 739.799 293.175 C 740.616 289.835 743.406 287.343 746.818 286.907 C 750.229 286.471 753.556 288.182 755.187 291.21 L 780.496 332.277 C 782.495 335.517 782.754 339.538 781.186 343.007 L 760.576 388.672 C 759.955 390.052 758.681 391.027 757.186 391.264 C 756.949 391.302 756.709 391.321 756.469 391.322 Z "
                  fill="rgb(108,99,255)"/>
            <path d=" M 727.125 247.496 C 724.578 247.932 722.482 244.387 722.165 241.893 C 721.848 239.4 722.757 237.013 722.856 234.535 C 722.955 232.058 721.787 229.047 719.214 228.313 C 716.517 227.543 714.016 229.706 711.255 229.446 C 707.407 229.084 705.475 224.58 705.009 220.938 C 704.543 217.295 704.176 212.981 700.844 210.903 C 697.522 208.833 693.412 210.339 689.595 210.404 C 683.143 210.513 676.575 205.593 675.068 199.521 C 676.678 199.986 678.398 199.297 679.242 197.85 C 679.907 196.306 679.449 194.509 678.128 193.471 L 685.441 197.053 C 684.442 195.018 685.951 192.701 688.029 191.931 C 690.106 191.161 692.523 191.507 694.816 191.863 C 706.267 193.642 719.529 192.765 727.125 201.496 C 732.386 207.543 736.716 219.05 736.125 226.496 C 735.533 233.941 727.125 247.496 727.125 247.496 Z "
                  fill="rgb(47,46,65)"/>
            <path d=" M 596.892 289.366 C 599.478 287.893 602.583 287.641 605.372 288.678 C 608.162 289.715 610.349 291.935 611.345 294.739 L 647.078 294.482 L 636.967 310.057 L 604.584 307.914 C 599.654 309.305 594.462 306.789 592.499 302.057 C 590.537 297.325 592.424 291.873 596.892 289.366 L 596.892 289.366 Z "
                  fill="rgb(255,184,184)"/>
            <path d=" M 615.485 306.343 C 615.228 305.109 615.502 303.824 616.239 302.802 L 620.882 296.348 C 621.807 295.07 623.331 294.366 624.903 294.49 L 666.703 292.739 L 702.858 271.699 C 704.382 270.542 706.258 269.946 708.171 270.01 C 711.608 270.129 714.616 272.352 715.739 275.603 C 716.861 278.854 715.865 282.46 713.233 284.673 L 678.189 317.825 C 675.425 320.443 671.541 321.516 667.825 320.688 L 618.917 309.823 C 617.439 309.497 616.225 308.448 615.688 307.033 C 615.603 306.809 615.535 306.578 615.485 306.343 Z "
                  fill="rgb(108,99,255)"/>
            <path d=" M 276.701 579.739 C 276.701 559.305 293.266 542.739 313.701 542.739 C 334.135 542.739 350.701 559.305 350.701 579.739"
                  fill="rgb(242,242,242)"/>
            <path d=" M 253.324 352.644 L 44.679 405.654 C 39.228 407.032 33.689 403.738 32.298 398.29 L 1.873 278.533 C 0.863 274.539 3.276 270.481 7.268 269.462 L 221.067 215.143 C 225.13 214.116 229.258 216.571 230.294 220.632 L 260.688 340.264 C 262.067 345.715 258.772 351.254 253.324 352.644 L 253.324 352.644 Z "
                  fill="rgb(242,242,242)"/>
            <path d=" M 51.744 393.35 L 241.243 345.204 C 246.53 343.861 249.727 338.486 248.384 333.199 L 225.043 241.327 C 223.699 236.04 218.324 232.843 213.037 234.186 L 23.539 282.332 C 18.252 283.675 15.054 289.05 16.398 294.337 L 39.739 386.209 C 41.082 391.496 46.457 394.693 51.744 393.35 Z "
                  fill="rgb(255,255,255)"/>
            <path d=" M 229.982 219.977 L 1.591 278.003 L 0.314 272.977 C -1.067 267.507 2.24 261.951 7.706 260.558 L 216.281 207.566 C 221.75 206.181 227.308 209.485 228.705 214.951 L 229.982 219.977 Z "
                  fill="rgb(230,230,230)"/>
            <circle vector-effect="non-scaling-stroke" cx="17.7050408934077" cy="265.97910316406256"
                    r="2.6443000000000003" fill="rgb(255,255,255)"/>
            <circle vector-effect="non-scaling-stroke" cx="27.433100893407698" cy="263.50758316406257"
                    r="2.644300000000001" fill="rgb(255,255,255)"/>
            <circle vector-effect="non-scaling-stroke" cx="37.161160893407725" cy="261.03606316406257"
                    r="2.644300000000001" fill="rgb(255,255,255)"/>
            <path d=" M 222.517 314.118 L 52.068 357.424 C 50.358 357.858 48.546 357.347 47.314 356.084 C 46.083 354.82 45.619 352.995 46.098 351.297 C 46.577 349.599 47.925 348.285 49.636 347.851 L 220.084 304.545 C 222.728 303.874 225.415 305.472 226.087 308.116 C 226.759 310.759 225.16 313.447 222.517 314.118 Z "
                  fill="rgb(230,230,230)"/>
            <path d=" M 222.737 332.534 L 172.551 345.285 C 169.908 345.957 167.22 344.358 166.549 341.715 C 165.877 339.071 167.476 336.384 170.119 335.712 L 220.305 322.961 C 222.948 322.289 225.636 323.888 226.307 326.531 C 226.979 329.175 225.38 331.862 222.737 332.534 L 222.737 332.534 Z "
                  fill="rgb(204,204,204)"/>
            <path d=" M 214.563 270.279 L 106.34 297.775 C 103.697 298.447 101.009 296.848 100.338 294.205 C 99.666 291.561 101.265 288.874 103.908 288.202 L 212.131 260.706 C 213.842 260.27 215.655 260.78 216.887 262.044 C 218.119 263.308 218.583 265.134 218.104 266.833 C 217.624 268.531 216.275 269.845 214.563 270.279 L 214.563 270.279 Z "
                  fill="rgb(230,230,230)"/>
            <path d=" M 218.972 287.63 L 110.749 315.127 C 108.105 315.798 105.418 314.2 104.746 311.556 C 104.074 308.913 105.673 306.225 108.317 305.553 L 216.54 278.057 C 219.183 277.385 221.871 278.984 222.542 281.628 C 223.214 284.271 221.615 286.959 218.972 287.63 Z "
                  fill="rgb(230,230,230)"/>
            <path d=" M 94.047 328.606 L 46.779 340.614 C 44.632 341.157 42.45 339.86 41.902 337.713 L 32.63 301.216 C 32.087 299.068 33.384 296.886 35.531 296.338 L 82.798 284.329 C 84.946 283.786 87.128 285.084 87.675 287.23 L 96.948 323.728 C 97.491 325.876 96.193 328.058 94.047 328.606 L 94.047 328.606 Z "
                  fill="rgb(230,230,230)"/>
            <path d=" M 113.82 385.543 C 115.455 388.369 118.475 390.106 121.74 390.1 C 125.005 390.093 128.018 388.343 129.642 385.511 C 131.266 382.678 131.253 379.194 129.61 376.373 C 129.354 375.945 129.067 375.538 128.75 375.153 L 136.43 320.413 L 136.66 318.773 L 138.22 307.603 L 138.45 305.993 L 137.6 306.033 L 122.72 306.713 L 118.73 306.893 L 118.23 317.083 L 115.4 374.373 C 112.356 377.285 111.703 381.902 113.82 385.543 Z "
                  fill="rgb(255,184,184)"/>
            <path d=" M 136.616 319.272 L 117.721 317.538 C 115.681 317.345 114.179 315.542 114.357 313.501 L 117.862 274.209 C 118.324 269.013 121.574 264.479 126.346 262.373 C 131.118 260.267 136.658 260.921 140.809 264.08 C 144.959 267.24 147.064 272.406 146.304 277.566 L 140.639 316.106 C 140.37 317.931 138.805 319.284 136.96 319.287 C 136.846 319.287 136.731 319.282 136.616 319.272 Z "
                  fill="rgb(108,99,255)"/>
            <path d=" M 122.296 287.526 C 118.369 276.402 122.325 264.024 131.975 257.238 C 139.1 252.363 148.85 250.613 159.35 263.113 C 180.35 288.113 185.85 315.613 185.85 315.613 L 142.85 322.613 C 142.85 322.613 128.225 304.739 122.296 287.526 Z "
                  fill="rgb(108,99,255)"/>
            <path d=" M 191.841 569.133 L 204.101 569.132 L 209.933 521.844 L 191.839 521.845 L 191.841 569.133 L 191.841 569.133 Z "
                  fill="rgb(255,184,184)"/>
            <path d=" M 227.745 580.515 L 189.215 580.517 L 189.214 565.63 L 212.858 565.629 C 221.08 565.628 227.745 572.293 227.745 580.515 L 227.745 580.515 L 227.745 580.515 Z "
                  fill="rgb(47,46,65)"/>
            <path d=" M 91.047 558.44 L 102.687 562.288 L 123.067 519.22 L 105.887 513.541 L 91.047 558.44 L 91.047 558.44 Z "
                  fill="rgb(255,184,184)"/>
            <path d=" M 121.564 580.517 L 84.98 568.425 L 89.652 554.29 L 112.102 561.71 C 119.908 564.29 124.145 572.71 121.564 580.517 L 121.564 580.517 L 121.564 580.517 Z "
                  fill="rgb(47,46,65)"/>
            <circle vector-effect="non-scaling-stroke" cx="149.28681089340753" cy="220.27869316406247"
                    r="24.561029999999995" fill="rgb(255,184,184)"/>
            <path d=" M 170.792 555.968 L 159.406 480.823 C 159.156 479.169 157.77 477.924 156.098 477.851 C 154.427 477.778 152.938 478.898 152.544 480.523 L 135.206 552.136 C 134.64 554.41 132.434 555.877 130.118 555.521 L 82.293 547.834 C 81.01 547.628 79.879 546.877 79.191 545.775 C 78.502 544.673 78.324 543.327 78.701 542.084 L 141.062 336.488 C 141.239 335.903 141.26 335.282 141.123 334.687 L 139.046 325.69 C 138.577 323.682 139.537 321.613 141.373 320.676 C 149.865 316.343 171.368 307.335 187.604 317.202 C 188.669 317.852 189.421 318.91 189.684 320.129 L 238.4 549.095 C 238.668 550.354 238.383 551.668 237.619 552.704 C 236.854 553.74 235.682 554.399 234.4 554.514 L 175.643 559.775 Q 175.439 559.793 175.239 559.793 C 173.016 559.789 171.128 558.165 170.792 555.968 Z "
                  fill="rgb(47,46,65)"/>
            <path d=" M 133.001 202.926 C 134.852 201.812 136.495 200.384 137.856 198.706 C 139.221 196.982 139.588 194.671 138.826 192.609 C 137.585 189.871 133.897 189.004 131.04 189.937 C 128.183 190.871 125.976 193.109 123.887 195.271 C 122.048 197.175 120.156 199.163 119.284 201.662 C 118.411 204.162 118.859 207.331 121.029 208.847 C 123.159 210.336 126.221 209.726 128.269 208.128 C 130.318 206.53 131.586 204.158 132.795 201.858 L 133.001 202.926 Z "
                  fill="rgb(47,46,65)"/>
            <path d=" M 124.682 195.928 C 124.546 189.007 116.658 184.045 109.845 185.271 C 103.033 186.497 97.797 192.306 95.175 198.712 C 89.637 212.248 93.795 227.692 99.131 241.308 C 104.467 254.924 111.071 268.747 110.292 283.351 C 109.221 299.433 99.427 313.636 84.778 320.355 C 92.466 323.84 101.656 320.24 108.116 314.807 C 122.464 302.742 128.003 281.262 121.277 263.763 C 117.96 255.132 112.114 247.748 107.55 239.707 C 102.987 231.665 99.638 222.189 101.994 213.248 C 104.351 204.307 114.378 197.065 122.951 200.529 L 124.682 195.928 Z "
                  fill="rgb(47,46,65)"/>
            <path d=" M 150.76 231.178 C 148.619 227.559 146.457 222.809 150.372 219.647 C 152.091 218.321 154.272 217.744 156.422 218.047 C 160.834 218.579 165.639 218.798 169.91 217.195 C 173.146 216.081 175.792 213.703 177.244 210.604 C 179.449 205.381 176.688 199.033 172.079 195.73 C 166.314 191.75 158.723 191.616 152.821 195.39 C 146.851 192.753 139.608 193.926 134.185 197.555 C 128.761 201.185 125.05 206.998 123.034 213.205 C 121.177 218.547 120.857 224.304 122.111 229.82 C 124.159 237.607 129.875 243.906 137.428 246.698 C 140.378 247.861 143.724 247.365 146.21 245.395 C 146.21 245.395 149.595 242.44 150.654 238.881 C 151.468 236.147 151.904 233.111 150.76 231.178 Z "
                  fill="rgb(47,46,65)"/>
            <path d=" M 475.752 581.739 L 54.752 581.739 C 54.2 581.739 53.752 581.291 53.752 580.739 C 53.752 580.187 54.2 579.739 54.752 579.739 L 475.752 579.739 C 476.304 579.739 476.752 580.187 476.752 580.739 C 476.752 581.291 476.304 581.739 475.752 581.739 Z "
                  fill="rgb(204,204,204)"/>
            <path d=" M 223.622 253.093 C 223.499 253.633 223.419 254.181 223.383 254.734 L 180.425 279.515 L 169.984 273.505 L 158.853 288.077 L 176.303 300.514 C 179.199 302.578 183.109 302.483 185.901 300.281 L 230.198 265.335 C 234.291 266.85 238.894 265.674 241.76 262.382 C 244.625 259.09 245.154 254.368 243.089 250.523 C 241.024 246.678 236.794 244.512 232.468 245.084 C 228.141 245.655 224.618 248.844 223.622 253.093 L 223.622 253.093 Z "
                  fill="rgb(255,184,184)"/>
            <path d=" M 178.989 280.689 L 165.105 298.683 C 164.306 299.719 163.095 300.356 161.789 300.428 C 160.482 300.499 159.209 299.998 158.301 299.056 L 142.584 282.735 C 137.151 278.497 136.173 270.66 140.398 265.217 C 144.624 259.774 152.458 258.778 157.911 262.991 L 177.624 274.013 C 178.766 274.652 179.573 275.757 179.835 277.039 C 180.097 278.321 179.788 279.653 178.989 280.689 L 178.989 280.689 Z "
                  fill="rgb(108,99,255)"/>
            <path d=" M 313.701 581.739 C 313.149 581.739 312.701 581.291 312.701 580.739 L 312.701 561.239 C 312.701 560.687 313.149 560.239 313.701 560.239 C 314.253 560.239 314.701 560.687 314.701 561.239 L 314.701 580.739 C 314.701 581.291 314.253 581.739 313.701 581.739 L 313.701 581.739 Z "
                  fill="rgb(204,204,204)"/>
            <path d=" M 313.7 573.038 C 313.462 573.039 313.231 572.953 313.05 572.797 L 301.05 562.498 C 300.776 562.266 300.648 561.905 300.713 561.553 C 300.779 561.2 301.028 560.909 301.367 560.791 C 301.706 560.673 302.082 560.745 302.352 560.98 L 314.352 571.28 C 314.67 571.552 314.784 571.994 314.639 572.386 C 314.493 572.778 314.119 573.039 313.7 573.038 L 313.7 573.038 Z "
                  fill="rgb(204,204,204)"/>
            <path d=" M 363.701 579.739 C 363.701 559.305 380.266 542.739 400.701 542.739 C 421.135 542.739 437.701 559.305 437.701 579.739"
                  fill="rgb(242,242,242)"/>
            <path d=" M 400.701 581.739 C 400.149 581.739 399.701 581.291 399.701 580.739 L 399.701 561.239 C 399.701 560.687 400.149 560.239 400.701 560.239 C 401.253 560.239 401.701 560.687 401.701 561.239 L 401.701 580.739 C 401.701 581.291 401.253 581.739 400.701 581.739 L 400.701 581.739 Z "
                  fill="rgb(204,204,204)"/>
            <path d=" M 400.7 573.038 C 400.462 573.039 400.231 572.953 400.05 572.797 L 388.05 562.498 C 387.63 562.138 387.582 561.507 387.942 561.088 C 388.302 560.669 388.933 560.621 389.352 560.98 L 401.352 571.28 C 401.67 571.552 401.784 571.994 401.639 572.386 C 401.493 572.778 401.119 573.039 400.7 573.038 L 400.7 573.038 Z "
                  fill="rgb(204,204,204)"/>
        </g>
        <g>
            <path d="M 380.241 19.13 L 607.179 19.13 C 620.006 19.13 630.42 29.544 630.42 42.371 L 630.42 269.309 C 630.42 282.136 620.006 292.55 607.179 292.55 L 380.241 292.55 C 367.414 292.55 357 282.136 357 269.309 L 357 42.371 C 357 29.544 367.414 19.13 380.241 19.13 Z"
                  style="stroke:none;fill:#007ACC;stroke-miterlimit:10;"/>
            <path d=" M 411.528 155.638 L 411.528 166.78 L 447.073 166.78 L 447.073 267.945 L 472.295 267.945 L 472.295 166.78 L 507.84 166.78 L 507.84 155.844 C 507.84 149.692 507.84 144.702 507.566 144.565 C 507.566 144.36 485.898 144.292 459.581 144.292 L 411.733 144.497 L 411.733 155.707 L 411.528 155.638 L 411.528 155.638 Z  M 571.273 144.223 C 578.245 145.864 583.577 149.008 588.362 153.998 C 590.891 156.732 594.65 161.517 594.924 162.747 C 594.924 163.157 583.099 171.155 575.921 175.598 C 575.648 175.803 574.554 174.641 573.461 172.864 C 569.906 167.806 566.283 165.618 560.61 165.208 C 552.407 164.661 546.939 168.968 546.939 176.145 C 546.939 178.332 547.349 179.563 548.169 181.34 C 550.015 185.099 553.433 187.355 564.028 192.003 C 583.577 200.411 592.053 205.948 597.18 213.877 C 602.99 222.763 604.289 236.707 600.392 247.166 C 596.018 258.581 585.354 266.305 570.111 268.834 C 565.326 269.654 554.39 269.518 549.263 268.629 C 538.326 266.578 527.868 261.11 521.443 254.069 C 518.913 251.335 514.06 244.021 514.334 243.543 L 516.931 241.902 L 527.184 235.955 L 534.908 231.444 L 536.686 233.836 C 538.941 237.391 544 242.176 546.939 243.816 C 555.825 248.396 567.719 247.781 573.597 242.449 C 576.126 240.125 577.22 237.664 577.22 234.246 C 577.22 231.102 576.742 229.667 575.169 227.274 C 572.982 224.267 568.607 221.806 556.303 216.338 C 542.154 210.322 536.139 206.494 530.534 200.616 C 527.321 197.061 524.382 191.525 523.015 186.945 C 521.989 182.98 521.648 173.274 522.605 169.378 C 525.544 155.707 535.865 146.137 550.63 143.403 C 555.415 142.446 566.693 142.856 571.41 144.087 L 571.273 144.223 L 571.273 144.223 Z "
                  fill="rgb(255,255,255)"/>
        </g>
    </g>
</svg>