<?xml version="1.0" encoding="UTF-8" standalone="no"?>
<!-- Generator: Gravit.io -->
<svg xmlns="http://www.w3.org/2000/svg" xmlns:xlink="http://www.w3.org/1999/xlink" style="isolation:isolate"
     viewBox="0 0 918.9 583.739" width="918.9pt" height="583.739pt">
    <defs>
        <clipPath id="_clipPath_C2cVbzXdFsnIiNPvRtX0ZQfmINverEjP">
            <rect width="918.9" height="583.739"/>
        </clipPath>
    </defs>
    <g clip-path="url(#_clipPath_C2cVbzXdFsnIiNPvRtX0ZQfmINverEjP)">
        <g>
            <path d=" M 914.901 367.518 C 914.901 319.255 875.749 204.727 827.453 204.727 C 779.156 204.727 740.004 319.255 740.004 367.518 C 740.037 415.792 779.179 454.907 827.453 454.907 C 875.726 454.907 914.868 415.792 914.901 367.518 L 914.901 367.518 Z "
                  fill="rgb(108,99,255)" fill-opacity="0.5"/>
            <path d=" M 827.453 580.126 C 827.643 580.126 827.826 580.05 827.961 579.916 C 828.096 579.781 828.172 579.598 828.172 579.407 L 828.172 278.118 C 828.17 277.722 827.849 277.402 827.453 277.402 C 827.056 277.402 826.735 277.722 826.733 278.118 L 826.733 579.407 C 826.734 579.598 826.809 579.781 826.944 579.916 C 827.079 580.05 827.262 580.126 827.453 580.126 Z "
                  fill="rgb(204,204,204)"/>
            <path d=" M 827.453 336.284 C 827.643 336.285 827.826 336.209 827.961 336.074 L 862.573 301.486 C 862.854 301.205 862.853 300.75 862.572 300.469 C 862.292 300.189 861.837 300.189 861.556 300.47 L 826.944 335.058 C 826.739 335.263 826.677 335.573 826.788 335.841 C 826.9 336.11 827.162 336.285 827.453 336.284 L 827.453 336.284 Z "
                  fill="rgb(204,204,204)"/>
            <path d=" M 827.453 396.164 C 827.743 396.164 828.005 395.989 828.117 395.72 C 828.228 395.452 828.167 395.143 827.961 394.937 L 769.997 337.012 C 769.717 336.731 769.262 336.731 768.981 337.012 C 768.7 337.292 768.7 337.747 768.98 338.028 L 826.944 395.953 C 827.079 396.088 827.262 396.164 827.453 396.164 L 827.453 396.164 Z "
                  fill="rgb(204,204,204)"/>
            <path d=" M 903.754 581 L 617.754 581 C 617.202 581 616.754 580.552 616.754 580 C 616.754 579.448 617.202 579 617.754 579 L 903.754 579 C 904.306 579 904.754 579.448 904.754 580 C 904.754 580.552 904.306 581 903.754 581 Z "
                  fill="rgb(204,204,204)"/>
            <path d=" M 701.838 568.226 L 689.578 568.225 L 683.746 520.937 L 701.84 520.938 L 701.838 568.226 L 701.838 568.226 Z "
                  fill="rgb(255,184,184)"/>
            <path d=" M 680.821 564.722 L 704.465 564.722 L 704.465 579.609 L 665.934 579.609 L 665.934 579.609 C 665.934 575.661 667.503 571.874 670.294 569.082 C 673.086 566.29 676.873 564.722 680.821 564.722 L 680.821 564.722 Z "
                  fill="rgb(47,46,65)"/>
            <path d=" M 790.793 554.338 L 779.642 559.432 L 754.688 518.842 L 771.147 511.325 L 790.793 554.338 L 790.793 554.338 Z "
                  fill="rgb(255,184,184)"/>
            <path d=" M 770.221 559.884 L 791.728 550.06 L 797.913 563.602 L 762.865 579.61 L 762.865 579.61 C 761.224 576.018 761.078 571.922 762.457 568.223 C 763.837 564.524 766.629 561.524 770.221 559.884 L 770.221 559.884 Z "
                  fill="rgb(47,46,65)"/>
            <path d=" M 701.057 555.757 L 689.345 555.757 C 686.989 555.748 685.035 553.932 684.856 551.583 L 678.469 381.024 C 678.373 379.701 678.866 378.403 679.815 377.477 C 680.765 376.551 682.075 376.091 683.395 376.219 L 751.13 383.413 C 753.402 383.635 755.148 385.524 755.192 387.806 L 756.611 463.042 C 756.619 463.45 756.698 463.854 756.845 464.235 L 784.63 536.288 C 785.064 537.412 785.028 538.664 784.532 539.762 C 784.035 540.859 783.118 541.712 781.987 542.129 L 770.119 546.502 C 767.986 547.287 765.602 546.359 764.561 544.338 L 730.429 477.969 C 730.243 477.608 730.107 477.223 730.025 476.826 L 724.194 448.732 C 723.845 447.049 722.325 445.869 720.609 445.947 C 718.892 446.025 717.485 447.337 717.29 449.045 L 705.528 551.768 C 705.268 554.041 703.344 555.757 701.057 555.757 Z "
                  fill="rgb(47,46,65)"/>
            <circle vector-effect="non-scaling-stroke" cx="706.8884689310236" cy="223.10303316406248"
                    r="24.56102999999996" fill="rgb(255,184,184)"/>
            <path d=" M 723.822 396.587 C 702.096 396.588 685.085 387.543 678.926 383.757 L 678.926 383.757 C 677.502 382.882 676.686 381.285 676.809 379.619 L 682.782 294.246 C 683.559 282.563 689.82 271.937 699.663 265.594 C 709.065 259.371 720.857 257.966 731.458 261.805 C 733.765 262.601 735.944 263.73 737.925 265.155 C 751.155 275.01 757.532 289.849 755.42 305.868 C 751.04 339.086 756.002 383.897 756.582 388.897 L 756.624 389.257 L 756.295 389.409 C 746.122 394.137 735.039 396.587 723.822 396.587 Z "
                  fill="rgb(108,99,255)"/>
            <path d=" M 755.091 408.782 C 757.468 406.993 758.931 404.242 759.086 401.27 C 759.241 398.298 758.071 395.41 755.892 393.384 L 770.303 360.684 L 751.995 363.787 L 741.116 394.363 C 737.883 398.337 738.134 404.101 741.699 407.78 C 745.264 411.458 751.017 411.889 755.091 408.782 Z "
                  fill="rgb(255,184,184)"/>
            <path d=" M 756.469 388.583 C 755.209 388.583 754.007 388.053 753.157 387.123 L 747.784 381.261 C 746.722 380.096 746.343 378.46 746.786 376.946 L 759.091 335.299 L 740.369 295.982 C 739.548 294.254 739.347 292.295 739.799 290.436 C 740.616 287.096 743.406 284.604 746.818 284.168 C 750.229 283.732 753.556 285.443 755.187 288.47 L 780.496 329.538 C 782.495 332.778 782.754 336.799 781.186 340.268 L 760.576 385.933 C 759.955 387.313 758.681 388.288 757.186 388.525 C 756.949 388.563 756.709 388.582 756.469 388.583 Z "
                  fill="rgb(108,99,255)"/>
            <path d=" M 727.125 244.757 C 724.578 245.193 722.482 241.648 722.165 239.154 C 721.848 236.661 722.757 234.274 722.856 231.796 C 722.955 229.319 721.787 226.308 719.214 225.574 C 716.517 224.804 714.016 226.967 711.255 226.707 C 707.407 226.345 705.475 221.841 705.009 218.199 C 704.543 214.556 704.176 210.242 700.844 208.164 C 697.522 206.094 693.412 207.6 689.595 207.665 C 683.143 207.774 676.575 202.854 675.068 196.782 C 676.678 197.247 678.398 196.558 679.242 195.111 C 679.907 193.567 679.449 191.77 678.128 190.732 L 685.441 194.313 C 684.442 192.279 685.951 189.962 688.029 189.192 C 690.106 188.422 692.523 188.768 694.816 189.124 C 706.267 190.903 719.529 190.026 727.125 198.757 C 732.386 204.804 736.716 216.311 736.125 223.757 C 735.533 231.202 727.125 244.757 727.125 244.757 Z "
                  fill="rgb(47,46,65)"/>
            <path d=" M 596.892 286.627 C 599.478 285.154 602.583 284.902 605.372 285.939 C 608.162 286.976 610.349 289.196 611.345 292 L 647.078 291.743 L 636.967 307.318 L 604.584 305.175 C 599.654 306.566 594.462 304.05 592.499 299.318 C 590.537 294.586 592.424 289.134 596.892 286.627 L 596.892 286.627 Z "
                  fill="rgb(255,184,184)"/>
            <path d=" M 615.485 303.603 C 615.228 302.37 615.502 301.085 616.239 300.063 L 620.882 293.608 C 621.807 292.33 623.331 291.627 624.903 291.751 L 666.703 290 L 702.858 268.96 C 704.382 267.803 706.258 267.207 708.171 267.271 C 711.608 267.39 714.616 269.613 715.739 272.864 C 716.861 276.115 715.865 279.721 713.233 281.934 L 678.189 315.086 C 675.425 317.704 671.541 318.777 667.825 317.949 L 618.917 307.084 C 617.439 306.758 616.225 305.709 615.688 304.294 C 615.603 304.069 615.535 303.839 615.485 303.603 Z "
                  fill="rgb(108,99,255)"/>
            <path d=" M 276.701 577 C 276.701 556.565 293.266 540 313.701 540 C 334.135 540 350.701 556.565 350.701 577"
                  fill="rgb(107,100,255)" fill-opacity="0.5"/>
            <path d=" M 253.324 349.905 L 44.679 402.915 C 39.228 404.293 33.689 400.999 32.298 395.551 L 1.873 275.794 C 0.863 271.8 3.276 267.742 7.268 266.723 L 221.067 212.404 C 225.13 211.377 229.258 213.832 230.294 217.893 L 260.688 337.525 C 262.067 342.976 258.772 348.515 253.324 349.905 L 253.324 349.905 Z "
                  fill="rgb(242,242,242)"/>
            <path d=" M 51.744 390.61 L 241.243 342.465 C 246.53 341.122 249.727 335.747 248.384 330.46 L 225.043 238.588 C 223.699 233.301 218.324 230.104 213.037 231.447 L 23.539 279.592 C 18.252 280.936 15.054 286.311 16.398 291.598 L 39.739 383.469 C 41.082 388.757 46.457 391.954 51.744 390.61 Z "
                  fill="rgb(255,255,255)"/>
            <path d=" M 229.982 217.238 L 1.591 275.264 L 0.314 270.238 C -1.067 264.768 2.24 259.212 7.706 257.818 L 216.281 204.827 C 221.75 203.442 227.308 206.746 228.705 212.212 L 229.982 217.238 Z "
                  fill="rgb(230,230,230)"/>
            <circle vector-effect="non-scaling-stroke" cx="17.7050408934077" cy="263.2400631640625"
                    r="2.6443000000000003" fill="rgb(255,255,255)"/>
            <circle vector-effect="non-scaling-stroke" cx="27.433100893407698" cy="260.7685431640625"
                    r="2.644300000000001" fill="rgb(255,255,255)"/>
            <circle vector-effect="non-scaling-stroke" cx="37.161160893407725" cy="258.2970231640625"
                    r="2.644300000000001" fill="rgb(255,255,255)"/>
            <path d=" M 222.517 311.379 L 52.068 354.685 C 50.358 355.119 48.546 354.608 47.314 353.345 C 46.083 352.081 45.619 350.256 46.098 348.558 C 46.577 346.86 47.925 345.546 49.636 345.112 L 220.084 301.806 C 222.728 301.134 225.415 302.733 226.087 305.377 C 226.759 308.02 225.16 310.708 222.517 311.379 Z "
                  fill="rgb(230,230,230)"/>
            <path d=" M 222.737 329.795 L 172.551 342.546 C 169.908 343.218 167.22 341.619 166.549 338.976 C 165.877 336.332 167.476 333.645 170.119 332.973 L 220.305 320.222 C 222.948 319.55 225.636 321.149 226.307 323.792 C 226.979 326.436 225.38 329.123 222.737 329.795 L 222.737 329.795 Z "
                  fill="rgb(204,204,204)"/>
            <path d=" M 214.563 267.54 L 106.34 295.036 C 103.697 295.708 101.009 294.109 100.338 291.466 C 99.666 288.822 101.265 286.135 103.908 285.463 L 212.131 257.967 C 213.842 257.531 215.655 258.041 216.887 259.305 C 218.119 260.569 218.583 262.395 218.104 264.094 C 217.624 265.792 216.275 267.106 214.563 267.54 L 214.563 267.54 Z "
                  fill="rgb(230,230,230)"/>
            <path d=" M 218.972 284.891 L 110.749 312.388 C 108.105 313.059 105.418 311.461 104.746 308.817 C 104.074 306.174 105.673 303.486 108.317 302.814 L 216.54 275.318 C 219.183 274.646 221.871 276.245 222.542 278.889 C 223.214 281.532 221.615 284.22 218.972 284.891 Z "
                  fill="rgb(230,230,230)"/>
            <path d=" M 94.047 325.866 L 46.779 337.875 C 44.632 338.418 42.45 337.121 41.902 334.974 L 32.63 298.477 C 32.087 296.329 33.384 294.147 35.531 293.599 L 82.798 281.59 C 84.946 281.047 87.128 282.345 87.675 284.491 L 96.948 320.989 C 97.491 323.137 96.193 325.319 94.047 325.866 L 94.047 325.866 Z "
                  fill="rgb(230,230,230)"/>
            <path d=" M 113.82 382.804 C 115.455 385.63 118.475 387.367 121.74 387.361 C 125.005 387.354 128.018 385.604 129.642 382.772 C 131.266 379.939 131.253 376.455 129.61 373.634 C 129.354 373.206 129.067 372.799 128.75 372.414 L 136.43 317.674 L 136.66 316.034 L 138.22 304.864 L 138.45 303.254 L 137.6 303.294 L 122.72 303.974 L 118.73 304.154 L 118.23 314.344 L 115.4 371.634 C 112.356 374.546 111.703 379.163 113.82 382.804 Z "
                  fill="rgb(255,184,184)"/>
            <path d=" M 136.616 316.533 L 117.721 314.799 C 115.681 314.606 114.179 312.803 114.357 310.762 L 117.862 271.47 C 118.324 266.274 121.574 261.74 126.346 259.634 C 131.118 257.528 136.658 258.181 140.809 261.341 C 144.959 264.501 147.064 269.667 146.304 274.827 L 140.639 313.367 C 140.37 315.192 138.805 316.545 136.96 316.548 C 136.846 316.548 136.731 316.543 136.616 316.533 Z "
                  fill="rgb(108,99,255)"/>
            <path d=" M 122.296 284.787 C 118.369 273.663 122.325 261.285 131.975 254.499 C 139.1 249.624 148.85 247.874 159.35 260.374 C 180.35 285.374 185.85 312.874 185.85 312.874 L 142.85 319.874 C 142.85 319.874 128.225 301.999 122.296 284.787 Z "
                  fill="rgb(108,99,255)"/>
            <path d=" M 191.841 566.394 L 204.101 566.393 L 209.933 519.105 L 191.839 519.106 L 191.841 566.394 L 191.841 566.394 Z "
                  fill="rgb(255,184,184)"/>
            <path d=" M 227.745 577.776 L 189.215 577.778 L 189.214 562.891 L 212.858 562.89 C 221.08 562.889 227.745 569.554 227.745 577.776 L 227.745 577.776 L 227.745 577.776 Z "
                  fill="rgb(47,46,65)"/>
            <path d=" M 91.047 555.701 L 102.687 559.549 L 123.067 516.481 L 105.887 510.802 L 91.047 555.701 L 91.047 555.701 Z "
                  fill="rgb(255,184,184)"/>
            <path d=" M 121.564 577.778 L 84.98 565.686 L 89.652 551.551 L 112.102 558.971 C 119.908 561.551 124.145 569.971 121.564 577.778 L 121.564 577.778 L 121.564 577.778 Z "
                  fill="rgb(47,46,65)"/>
            <circle vector-effect="non-scaling-stroke" cx="149.28681089340753" cy="217.5396531640624"
                    r="24.561029999999995" fill="rgb(255,184,184)"/>
            <path d=" M 170.792 553.229 L 159.406 478.084 C 159.156 476.43 157.77 475.185 156.098 475.112 C 154.427 475.039 152.938 476.159 152.544 477.784 L 135.206 549.397 C 134.64 551.67 132.434 553.138 130.118 552.781 L 82.293 545.095 C 81.01 544.889 79.879 544.138 79.191 543.036 C 78.502 541.934 78.324 540.588 78.701 539.345 L 141.062 333.749 C 141.239 333.164 141.26 332.543 141.123 331.948 L 139.046 322.951 C 138.577 320.943 139.537 318.874 141.373 317.937 C 149.865 313.604 171.368 304.596 187.604 314.463 C 188.669 315.113 189.421 316.171 189.684 317.39 L 238.4 546.356 C 238.668 547.615 238.383 548.929 237.619 549.965 C 236.854 551.001 235.682 551.66 234.4 551.775 L 175.643 557.036 Q 175.439 557.054 175.239 557.054 C 173.016 557.05 171.128 555.426 170.792 553.229 Z "
                  fill="rgb(47,46,65)"/>
            <path d=" M 133.001 200.187 C 134.852 199.073 136.495 197.645 137.856 195.967 C 139.221 194.243 139.588 191.932 138.826 189.87 C 137.585 187.132 133.897 186.265 131.04 187.198 C 128.183 188.132 125.976 190.37 123.887 192.532 C 122.048 194.436 120.156 196.424 119.284 198.923 C 118.411 201.423 118.859 204.592 121.029 206.108 C 123.159 207.597 126.221 206.987 128.269 205.389 C 130.318 203.791 131.586 201.419 132.795 199.119 L 133.001 200.187 Z "
                  fill="rgb(47,46,65)"/>
            <path d=" M 124.682 193.189 C 124.546 186.268 116.658 181.306 109.845 182.532 C 103.033 183.758 97.797 189.567 95.175 195.973 C 89.637 209.509 93.795 224.953 99.131 238.569 C 104.467 252.185 111.071 266.008 110.292 280.612 C 109.221 296.694 99.427 310.897 84.778 317.616 C 92.466 321.101 101.656 317.501 108.116 312.068 C 122.464 300.003 128.003 278.523 121.277 261.024 C 117.96 252.393 112.114 245.009 107.55 236.968 C 102.987 228.926 99.638 219.45 101.994 210.509 C 104.351 201.568 114.378 194.326 122.951 197.79 L 124.682 193.189 Z "
                  fill="rgb(47,46,65)"/>
            <path d=" M 150.76 228.439 C 148.619 224.82 146.457 220.07 150.372 216.908 C 152.091 215.582 154.272 215.005 156.422 215.308 C 160.834 215.84 165.639 216.059 169.91 214.456 C 173.146 213.342 175.792 210.964 177.244 207.865 C 179.449 202.642 176.688 196.294 172.079 192.991 C 166.314 189.011 158.723 188.877 152.821 192.651 C 146.851 190.014 139.608 191.187 134.185 194.816 C 128.761 198.446 125.05 204.259 123.034 210.466 C 121.177 215.808 120.857 221.565 122.111 227.08 C 124.159 234.868 129.875 241.167 137.428 243.959 C 140.378 245.122 143.724 244.626 146.21 242.656 C 146.21 242.656 149.595 239.701 150.654 236.142 C 151.468 233.408 151.904 230.372 150.76 228.439 Z "
                  fill="rgb(47,46,65)"/>
            <path d=" M 475.752 579 L 54.752 579 C 54.2 579 53.752 578.552 53.752 578 C 53.752 577.448 54.2 577 54.752 577 L 475.752 577 C 476.304 577 476.752 577.448 476.752 578 C 476.752 578.552 476.304 579 475.752 579 Z "
                  fill="rgb(204,204,204)"/>
            <path d=" M 223.622 250.354 C 223.499 250.894 223.419 251.442 223.383 251.994 L 180.425 276.776 L 169.984 270.766 L 158.853 285.338 L 176.303 297.775 C 179.199 299.839 183.109 299.744 185.901 297.541 L 230.198 262.596 C 234.291 264.111 238.894 262.935 241.76 259.643 C 244.625 256.351 245.154 251.629 243.089 247.784 C 241.024 243.939 236.794 241.773 232.468 242.345 C 228.141 242.916 224.618 246.105 223.622 250.354 L 223.622 250.354 Z "
                  fill="rgb(255,184,184)"/>
            <path d=" M 178.989 277.95 L 165.105 295.944 C 164.306 296.98 163.095 297.617 161.789 297.688 C 160.482 297.76 159.209 297.259 158.301 296.317 L 142.584 279.996 C 137.151 275.758 136.173 267.921 140.398 262.478 C 144.624 257.035 152.458 256.039 157.911 260.251 L 177.624 271.274 C 178.766 271.913 179.573 273.018 179.835 274.3 C 180.097 275.582 179.788 276.914 178.989 277.95 L 178.989 277.95 Z "
                  fill="rgb(108,99,255)"/>
            <path d=" M 313.701 579 C 313.149 579 312.701 578.552 312.701 578 L 312.701 558.5 C 312.701 557.948 313.149 557.5 313.701 557.5 C 314.253 557.5 314.701 557.948 314.701 558.5 L 314.701 578 C 314.701 578.552 314.253 579 313.701 579 L 313.701 579 Z "
                  fill="rgb(204,204,204)"/>
            <path d=" M 313.7 570.299 C 313.462 570.3 313.231 570.214 313.05 570.058 L 301.05 559.759 C 300.776 559.527 300.648 559.166 300.713 558.813 C 300.779 558.461 301.028 558.17 301.367 558.052 C 301.706 557.934 302.082 558.006 302.352 558.241 L 314.352 568.541 C 314.67 568.813 314.784 569.255 314.639 569.647 C 314.493 570.039 314.119 570.3 313.7 570.299 L 313.7 570.299 Z "
                  fill="rgb(204,204,204)"/>
            <path d=" M 363.701 577 C 363.701 556.565 380.266 540 400.701 540 C 421.135 540 437.701 556.565 437.701 577"
                  fill="rgb(107,100,255)" fill-opacity="0.5"/>
            <path d=" M 400.701 579 C 400.149 579 399.701 578.552 399.701 578 L 399.701 558.5 C 399.701 557.948 400.149 557.5 400.701 557.5 C 401.253 557.5 401.701 557.948 401.701 558.5 L 401.701 578 C 401.701 578.552 401.253 579 400.701 579 L 400.701 579 Z "
                  fill="rgb(204,204,204)"/>
            <path d=" M 400.7 570.299 C 400.462 570.3 400.231 570.214 400.05 570.058 L 388.05 559.759 C 387.63 559.399 387.582 558.768 387.942 558.349 C 388.302 557.93 388.933 557.881 389.352 558.241 L 401.352 568.541 C 401.67 568.813 401.784 569.255 401.639 569.647 C 401.493 570.039 401.119 570.3 400.7 570.299 L 400.7 570.299 Z "
                  fill="rgb(204,204,204)"/>
        </g>
        <g>
            <path d="M 380.241 19.13 L 607.179 19.13 C 620.006 19.13 630.42 29.544 630.42 42.371 L 630.42 269.309 C 630.42 282.136 620.006 292.55 607.179 292.55 L 380.241 292.55 C 367.414 292.55 357 282.136 357 269.309 L 357 42.371 C 357 29.544 367.414 19.13 380.241 19.13 Z"
                  style="stroke:none;fill:#007ACC;stroke-miterlimit:10;"/>
            <path d=" M 411.528 155.638 L 411.528 166.78 L 447.073 166.78 L 447.073 267.945 L 472.295 267.945 L 472.295 166.78 L 507.84 166.78 L 507.84 155.844 C 507.84 149.692 507.84 144.702 507.566 144.565 C 507.566 144.36 485.898 144.292 459.581 144.292 L 411.733 144.497 L 411.733 155.707 L 411.528 155.638 L 411.528 155.638 Z  M 571.273 144.223 C 578.245 145.864 583.577 149.008 588.362 153.998 C 590.891 156.732 594.65 161.517 594.924 162.747 C 594.924 163.157 583.099 171.155 575.921 175.598 C 575.648 175.803 574.554 174.641 573.461 172.864 C 569.906 167.806 566.283 165.618 560.61 165.208 C 552.407 164.661 546.939 168.968 546.939 176.145 C 546.939 178.332 547.349 179.563 548.169 181.34 C 550.015 185.099 553.433 187.355 564.028 192.003 C 583.577 200.411 592.053 205.948 597.18 213.877 C 602.99 222.763 604.289 236.707 600.392 247.166 C 596.018 258.581 585.354 266.305 570.111 268.834 C 565.326 269.654 554.39 269.518 549.263 268.629 C 538.326 266.578 527.868 261.11 521.443 254.069 C 518.913 251.335 514.06 244.021 514.334 243.543 L 516.931 241.902 L 527.184 235.955 L 534.908 231.444 L 536.686 233.836 C 538.941 237.391 544 242.176 546.939 243.816 C 555.825 248.396 567.719 247.781 573.597 242.449 C 576.126 240.125 577.22 237.664 577.22 234.246 C 577.22 231.102 576.742 229.667 575.169 227.274 C 572.982 224.267 568.607 221.806 556.303 216.338 C 542.154 210.322 536.139 206.494 530.534 200.616 C 527.321 197.061 524.382 191.525 523.015 186.945 C 521.989 182.98 521.648 173.274 522.605 169.378 C 525.544 155.707 535.865 146.137 550.63 143.403 C 555.415 142.446 566.693 142.856 571.41 144.087 L 571.273 144.223 L 571.273 144.223 Z "
                  fill="rgb(255,255,255)"/>
        </g>
    </g>
</svg>