<?xml version="1.0" encoding="UTF-8" standalone="no"?><!-- Generator: Gravit.io -->
<svg xmlns="http://www.w3.org/2000/svg" xmlns:xlink="http://www.w3.org/1999/xlink" style="isolation:isolate"
     viewBox="0 0 756.96 473.36" width="756.96pt" height="473.36pt">
    <defs>
        <clipPath id="_clipPath_o423wXQMxElmL3kPoZQvoWS8yNTnjb0x">
            <rect x="0" y="0" width="756.96" height="473.36"/>
        </clipPath>
    </defs>
    <g clip-path="url(#_clipPath_o423wXQMxElmL3kPoZQvoWS8yNTnjb0x)">
        <g>
            <path d=" M 654.23 315.877 C 652.674 313.34 652.321 310.245 653.266 307.423 C 654.212 304.601 656.359 302.343 659.129 301.257 L 657.708 265.55 L 673.605 275.148 L 672.517 307.584 C 674.068 312.467 671.722 317.738 667.057 319.853 C 662.391 321.969 656.881 320.261 654.23 315.877 L 654.23 315.877 Z "
                  fill="rgb(160,97,106)"/>
            <path d=" M 675.447 292.729 L 661.315 294.987 C 660.116 295.179 658.891 294.878 657.917 294.153 C 656.944 293.427 656.304 292.34 656.145 291.136 L 650.166 246.107 L 620.621 205.675 C 618.41 202.648 617.548 198.842 618.24 195.158 C 618.931 191.475 621.115 188.24 624.273 186.222 L 624.272 186.222 C 630.592 182.184 638.988 184.033 643.026 190.352 L 673.2 237.57 L 679.206 287.751 C 679.245 288.072 679.249 288.395 679.219 288.716 C 679.028 290.759 677.475 292.412 675.447 292.729 L 675.447 292.729 Z "
                  fill="rgb(108,105,160)"/>
            <path d=" M 626.725 459.863 L 614.465 459.863 L 608.633 412.575 L 626.727 412.576 L 626.725 459.863 L 626.725 459.863 Z "
                  fill="rgb(160,97,106)"/>
            <path d=" M 605.708 456.36 L 629.352 456.36 L 629.352 471.247 L 590.821 471.247 L 590.821 471.247 C 590.821 463.025 597.486 456.36 605.708 456.36 L 605.708 456.36 Z "
                  fill="rgb(47,46,65)"/>
            <path d=" M 678.45 438.879 L 669.29 447.027 L 635.145 413.36 L 647.021 403.547 L 678.45 438.879 L 678.45 438.879 Z "
                  fill="rgb(160,97,106)"/>
            <path d=" M 660.419 450.23 L 678.085 434.516 L 687.979 445.639 L 659.191 471.248 L 659.191 471.248 C 656.566 468.298 655.222 464.426 655.452 460.485 C 655.682 456.543 657.469 452.854 660.419 450.23 L 660.419 450.23 Z "
                  fill="rgb(47,46,65)"/>
            <path d=" M 503.523 189.457 C 506.421 188.782 509.47 189.425 511.849 191.213 C 514.227 193.002 515.691 195.752 515.847 198.724 L 550.175 208.654 L 536.046 220.705 L 505.614 209.427 C 500.492 209.357 496.232 205.466 495.699 200.371 C 495.165 195.276 498.526 190.587 503.523 189.457 L 503.523 189.457 Z "
                  fill="rgb(160,97,106)"/>
            <circle vector-effect="non-scaling-stroke" cx="610.54695" cy="130.6278" r="24.56102999999996"
                    fill="rgb(160,97,106)"/>
            <path d=" M 628.23 451.009 L 611.166 449.643 C 608.884 449.462 607.102 447.595 607.027 445.306 L 602.265 301.473 C 602.184 299.171 603.858 297.181 606.141 296.868 L 640.16 292.121 C 641.582 291.922 643.013 292.414 644.012 293.444 C 645.012 294.475 645.46 295.92 645.218 297.335 L 632.2 373.584 C 632.164 373.793 632.147 374.006 632.15 374.218 L 633.089 446.464 C 633.104 447.668 632.637 448.828 631.79 449.685 C 630.944 450.542 629.79 451.024 628.586 451.023 C 628.467 451.023 628.349 451.018 628.23 451.009 Z "
                  fill="rgb(47,46,65)"/>
            <path d=" M 650.084 433.758 L 591.465 368.519 C 590.612 367.57 590.203 366.304 590.337 365.035 L 597.741 295.63 C 597.993 293.226 600.103 291.453 602.514 291.617 L 638.49 294.015 C 639.884 294.108 641.156 294.843 641.932 296.005 C 642.708 297.166 642.901 298.623 642.454 299.946 L 620.899 363.714 C 620.477 364.953 620.784 366.324 621.696 367.264 L 671.488 418.868 C 672.444 419.859 672.894 421.233 672.709 422.597 C 672.524 423.962 671.725 425.166 670.539 425.867 L 655.72 434.624 C 653.874 435.71 651.519 435.348 650.084 433.758 L 650.084 433.758 Z "
                  fill="rgb(47,46,65)"/>
            <path d=" M 606.145 170.36 C 606.145 170.36 621.145 157.36 628.145 164.36 C 628.145 164.36 660.645 184.86 646.645 240.86 C 646.645 240.86 658.645 294.86 653.645 296.86 C 648.645 298.86 598.145 306.36 594.145 300.36 C 590.145 294.36 588.145 202.36 606.145 170.36 Z "
                  fill="rgb(108,105,160)"/>
            <path d=" M 518.783 216.9 L 521.105 202.778 C 521.302 201.58 521.975 200.512 522.97 199.818 C 523.966 199.123 525.2 198.86 526.392 199.089 L 571.005 207.639 L 618.699 192.379 C 622.269 191.237 626.153 191.621 629.429 193.441 C 632.706 195.261 635.085 198.355 636.002 201.989 L 636.003 201.988 C 637.838 209.259 633.432 216.642 626.16 218.477 L 571.828 232.191 L 522.32 222.039 C 522.003 221.974 521.695 221.876 521.4 221.746 C 519.522 220.919 518.444 218.924 518.783 216.9 Z "
                  fill="rgb(108,105,160)"/>
            <path d=" M 621.086 150.551 C 623.331 145.356 625.23 138.438 620.925 134.765 C 618.428 132.635 614.831 132.631 611.56 132.366 C 602.343 131.619 592.854 127.378 588.349 119.302 C 583.844 111.226 586.36 99.218 594.859 95.574 C 600.588 93.118 607.157 94.791 613.154 96.492 L 631.16 101.598 C 636.51 103.115 642.127 104.788 645.978 108.799 C 652.121 115.197 651.662 126.011 646.783 133.417 C 641.904 140.824 634.557 148.548 626.145 151.36 L 621.086 150.551 Z "
                  fill="rgb(47,46,65)"/>
            <path d=" M 755.96 473.36 L 507.96 473.36 C 507.408 473.36 506.96 472.912 506.96 472.36 C 506.96 471.808 507.408 471.36 507.96 471.36 L 755.96 471.36 C 756.513 471.36 756.96 471.808 756.96 472.36 C 756.96 472.912 756.513 473.36 755.96 473.36 Z "
                  fill="rgb(63,61,86)"/>
            <path d=" M 494 0 L 7 0 C 3.136 0.004 0.004 3.136 0 7 L 0 367 C 0.004 370.864 3.136 373.996 7 374 L 494 374 C 497.864 373.996 500.996 370.864 501 367 L 501 7 C 500.996 3.136 497.864 0.004 494 0 L 494 0 Z  M 499 367 C 498.999 369.761 496.761 371.999 494 372 L 7 372 C 4.239 371.999 2.001 369.761 2 367 L 2 7 C 2.001 4.239 4.239 2.001 7 2 L 494 2 C 496.761 2.001 498.999 4.239 499 7 L 499 367 Z "
                  fill="rgb(63,61,86)"/>
            <rect x="1" y="28.04" width="499" height="2" transform="matrix(1,0,0,1,0,0)" fill="rgb(63,61,86)"/>
            <circle vector-effect="non-scaling-stroke" cx="18" cy="15" r="6" fill="rgb(63,61,86)"/>
            <circle vector-effect="non-scaling-stroke" cx="35.25" cy="15" r="6" fill="rgb(63,61,86)"/>
            <circle vector-effect="non-scaling-stroke" cx="52.5" cy="15" r="6" fill="rgb(63,61,86)"/>
            <path d=" M 301.823 311.305 C 301.271 311.305 300.823 310.857 300.823 310.305 L 300.823 269.305 C 300.823 268.752 301.271 268.305 301.823 268.305 C 302.375 268.305 302.823 268.752 302.823 269.305 L 302.823 310.305 C 302.823 310.857 302.375 311.305 301.823 311.305 L 301.823 311.305 Z "
                  fill="rgb(63,61,86)"/>
            <path d=" M 300.452 253.305 C 300.275 253.305 300.102 253.258 299.95 253.169 L 243.134 220.065 C 242.658 219.787 242.497 219.175 242.775 218.698 C 243.053 218.221 243.664 218.06 244.141 218.337 L 300.956 251.441 C 301.347 251.668 301.536 252.129 301.418 252.566 C 301.3 253.002 300.904 253.305 300.452 253.305 L 300.452 253.305 Z "
                  fill="rgb(63,61,86)"/>
            <path d=" M 186.824 253.305 C 186.372 253.305 185.976 253.002 185.858 252.566 C 185.739 252.129 185.929 251.668 186.319 251.441 L 243.134 218.337 C 243.611 218.061 244.221 218.224 244.498 218.7 C 244.776 219.175 244.616 219.786 244.141 220.065 L 187.326 253.169 C 187.174 253.258 187 253.305 186.824 253.305 L 186.824 253.305 Z "
                  fill="rgb(63,61,86)"/>
            <path d=" M 359.452 303.305 C 359.275 303.305 359.102 303.258 358.95 303.169 L 302.134 270.065 C 301.658 269.787 301.497 269.175 301.775 268.698 C 302.053 268.221 302.664 268.06 303.141 268.337 L 359.956 301.441 C 360.347 301.668 360.536 302.129 360.418 302.566 C 360.3 303.002 359.904 303.305 359.452 303.305 L 359.452 303.305 Z "
                  fill="rgb(63,61,86)"/>
            <path d=" M 245.824 303.305 C 245.372 303.305 244.976 303.002 244.858 302.566 C 244.739 302.129 244.929 301.668 245.319 301.441 L 302.134 268.337 C 302.611 268.061 303.221 268.224 303.498 268.7 C 303.776 269.175 303.616 269.786 303.141 270.065 L 246.326 303.169 C 246.174 303.258 246 303.305 245.824 303.305 Z "
                  fill="rgb(63,61,86)"/>
            <path d=" M 243.823 202.305 C 243.271 202.305 242.824 201.859 242.823 201.307 L 242.73 164.92 C 242.73 164.655 242.834 164.4 243.021 164.212 C 243.209 164.024 243.463 163.918 243.728 163.918 L 243.73 163.918 C 244.282 163.918 244.729 164.364 244.73 164.915 L 244.823 201.302 C 244.824 201.568 244.719 201.822 244.532 202.01 C 244.345 202.198 244.091 202.304 243.825 202.305 L 243.823 202.305 Z "
                  fill="rgb(63,61,86)"/>
            <path d=" M 256.756 221.221 L 230.704 221.221 C 228.22 221.218 226.207 219.205 226.204 216.721 L 226.204 203.339 C 226.207 200.855 228.22 198.842 230.704 198.839 L 256.756 198.839 C 259.241 198.842 261.254 200.855 261.256 203.339 L 261.256 216.721 C 261.254 219.205 259.241 221.218 256.756 221.221 L 256.756 221.221 Z "
                  fill="rgb(204,204,204)"/>
            <path d=" M 229.347 153.201 L 158.483 153.201 C 157.777 153.201 157.204 152.753 157.204 152.201 C 157.204 151.648 157.777 151.201 158.483 151.201 L 229.347 151.201 C 230.053 151.201 230.625 151.648 230.625 152.201 C 230.625 152.753 230.053 153.201 229.347 153.201 Z "
                  fill="rgb(63,61,86)"/>
            <path d=" M 243.73 138.918 C 243.178 138.918 242.73 138.47 242.73 137.918 L 242.73 103.305 C 242.73 102.752 243.178 102.305 243.73 102.305 C 244.283 102.305 244.73 102.752 244.73 103.305 L 244.73 137.918 C 244.73 138.47 244.283 138.918 243.73 138.918 L 243.73 138.918 Z "
                  fill="rgb(63,61,86)"/>
            <path d=" M 136.637 153.201 C 136.458 153.201 136.282 153.153 136.128 153.061 L 82.313 121.165 C 81.839 120.883 81.684 120.27 81.965 119.796 C 82.246 119.322 82.858 119.165 83.333 119.444 L 137.148 151.34 C 137.535 151.57 137.721 152.031 137.602 152.466 C 137.483 152.9 137.088 153.201 136.637 153.201 L 136.637 153.201 Z "
                  fill="rgb(63,61,86)"/>
            <path d=" M 82.824 185.097 C 82.373 185.097 81.978 184.796 81.859 184.362 C 81.739 183.927 81.925 183.466 82.313 183.236 L 136.128 151.34 C 136.603 151.059 137.217 151.216 137.498 151.691 C 137.78 152.166 137.623 152.78 137.148 153.061 L 83.333 184.957 C 83.179 185.049 83.003 185.097 82.824 185.097 L 82.824 185.097 Z "
                  fill="rgb(63,61,86)"/>
            <path d=" M 154.204 169.331 L 140.823 169.331 C 138.339 169.328 136.326 167.315 136.323 164.831 L 136.323 138.779 C 136.326 136.295 138.339 134.282 140.823 134.279 L 154.204 134.279 C 156.688 134.282 158.702 136.295 158.704 138.779 L 158.704 164.831 C 158.702 167.315 156.688 169.328 154.204 169.331 L 154.204 169.331 Z "
                  fill="rgb(204,204,204)"/>
            <path d=" M 256.756 105.996 L 230.704 105.996 C 228.22 105.993 226.207 103.98 226.204 101.496 L 226.204 88.114 C 226.207 85.63 228.22 83.617 230.704 83.614 L 256.756 83.614 C 259.241 83.617 261.254 85.63 261.256 88.114 L 261.256 101.496 C 261.254 103.98 259.241 105.993 256.756 105.996 L 256.756 105.996 Z "
                  fill="rgb(204,204,204)"/>
            <path d=" M 79.204 138.331 L 65.823 138.331 C 63.339 138.328 61.326 136.315 61.323 133.831 L 61.323 107.779 C 61.326 105.295 63.339 103.282 65.823 103.279 L 79.204 103.279 C 81.688 103.282 83.702 105.295 83.704 107.779 L 83.704 133.831 C 83.702 136.315 81.688 138.328 79.204 138.331 L 79.204 138.331 Z "
                  fill="rgb(204,204,204)"/>
            <path d=" M 79.204 201.331 L 65.823 201.331 C 63.339 201.328 61.326 199.315 61.323 196.831 L 61.323 170.779 C 61.326 168.295 63.339 166.282 65.823 166.279 L 79.204 166.279 C 81.688 166.282 83.702 168.295 83.704 170.779 L 83.704 196.831 C 83.702 199.315 81.688 201.328 79.204 201.331 L 79.204 201.331 Z "
                  fill="rgb(204,204,204)"/>
            <path d=" M 329.149 153.201 L 267.733 153.201 C 267.121 153.201 266.625 152.753 266.625 152.201 C 266.625 151.648 267.121 151.201 267.733 151.201 L 329.149 151.201 C 329.76 151.201 330.256 151.648 330.256 152.201 C 330.256 152.753 329.76 153.201 329.149 153.201 Z "
                  fill="rgb(63,61,86)"/>
            <path d=" M 350.824 153.201 C 350.373 153.201 349.978 152.9 349.858 152.466 C 349.739 152.031 349.925 151.57 350.313 151.34 L 404.128 119.444 C 404.603 119.163 405.217 119.32 405.498 119.795 C 405.78 120.27 405.623 120.884 405.148 121.165 L 351.333 153.061 C 351.179 153.153 351.003 153.201 350.824 153.201 L 350.824 153.201 Z "
                  fill="rgb(63,61,86)"/>
            <path d=" M 404.637 185.097 C 404.458 185.097 404.282 185.049 404.128 184.957 L 350.313 153.061 C 349.838 152.78 349.681 152.166 349.962 151.691 C 350.244 151.216 350.857 151.059 351.333 151.34 L 405.148 183.236 C 405.535 183.466 405.721 183.927 405.602 184.362 C 405.483 184.796 405.088 185.097 404.637 185.097 L 404.637 185.097 Z "
                  fill="rgb(63,61,86)"/>
            <path d=" M 346.638 169.331 L 333.256 169.331 C 330.772 169.328 328.759 167.315 328.756 164.831 L 328.756 138.779 C 328.759 136.295 330.772 134.282 333.256 134.279 L 346.638 134.279 C 349.122 134.282 351.135 136.295 351.138 138.779 L 351.138 164.831 C 351.135 167.315 349.122 169.328 346.638 169.331 L 346.638 169.331 Z "
                  fill="rgb(204,204,204)"/>
            <path d=" M 421.638 138.331 L 408.256 138.331 C 405.772 138.328 403.759 136.315 403.756 133.831 L 403.756 107.779 C 403.759 105.295 405.772 103.282 408.256 103.279 L 421.638 103.279 C 424.122 103.282 426.135 105.295 426.138 107.779 L 426.138 133.831 C 426.135 136.315 424.122 138.328 421.638 138.331 L 421.638 138.331 Z "
                  fill="rgb(204,204,204)"/>
            <path d=" M 421.638 201.331 L 408.256 201.331 C 405.772 201.328 403.759 199.315 403.756 196.831 L 403.756 170.779 C 403.759 168.295 405.772 166.282 408.256 166.279 L 421.638 166.279 C 424.122 166.282 426.135 168.295 426.138 170.779 L 426.138 196.831 C 426.135 199.315 424.122 201.328 421.638 201.331 L 421.638 201.331 Z "
                  fill="rgb(204,204,204)"/>
            <path d=" M 198.756 272.221 L 172.704 272.221 C 170.22 272.218 168.207 270.205 168.204 267.721 L 168.204 254.339 C 168.207 251.855 170.22 249.842 172.704 249.839 L 198.756 249.839 C 201.24 249.842 203.254 251.855 203.256 254.339 L 203.256 267.721 C 203.254 270.205 201.24 272.218 198.756 272.221 L 198.756 272.221 Z "
                  fill="rgb(204,204,204)"/>
            <path d=" M 314.571 272.221 L 288.519 272.221 C 286.035 272.218 284.022 270.205 284.019 267.721 L 284.019 254.339 C 284.022 251.855 286.035 249.842 288.519 249.839 L 314.571 249.839 C 317.055 249.842 319.069 251.855 319.071 254.339 L 319.071 267.721 C 319.069 270.205 317.055 272.218 314.571 272.221 L 314.571 272.221 Z "
                  fill="rgb(204,204,204)"/>
            <path d=" M 261.571 321.221 L 235.519 321.221 C 233.035 321.218 231.022 319.205 231.019 316.721 L 231.019 303.339 C 231.022 300.855 233.035 298.842 235.519 298.839 L 261.571 298.839 C 264.055 298.842 266.069 300.855 266.071 303.339 L 266.071 316.721 C 266.069 319.205 264.055 321.218 261.571 321.221 L 261.571 321.221 Z "
                  fill="rgb(204,204,204)"/>
            <path d=" M 372.571 321.221 L 346.519 321.221 C 344.035 321.218 342.022 319.205 342.019 316.721 L 342.019 303.339 C 342.022 300.855 344.035 298.842 346.519 298.839 L 372.571 298.839 C 375.055 298.842 377.069 300.855 377.071 303.339 L 377.071 316.721 C 377.069 319.205 375.055 321.218 372.571 321.221 L 372.571 321.221 Z "
                  fill="rgb(204,204,204)"/>
            <path d=" M 314.571 321.221 L 288.519 321.221 C 286.035 321.218 284.022 319.205 284.019 316.721 L 284.019 303.339 C 284.022 300.855 286.035 298.842 288.519 298.839 L 314.571 298.839 C 317.055 298.842 319.069 300.855 319.071 303.339 L 319.071 316.721 C 319.069 319.205 317.055 321.218 314.571 321.221 L 314.571 321.221 Z "
                  fill="rgb(204,204,204)"/>
        </g>
        <clipPath id="_clipPath_wBP2NedqOgIZstqwOLY9x6hqoLiqb1uz">
            <rect x="218.5" y="124.167" width="52" height="52" transform="matrix(1,0,0,1,0,0)" fill="rgb(255,255,255)"/>
        </clipPath>
        <g clip-path="url(#_clipPath_wBP2NedqOgIZstqwOLY9x6hqoLiqb1uz)">
            <g>
                <path d=" M 229.94 124.167 L 259.06 124.167 C 265.374 124.167 270.5 129.293 270.5 135.607 L 270.5 164.727 C 270.5 171.041 265.374 176.167 259.06 176.167 L 229.94 176.167 C 223.626 176.167 218.5 171.041 218.5 164.727 L 218.5 135.607 C 218.5 129.293 223.626 124.167 229.94 124.167 Z "
                      fill="rgb(108,105,160)"/>
                <mask id="_mask_wz2tB0iY9NC6s1j5z0KQ0oDnwT9d2lMo" x="-200%" y="-200%" width="400%" height="400%">
                    <rect x="-200%" y="-200%" width="400%" height="400%" style="fill:white;"/>
                    <path d=" M 239.011 133.22 L 226.542 167.113 L 233.139 163.746 L 242.365 138.369 L 247.757 138.369 L 254.953 154.305 L 244.502 154.327 L 244.502 151.228 L 240.124 156.4 L 244.502 161.301 L 244.502 158.469 L 262.458 158.5 L 250.584 133.22 L 239.011 133.22 Z "
                          fill="black" stroke="none"/>
                </mask>
                <path d=" M 239.011 133.22 L 226.542 167.113 L 233.139 163.746 L 242.365 138.369 L 247.757 138.369 L 254.953 154.305 L 244.502 154.327 L 244.502 151.228 L 240.124 156.4 L 244.502 161.301 L 244.502 158.469 L 262.458 158.5 L 250.584 133.22 L 239.011 133.22 Z "
                      fill="rgb(255,255,255)" mask="url(#_mask_wz2tB0iY9NC6s1j5z0KQ0oDnwT9d2lMo)"
                      vector-effect="non-scaling-stroke" stroke-width="2" stroke="rgb(255,255,255)" stroke-opacity="100"
                      stroke-linejoin="miter" stroke-linecap="square" stroke-miterlimit="3"/>
                <path d=" M 239.011 133.22 L 226.542 167.113 L 233.139 163.746 L 242.365 138.369 L 247.757 138.369 L 254.953 154.305 L 244.502 154.327 L 244.502 151.228 L 240.124 156.4 L 244.502 161.301 L 244.502 158.469 L 262.458 158.5 L 250.584 133.22 L 239.011 133.22 Z "
                      fill="rgb(255,255,255)"/>
            </g>
        </g>
    </g>
</svg>