<?xml version="1.0" encoding="UTF-8" standalone="no"?><!-- Generator: Gravit.io -->
<svg xmlns="http://www.w3.org/2000/svg" xmlns:xlink="http://www.w3.org/1999/xlink" style="isolation:isolate"
     viewBox="-0.003 -0.01 794.125 505.355" width="794.125pt" height="505.355pt">
    <defs>
        <clipPath id="_clipPath_NV8BQ0R4dfaYOyNNmjkwQOMDVv52DjIr">
            <rect x="-0.003" y="-0.01" width="794.125" height="505.355"/>
        </clipPath>
    </defs>
    <g clip-path="url(#_clipPath_NV8BQ0R4dfaYOyNNmjkwQOMDVv52DjIr)">
        <g>
            <path d=" M 44.519 503.871 C 32.268 502.863 21.452 494 15.301 483.357 C 13.238 479.788 11.825 475.107 14.161 471.71 C 15.524 469.728 17.882 468.676 20.268 468.986 C 22.654 469.296 24.665 470.916 25.476 473.181 C 24.723 469.012 24.4 464.776 24.511 460.54 C 24.605 456.954 25.283 452.9 28.264 450.906 C 31.724 448.592 36.71 450.429 39.226 453.744 C 41.742 457.059 42.425 461.37 43.029 465.488 C 42.027 461.947 42.892 458.139 45.326 455.378 C 47.759 452.617 51.428 451.281 55.067 451.831 C 60.134 452.596 64.103 456.983 65.652 461.867 C 67.201 466.752 66.717 472.048 65.72 477.074 C 64.552 482.968 62.655 488.815 59.239 493.758 C 55.824 498.702 50.751 502.687 44.866 503.897 L 44.519 503.871 Z "
                  fill="rgb(242,242,242)"/>
            <path d=" M 794.122 106 C 794.122 151.057 765.648 191.193 723.122 206.08 C 722.462 206.31 721.792 206.54 721.122 206.75 L 721.122 99.04 L 582.352 99.04 C 582.392 98.37 582.442 97.7 582.502 97.04 L 721.122 97.04 L 721.122 76 C 721.121 73.239 718.883 71.001 716.122 71 L 588.042 71 C 588.272 70.33 588.512 69.66 588.772 69 C 606.679 20.935 656.43 -7.416 706.91 1.68 C 757.39 10.775 794.117 54.707 794.122 106 L 794.122 106 Z "
                  fill="rgb(242,242,242)"/>
            <path d=" M 716.122 69 L 229.122 69 C 225.258 69.004 222.126 72.136 222.122 76 L 222.122 406 C 222.126 409.864 225.258 412.996 229.122 413 L 716.122 413 C 719.986 412.996 723.118 409.864 723.122 406 L 723.122 76 C 723.118 72.136 719.986 69.004 716.122 69 L 716.122 69 Z  M 721.122 406 C 721.121 408.761 718.883 410.999 716.122 411 L 229.122 411 C 226.361 410.999 224.123 408.761 224.122 406 L 224.122 76 C 224.123 73.239 226.361 71.001 229.122 71 L 716.122 71 C 718.883 71.001 721.121 73.239 721.122 76 L 721.122 406 Z "
                  fill="rgb(63,61,86)"/>
            <rect x="223.122" y="97.04" width="499" height="2" transform="matrix(1,0,0,1,0,0)" fill="rgb(63,61,86)"/>
            <circle vector-effect="non-scaling-stroke" cx="240.1218" cy="84" r="6" fill="rgb(63,61,86)"/>
            <circle vector-effect="non-scaling-stroke" cx="257.3718" cy="84" r="6" fill="rgb(63,61,86)"/>
            <circle vector-effect="non-scaling-stroke" cx="274.6218" cy="84" r="6" fill="rgb(63,61,86)"/>
            <path d=" M 359.122 138 L 271.122 138 C 267.258 138.004 264.126 141.136 264.122 145 L 264.122 233 C 264.126 236.864 267.258 239.996 271.122 240 L 359.122 240 C 362.986 239.996 366.118 236.864 366.122 233 L 366.122 145 C 366.118 141.136 362.986 138.004 359.122 138 L 359.122 138 Z  M 364.122 233 C 364.121 235.761 361.883 237.999 359.122 238 L 271.122 238 C 268.361 237.999 266.123 235.761 266.122 233 L 266.122 145 C 266.123 142.239 268.361 140.001 271.122 140 L 359.122 140 C 361.883 140.001 364.121 142.239 364.122 145 L 364.122 233 Z "
                  fill="rgb(63,61,86)"/>
            <path d=" M 517.122 138.5 L 429.122 138.5 C 425.535 138.507 422.629 141.413 422.622 145 L 422.622 233 C 422.629 236.587 425.535 239.493 429.122 239.5 L 517.122 239.5 C 520.709 239.493 523.615 236.587 523.622 233 L 523.622 145 C 523.615 141.413 520.709 138.507 517.122 138.5 Z "
                  fill="rgb(108,105,160)"/>
            <path d=" M 675.122 138.5 L 587.122 138.5 C 583.535 138.507 580.629 141.413 580.622 145 L 580.622 233 C 580.629 236.587 583.535 239.493 587.122 239.5 L 675.122 239.5 C 678.709 239.493 681.615 236.587 681.622 233 L 681.622 145 C 681.615 141.413 678.709 138.507 675.122 138.5 Z "
                  fill="rgb(230,230,230)"/>
            <path d=" M 359.122 270.5 L 271.122 270.5 C 267.535 270.507 264.629 273.413 264.622 277 L 264.622 365 C 264.629 368.587 267.535 371.493 271.122 371.5 L 359.122 371.5 C 362.709 371.493 365.615 368.587 365.622 365 L 365.622 277 C 365.615 273.413 362.709 270.507 359.122 270.5 Z "
                  fill="rgb(230,230,230)"/>
            <path d=" M 517.122 270.5 L 429.122 270.5 C 425.535 270.507 422.629 273.413 422.622 277 L 422.622 365 C 422.629 368.587 425.535 371.493 429.122 371.5 L 517.122 371.5 C 520.709 371.493 523.615 368.587 523.622 365 L 523.622 277 C 523.615 273.413 520.709 270.507 517.122 270.5 Z "
                  fill="rgb(108,105,160)"/>
            <path d=" M 675.122 270.5 L 587.122 270.5 C 583.535 270.507 580.629 273.413 580.622 277 L 580.622 365 C 580.629 368.587 583.535 371.493 587.122 371.5 L 675.122 371.5 C 678.709 371.493 681.615 368.587 681.622 365 L 681.622 277 C 681.615 273.413 678.709 270.507 675.122 270.5 Z "
                  fill="rgb(230,230,230)"/>
            <path d=" M 337.622 285 L 249.622 285 C 246.034 284.996 243.126 282.088 243.122 278.5 L 243.122 190.5 C 243.126 186.912 246.034 184.004 249.622 184 L 337.622 184 C 341.21 184.004 344.118 186.912 344.122 190.5 L 344.122 278.5 C 344.118 282.088 341.21 284.996 337.622 285 L 337.622 285 Z "
                  fill="rgb(108,105,160)"/>
            <path d=" M 202.746 492.088 L 214.466 488.491 L 206.17 441.573 L 188.872 446.881 L 202.746 492.088 L 202.746 492.088 Z "
                  fill="rgb(160,97,106)"/>
            <path d=" M 240.41 492.438 L 203.574 503.742 L 199.207 489.51 L 221.81 482.573 C 225.585 481.415 229.665 481.804 233.153 483.653 C 236.641 485.503 239.251 488.663 240.41 492.438 L 240.41 492.438 L 240.41 492.438 Z "
                  fill="rgb(47,46,65)"/>
            <path d=" M 102.748 492.358 L 115.008 492.357 L 120.84 445.069 L 102.746 445.07 L 102.748 492.358 L 102.748 492.358 Z "
                  fill="rgb(160,97,106)"/>
            <path d=" M 138.652 503.74 L 100.121 503.742 L 100.121 488.855 L 123.764 488.854 C 127.713 488.854 131.499 490.422 134.291 493.214 C 137.083 496.006 138.652 499.792 138.652 503.74 L 138.652 503.74 L 138.652 503.74 Z "
                  fill="rgb(47,46,65)"/>
            <path d=" M 101.868 355.28 C 99.829 353.493 98.687 350.894 98.748 348.183 C 98.81 345.473 100.069 342.928 102.186 341.235 L 111.692 221.54 L 131.023 226.37 L 115.545 343.129 C 118.212 346.959 117.593 352.179 114.104 355.279 C 110.615 358.379 105.358 358.38 101.868 355.28 L 101.868 355.28 Z "
                  fill="rgb(160,97,106)"/>
            <circle vector-effect="non-scaling-stroke" cx="140.57921" cy="150.55523" r="24.561029999999995"
                    fill="rgb(160,97,106)"/>
            <path d=" M 119.223 217.859 C 113.681 210.25 113.51 199.772 119.48 192.495 C 123.376 187.745 129.892 183.945 140.772 183.945 C 169.772 183.945 180.772 206.945 180.772 206.945 C 180.772 206.945 192.772 228.945 185.772 248.945 C 178.772 268.945 178.772 270.945 178.772 270.945 L 132.772 266.945 C 132.772 266.945 140.532 247.113 119.223 217.859 Z "
                  fill="rgb(204,204,204)"/>
            <path d=" M 105.038 237.767 L 114.947 205.346 C 116.291 200.952 119.515 197.379 123.75 195.594 C 127.984 193.809 132.793 193.995 136.877 196.101 L 136.877 196.101 C 144.141 199.863 147.241 208.615 143.965 216.111 L 131.367 244.802 L 105.038 237.767 Z "
                  fill="rgb(204,204,204)"/>
            <path d=" M 177.772 265.945 L 216.772 467.945 L 195.772 473.945 L 144.772 340.945 L 121.772 476.945 L 99.772 479.945 C 99.772 479.945 90.122 300 132.772 266.945 L 177.772 265.945 Z "
                  fill="rgb(47,46,65)"/>
            <path d=" M 233.903 256.477 C 233.548 256.901 233.226 257.352 232.941 257.827 L 183.406 260.228 L 173.867 231.109 L 157.305 238.98 L 172.893 282.352 L 234.155 270.371 C 237.103 273.589 241.734 274.647 245.787 273.029 C 249.839 271.411 252.468 267.454 252.389 263.091 C 252.31 258.728 249.539 254.869 245.431 253.399 C 241.322 251.929 236.732 253.155 233.903 256.477 L 233.903 256.477 Z "
                  fill="rgb(160,97,106)"/>
            <path d=" M 150.375 209.849 C 149.838 205.285 151.354 200.718 154.514 197.381 C 157.673 194.043 162.151 192.28 166.737 192.567 L 166.737 192.567 C 174.901 193.091 181.258 199.858 181.272 208.039 L 181.272 239.374 L 154.336 243.518 L 150.375 209.849 Z "
                  fill="rgb(204,204,204)"/>
            <path d=" M 145.981 175.339 C 142.294 175.323 139.45 171.442 139.616 167.759 C 139.781 164.076 142.254 160.836 145.234 158.666 C 148.214 156.496 151.709 155.174 155.032 153.579 C 158.356 151.983 161.65 149.993 163.702 146.931 C 166.217 142.863 166.599 137.826 164.725 133.426 C 162.815 129.089 159.537 125.498 155.392 123.202 C 142.622 115.727 126.252 119.318 117.785 131.452 L 113.577 142.91 C 109.289 148.066 108.609 155.724 111.244 161.89 C 113.88 168.056 119.493 172.696 125.826 174.901 C 132.251 176.966 139.129 177.172 145.667 175.496"
                  fill="rgb(47,46,65)"/>
            <path d=" M 123.534 137.179 C 121.725 134.279 118.59 132.435 115.348 131.353 C 107.736 128.812 99.375 129.969 92.738 134.481 C 86.102 138.993 81.952 146.343 81.516 154.356 C 81.172 160.67 83.149 166.845 84.311 173.061 C 85.473 179.277 85.704 186.143 82.277 191.457 C 79.666 195.505 75.313 198.054 71.016 200.23 C 67.435 202.044 63.561 203.746 59.563 203.384 C 55.565 203.023 51.546 199.856 51.652 195.843 C 50.314 198.72 49.41 201.781 48.971 204.923 C 48.69 208.079 49.467 211.485 51.747 213.685 C 55.06 216.884 60.309 216.65 64.863 215.96 C 74.72 214.466 84.701 211.664 92.488 205.439 C 100.275 199.215 105.443 188.965 103.392 179.208 C 102.535 175.133 100.522 171.412 98.895 167.579 C 97.268 163.745 95.998 159.552 96.746 155.455 C 97.641 151.182 100.385 147.526 104.238 145.473 C 108.087 143.471 112.491 142.804 116.761 143.574 C 119.56 144.033 123.055 144.746 124.715 142.446 C 125.613 140.959 125.577 139.089 124.621 137.638 C 123.664 136.232 122.444 135.023 121.029 134.078"
                  fill="rgb(47,46,65)"/>
            <path d=" M 308.485 505.345 L 1.191 505.345 C 0.764 505.346 0.37 505.12 0.157 504.751 C -0.057 504.382 -0.057 503.927 0.157 503.558 C 0.37 503.189 0.764 502.963 1.191 502.964 L 308.485 502.964 C 308.911 502.963 309.305 503.189 309.519 503.558 C 309.732 503.927 309.732 504.382 309.519 504.751 C 309.305 505.12 308.911 505.346 308.485 505.345 L 308.485 505.345 Z "
                  fill="rgb(63,61,86)"/>
        </g>
    </g>
</svg>